G04*
G04 #@! TF.GenerationSoftware,Altium Limited,Altium Designer,25.0.2 (28)*
G04*
G04 Layer_Physical_Order=1*
G04 Layer_Color=255*
%FSLAX44Y44*%
%MOMM*%
G71*
G04*
G04 #@! TF.SameCoordinates,E8353DEC-B648-43D7-BF79-564EE0BAD765*
G04*
G04*
G04 #@! TF.FilePolarity,Positive*
G04*
G01*
G75*
%ADD14C,0.2540*%
%ADD18R,0.8890X1.1430*%
%ADD19R,2.3400X1.5300*%
%ADD20R,1.5100X2.3100*%
%ADD21R,1.1430X0.8890*%
%ADD22R,0.5588X1.3208*%
%ADD23R,0.9300X1.1430*%
%ADD24O,0.8500X0.2500*%
%ADD25O,0.2500X0.8500*%
%ADD26R,5.6000X5.6000*%
%ADD27R,1.1430X0.9300*%
%ADD28R,1.0500X0.6500*%
%ADD29R,0.6500X1.3500*%
%ADD30R,1.0160X0.7000*%
%ADD31R,0.6000X0.7000*%
%ADD32R,0.6000X1.3970*%
%ADD33R,0.3000X1.3970*%
%ADD34R,1.6000X1.4000*%
%ADD35R,0.7000X1.6000*%
%ADD36R,1.2000X1.4000*%
%ADD37R,1.2000X2.2000*%
G04:AMPARAMS|DCode=38|XSize=1.31mm|YSize=0.93mm|CornerRadius=0.0698mm|HoleSize=0mm|Usage=FLASHONLY|Rotation=270.000|XOffset=0mm|YOffset=0mm|HoleType=Round|Shape=RoundedRectangle|*
%AMROUNDEDRECTD38*
21,1,1.3100,0.7905,0,0,270.0*
21,1,1.1705,0.9300,0,0,270.0*
1,1,0.1395,-0.3953,-0.5853*
1,1,0.1395,-0.3953,0.5853*
1,1,0.1395,0.3953,0.5853*
1,1,0.1395,0.3953,-0.5853*
%
%ADD38ROUNDEDRECTD38*%
G04:AMPARAMS|DCode=39|XSize=1.31mm|YSize=3.24mm|CornerRadius=0.0983mm|HoleSize=0mm|Usage=FLASHONLY|Rotation=270.000|XOffset=0mm|YOffset=0mm|HoleType=Round|Shape=RoundedRectangle|*
%AMROUNDEDRECTD39*
21,1,1.3100,3.0435,0,0,270.0*
21,1,1.1135,3.2400,0,0,270.0*
1,1,0.1965,-1.5218,-0.5568*
1,1,0.1965,-1.5218,0.5568*
1,1,0.1965,1.5218,0.5568*
1,1,0.1965,1.5218,-0.5568*
%
%ADD39ROUNDEDRECTD39*%
%ADD40R,0.3000X0.5250*%
%ADD41R,0.4250X0.3000*%
%ADD42R,0.3500X0.5000*%
%ADD45R,1.1000X1.3000*%
%ADD46R,1.3000X1.1000*%
%ADD47R,2.0320X1.1430*%
%ADD48R,1.9000X1.3000*%
%ADD49R,1.5240X1.1430*%
%ADD50R,2.2000X1.0500*%
%ADD51R,1.0500X1.0000*%
%ADD52R,0.9300X1.0160*%
G04:AMPARAMS|DCode=53|XSize=1.5mm|YSize=0.49mm|CornerRadius=0.1225mm|HoleSize=0mm|Usage=FLASHONLY|Rotation=270.000|XOffset=0mm|YOffset=0mm|HoleType=Round|Shape=RoundedRectangle|*
%AMROUNDEDRECTD53*
21,1,1.5000,0.2450,0,0,270.0*
21,1,1.2550,0.4900,0,0,270.0*
1,1,0.2450,-0.1225,-0.6275*
1,1,0.2450,-0.1225,0.6275*
1,1,0.2450,0.1225,0.6275*
1,1,0.2450,0.1225,-0.6275*
%
%ADD53ROUNDEDRECTD53*%
%ADD54R,1.5000X0.8000*%
%ADD102R,0.4000X1.3500*%
%ADD103R,0.6000X1.3500*%
%ADD104C,0.3810*%
%ADD105C,0.5080*%
%ADD106C,0.8128*%
%ADD107C,1.0160*%
%ADD108C,0.6350*%
%ADD109C,1.2700*%
%ADD110C,1.7000*%
%ADD111R,1.3080X1.3080*%
%ADD112C,1.3080*%
%ADD113R,1.5240X1.5240*%
%ADD114O,0.9000X1.7000*%
%ADD115O,0.9000X2.0000*%
%ADD116C,0.6000*%
%ADD117R,6.0000X6.0000*%
%ADD118C,6.0000*%
%ADD119R,1.7000X1.7000*%
%ADD120R,1.7000X1.7000*%
%ADD121C,0.5080*%
%ADD122C,1.0160*%
%ADD123C,0.5000*%
G36*
X1465770Y1232079D02*
Y1129728D01*
X1458414Y1122372D01*
X1458143Y1122426D01*
X1450238D01*
X1449173Y1122214D01*
X1448270Y1121610D01*
X1447666Y1120707D01*
X1447455Y1119642D01*
Y1116777D01*
X1447014Y1115713D01*
X1446761Y1113790D01*
Y1108818D01*
X1437446Y1099503D01*
X1372747D01*
X1372432Y1100264D01*
X1372033Y1102044D01*
X1372994Y1103296D01*
X1373737Y1105088D01*
X1373990Y1107011D01*
Y1115060D01*
X1373737Y1116983D01*
X1373296Y1118047D01*
Y1120912D01*
X1373084Y1121977D01*
X1372480Y1122880D01*
X1371578Y1123484D01*
X1370513Y1123696D01*
X1366932D01*
X1365822Y1124806D01*
Y1128903D01*
X1366139D01*
Y1141857D01*
X1362003D01*
X1360315Y1142556D01*
X1358392Y1142810D01*
X1356469Y1142556D01*
X1354781Y1141857D01*
X1335913D01*
Y1128903D01*
X1340034D01*
Y1123696D01*
X1339707D01*
X1338642Y1123484D01*
X1337740Y1122880D01*
X1337136Y1121977D01*
X1336924Y1120912D01*
Y1114676D01*
X1332570D01*
X1331183Y1114400D01*
X1330007Y1113614D01*
X1330006Y1113614D01*
X1324972Y1108580D01*
X1312088D01*
X1308100Y1112568D01*
X1308100Y1156939D01*
X1308257Y1157044D01*
X1331660Y1180447D01*
X1332113Y1180060D01*
X1336276Y1177509D01*
X1340786Y1175641D01*
X1345533Y1174501D01*
X1350400Y1174118D01*
X1355267Y1174501D01*
X1360014Y1175641D01*
X1364525Y1177509D01*
X1368687Y1180060D01*
X1372400Y1183231D01*
X1375570Y1186943D01*
X1378121Y1191105D01*
X1379989Y1195616D01*
X1381129Y1200363D01*
X1381512Y1205230D01*
X1381129Y1210097D01*
X1379989Y1214844D01*
X1379017Y1217191D01*
X1390287Y1228461D01*
X1391468Y1230000D01*
X1392210Y1231792D01*
X1392464Y1233715D01*
Y1235166D01*
X1462683D01*
X1465770Y1232079D01*
D02*
G37*
G36*
X1504765Y936219D02*
X1505123Y935862D01*
X1505318Y935395D01*
X1505319Y935143D01*
X1505572Y935142D01*
X1506039Y934947D01*
X1506396Y934589D01*
X1506589Y934122D01*
Y933869D01*
Y269659D01*
Y269405D01*
X1506395Y268937D01*
X1506037Y268579D01*
X1505568Y268385D01*
X507703D01*
X505726Y270675D01*
X505727Y270928D01*
X505727Y270929D01*
X504701Y272704D01*
X504575Y273573D01*
X504551Y273902D01*
Y274336D01*
Y652770D01*
X505122Y653204D01*
X507099Y654473D01*
Y654473D01*
X507099Y654473D01*
X776315D01*
X894319Y536469D01*
X894264Y536194D01*
X894540Y534807D01*
X895326Y533630D01*
X896503Y532844D01*
X897890Y532568D01*
X899277Y532844D01*
X900454Y533630D01*
X901240Y534807D01*
X901516Y536194D01*
X901240Y537581D01*
X900454Y538758D01*
X899277Y539544D01*
X897890Y539820D01*
X897615Y539765D01*
X785254Y652126D01*
X786226Y654473D01*
X812637D01*
X814387Y656222D01*
Y925570D01*
X814431Y925902D01*
Y934710D01*
X815002Y935144D01*
X816979Y936413D01*
Y936413D01*
X816979Y936413D01*
X829519D01*
Y807720D01*
X829697Y806828D01*
X830202Y806072D01*
X1004192Y632082D01*
X1004948Y631577D01*
X1005320Y631503D01*
X1006061Y630647D01*
X1006334Y630232D01*
X1006915Y628859D01*
X1006768Y628124D01*
X1007044Y626736D01*
X1007830Y625560D01*
X1009007Y624774D01*
X1009497Y624677D01*
X1009830Y624343D01*
X1009372Y621308D01*
X1008586Y620131D01*
X1008310Y618744D01*
X1008586Y617356D01*
X1009372Y616180D01*
X1009605Y616025D01*
Y604483D01*
X1009783Y603591D01*
X1010288Y602835D01*
X1010631Y602492D01*
X1011178Y600401D01*
X1010924Y599120D01*
X1010949Y598991D01*
X1009452Y596706D01*
X1009062Y596451D01*
X995565D01*
X974417Y617598D01*
X973661Y618103D01*
X972769Y618281D01*
X963907D01*
Y623491D01*
X964415D01*
Y630476D01*
X957430D01*
Y631746D01*
X956160D01*
Y640001D01*
X950445D01*
Y632324D01*
X950214Y629880D01*
X933150D01*
Y614816D01*
X946918D01*
X947432Y614302D01*
X948188Y613797D01*
X949080Y613619D01*
X950953D01*
Y605581D01*
X948400D01*
X947508Y605403D01*
X946886Y604988D01*
X933150D01*
Y589924D01*
X950214D01*
X950445Y587479D01*
Y583936D01*
X944589D01*
Y574896D01*
X942049D01*
Y583936D01*
X935279D01*
Y576192D01*
X932739Y574916D01*
X931942Y575508D01*
Y583382D01*
X916878D01*
Y566318D01*
X931942D01*
Y566318D01*
X932833Y566687D01*
X935255Y564264D01*
X936011Y563759D01*
X936903Y563581D01*
X950445D01*
Y560536D01*
X935949D01*
Y543473D01*
X950953D01*
Y535353D01*
X950445D01*
Y528368D01*
X957430D01*
X964415D01*
Y535353D01*
X963907D01*
Y540227D01*
X964197D01*
X965089Y540404D01*
X965845Y540909D01*
X1000662Y575726D01*
X1001728Y575546D01*
X1002597Y572823D01*
X984679Y554905D01*
X984174Y554149D01*
X983996Y553257D01*
Y552151D01*
X983718Y551966D01*
X982932Y550789D01*
X982656Y549402D01*
X982932Y548014D01*
X983718Y546838D01*
X984894Y546052D01*
X986282Y545776D01*
X987670Y546052D01*
X988846Y546838D01*
X989632Y548014D01*
X989908Y549402D01*
X989632Y550789D01*
X988846Y551966D01*
X990332Y553966D01*
X990414Y554048D01*
X992632Y552673D01*
X992587Y552450D01*
Y523240D01*
X992765Y522348D01*
X993270Y521592D01*
X1026290Y488572D01*
X1027046Y488067D01*
X1027938Y487889D01*
X1028348D01*
Y481548D01*
X1038912D01*
Y483619D01*
X1042393D01*
Y479473D01*
X1041885D01*
Y472488D01*
X1048870D01*
Y469948D01*
X1041885D01*
Y464995D01*
X1039345Y463218D01*
X1038912Y463376D01*
Y475112D01*
X1028348D01*
Y470097D01*
X661541D01*
X592073Y539564D01*
X593125Y542104D01*
X616998D01*
Y540448D01*
X631562D01*
Y541480D01*
X634010Y541703D01*
X634102Y541703D01*
X639930D01*
Y549958D01*
X641200D01*
Y551228D01*
X648390D01*
Y555079D01*
X650930Y556131D01*
X663481Y543581D01*
X663426Y543306D01*
X663702Y541918D01*
X664488Y540742D01*
X665664Y539956D01*
X667052Y539680D01*
X668439Y539956D01*
X669615Y540742D01*
X670401Y541918D01*
X670677Y543306D01*
X670401Y544693D01*
X669615Y545870D01*
X668439Y546656D01*
X667052Y546932D01*
X666777Y546877D01*
X647882Y565772D01*
Y569853D01*
X648390Y572183D01*
X648390Y574258D01*
Y579168D01*
X641405D01*
X634420D01*
Y574428D01*
X634420Y572183D01*
X634423Y572101D01*
X634102Y571766D01*
X631562Y572512D01*
Y572512D01*
X616998D01*
Y569561D01*
X590062D01*
Y572512D01*
X575498D01*
Y561948D01*
X590062D01*
Y564899D01*
X616998D01*
Y561948D01*
X631562D01*
Y564899D01*
X634518D01*
Y558213D01*
X634010D01*
Y551234D01*
X631562Y551012D01*
X631470Y551012D01*
X616998D01*
Y549355D01*
X590062D01*
Y551012D01*
X580626D01*
X571316Y560322D01*
Y615718D01*
X575844Y620246D01*
X578038Y618848D01*
Y608848D01*
X592602D01*
Y611799D01*
X619538D01*
Y608848D01*
X634102D01*
X634518Y606480D01*
Y603171D01*
X634518D01*
X634928Y602917D01*
Y600828D01*
X634610Y598420D01*
X628090D01*
Y592630D01*
Y586840D01*
X634420Y586840D01*
X634420Y586232D01*
Y581708D01*
X641405D01*
X648390D01*
Y588693D01*
X650600Y589489D01*
X655141D01*
X655296Y589256D01*
X656472Y588470D01*
X657860Y588194D01*
X659248Y588470D01*
X660424Y589256D01*
X661210Y590433D01*
X661486Y591820D01*
X661210Y593208D01*
X660424Y594384D01*
X659248Y595170D01*
X657860Y595446D01*
X656472Y595170D01*
X655296Y594384D01*
X655141Y594151D01*
X647882D01*
Y602917D01*
X647882D01*
X647882Y603171D01*
X647882D01*
Y617395D01*
Y632889D01*
X634518D01*
Y628767D01*
X575612D01*
X575612Y628767D01*
X574224Y628491D01*
X573048Y627705D01*
X573048Y627705D01*
X565126Y619784D01*
X564340Y618607D01*
X564064Y617220D01*
X564064Y617220D01*
Y558820D01*
X564064Y558820D01*
X564340Y557432D01*
X565126Y556256D01*
X575498Y545884D01*
Y540448D01*
X580935D01*
X657475Y463907D01*
X657475Y463907D01*
X658651Y463121D01*
X660039Y462845D01*
X948184D01*
Y459740D01*
X956439D01*
Y457200D01*
X948184D01*
Y451485D01*
X948184D01*
Y450215D01*
X948184D01*
Y444500D01*
X956439D01*
Y441960D01*
X948184D01*
Y436245D01*
X948184D01*
Y434975D01*
X948184D01*
Y429260D01*
X956439D01*
Y426720D01*
X948184D01*
Y422323D01*
X948184Y421005D01*
X948184D01*
X948563Y419940D01*
X948563Y419940D01*
Y414020D01*
X956818D01*
Y412750D01*
X958088D01*
Y405560D01*
X964266D01*
Y392102D01*
X962337Y390524D01*
X960118Y391443D01*
Y401701D01*
X935734D01*
Y386207D01*
X948761D01*
Y378923D01*
X934720D01*
X933085Y378598D01*
X931698Y377672D01*
X931698Y377672D01*
X917728Y363702D01*
X916802Y362315D01*
X916477Y360680D01*
Y341630D01*
X916802Y339995D01*
X917728Y338608D01*
X927888Y328448D01*
X927888Y328448D01*
X929275Y327522D01*
X930910Y327197D01*
X989821D01*
X991456Y327522D01*
X992843Y328448D01*
X1001671Y337276D01*
X1001671Y337276D01*
X1001913Y337639D01*
X1004273Y339117D01*
X1005840Y338805D01*
X1007407Y339117D01*
X1008735Y340005D01*
X1009623Y341333D01*
X1009935Y342900D01*
X1009866Y343246D01*
X1011697Y345311D01*
X1013089Y344845D01*
Y342300D01*
X1013331Y340462D01*
X1014041Y338750D01*
X1015169Y337279D01*
X1016640Y336151D01*
X1018352Y335441D01*
X1018920Y335367D01*
Y347800D01*
Y360234D01*
X1018352Y360159D01*
X1017020Y359607D01*
X1015682Y360135D01*
X1014480Y360994D01*
Y365665D01*
X1010210D01*
Y356140D01*
X1007670D01*
Y365665D01*
X1003400D01*
Y365157D01*
X986771D01*
Y368795D01*
X995623Y377647D01*
X996128Y378403D01*
X996306Y379295D01*
Y380126D01*
X998420Y382240D01*
X999607Y382476D01*
X1000784Y383262D01*
X1001570Y384439D01*
X1001846Y385826D01*
X1001570Y387214D01*
X1001186Y387788D01*
X1001932Y389848D01*
X1002311Y390328D01*
X1012974D01*
X1033964Y369338D01*
Y332740D01*
X1033964Y332740D01*
X1034240Y331353D01*
X1035026Y330176D01*
X1078206Y286996D01*
X1079382Y286210D01*
X1080770Y285934D01*
X1080770Y285934D01*
X1182370D01*
X1182370Y285934D01*
X1183757Y286210D01*
X1184934Y286996D01*
X1198904Y300966D01*
X1198904Y300966D01*
X1199690Y302143D01*
X1199966Y303530D01*
Y304973D01*
X1201246Y306982D01*
X1202506Y306982D01*
X1218518D01*
Y324254D01*
X1206291D01*
Y575131D01*
X1206524Y575286D01*
X1207310Y576463D01*
X1207586Y577850D01*
X1207310Y579238D01*
X1206524Y580414D01*
X1205348Y581200D01*
X1203960Y581476D01*
X1202572Y581200D01*
X1201396Y580414D01*
X1200610Y579238D01*
X1200334Y577850D01*
X1200610Y576463D01*
X1201186Y575602D01*
X1200998Y574217D01*
X1200446Y573842D01*
X1198321Y573376D01*
X1184726Y586972D01*
Y719694D01*
X1184939Y720033D01*
X1187266Y721581D01*
X1187450Y721544D01*
X1188838Y721820D01*
X1190014Y722606D01*
X1190800Y723783D01*
X1191076Y725170D01*
X1190800Y726557D01*
X1190014Y727734D01*
X1189781Y727889D01*
Y930538D01*
X1192321Y931717D01*
X1193088Y931205D01*
X1193800Y931063D01*
Y935990D01*
X1196340D01*
Y931063D01*
X1197052Y931205D01*
X1198733Y932327D01*
X1199855Y934008D01*
X1200249Y935990D01*
X1200596Y936413D01*
X1207297D01*
Y764778D01*
X1205915Y763855D01*
X1204568Y761839D01*
X1204095Y759460D01*
X1204568Y757082D01*
X1205915Y755065D01*
X1207932Y753718D01*
X1210310Y753245D01*
X1211217Y753425D01*
X1216844Y747798D01*
Y622469D01*
X1215122Y621690D01*
X1214304Y621602D01*
X1207531Y628375D01*
X1207586Y628650D01*
X1207310Y630037D01*
X1206524Y631214D01*
X1205348Y632000D01*
X1203960Y632276D01*
X1202572Y632000D01*
X1201396Y631214D01*
X1200610Y630037D01*
X1200334Y628650D01*
X1200610Y627262D01*
X1201396Y626086D01*
X1202572Y625300D01*
X1203960Y625024D01*
X1204235Y625079D01*
X1210519Y618795D01*
Y338050D01*
X1210697Y337158D01*
X1211202Y336402D01*
X1226614Y320990D01*
Y307014D01*
X1243886D01*
Y324286D01*
X1229910D01*
X1215181Y339016D01*
Y440521D01*
X1217721Y441292D01*
X1217906Y441014D01*
X1250004Y408916D01*
X1250004Y408916D01*
X1251180Y408130D01*
X1252568Y407854D01*
X1252568Y407854D01*
X1394808D01*
X1394808Y407854D01*
X1396196Y408130D01*
X1397372Y408916D01*
X1406064Y417608D01*
X1406064Y417608D01*
X1406850Y418784D01*
X1407126Y420172D01*
X1407814Y422428D01*
X1442992D01*
Y442492D01*
X1428791D01*
Y445055D01*
X1445638Y461902D01*
X1446143Y462658D01*
X1446321Y463550D01*
Y498990D01*
X1446143Y499882D01*
X1445638Y500638D01*
X1428421Y517855D01*
Y534318D01*
X1431122D01*
Y551882D01*
X1420921D01*
Y577850D01*
X1420744Y578741D01*
X1420239Y579498D01*
X1408808Y590928D01*
X1408052Y591433D01*
X1407160Y591611D01*
X1348588D01*
X1348106Y594151D01*
X1348764Y594590D01*
X1349550Y595766D01*
X1349826Y597154D01*
X1349550Y598541D01*
X1348764Y599718D01*
X1348531Y599873D01*
Y812800D01*
X1348353Y813692D01*
X1347848Y814448D01*
X1337902Y824394D01*
X1337146Y824900D01*
X1336254Y825077D01*
X1312830D01*
Y838714D01*
Y850778D01*
X1293766D01*
Y847077D01*
X1280160D01*
X1279268Y846899D01*
X1278512Y846394D01*
X1274292Y842174D01*
X1274228Y842079D01*
X1273444Y841923D01*
X1272690Y841419D01*
X1271936Y841923D01*
X1270665Y842176D01*
X1268215D01*
X1266944Y841923D01*
X1266190Y841419D01*
X1265436Y841923D01*
X1264165Y842176D01*
X1261715D01*
X1260444Y841923D01*
X1260147Y841725D01*
X1259134Y842402D01*
X1257710Y842685D01*
Y832580D01*
Y822475D01*
X1259134Y822758D01*
X1260147Y823435D01*
X1260444Y823237D01*
X1261715Y822984D01*
X1264165D01*
X1264569Y823065D01*
X1266690Y821786D01*
X1267109Y821301D01*
Y820928D01*
X1267287Y820036D01*
X1267792Y819280D01*
X1269824Y817248D01*
X1270580Y816743D01*
X1271214Y816617D01*
X1270963Y814077D01*
X1232624D01*
X1231732Y813899D01*
X1230976Y813394D01*
X1223648Y806066D01*
X1223143Y805310D01*
X1222965Y804418D01*
Y755251D01*
X1220619Y754279D01*
X1216345Y758553D01*
X1216525Y759460D01*
X1216052Y761839D01*
X1214705Y763855D01*
X1214548Y763960D01*
Y936413D01*
X1468350D01*
X1470582Y935670D01*
X1470582Y933873D01*
Y929150D01*
X1484122D01*
X1497662D01*
Y933873D01*
X1497662Y935670D01*
X1499895Y936413D01*
X1504298D01*
X1504765Y936219D01*
D02*
G37*
G36*
X1177474Y585470D02*
X1177474Y585470D01*
X1177750Y584082D01*
X1178536Y582906D01*
X1192714Y568728D01*
Y324254D01*
X1188107D01*
Y398141D01*
X1187831Y399529D01*
X1187046Y400705D01*
X1187045Y400705D01*
X1131501Y456249D01*
X1131640Y456946D01*
Y615823D01*
X1134491D01*
Y615315D01*
X1141476D01*
Y622300D01*
Y629285D01*
X1134491D01*
Y628777D01*
X1131640D01*
Y632333D01*
X1134491D01*
Y631825D01*
X1141476D01*
Y638810D01*
X1142746D01*
Y640080D01*
X1151001D01*
Y645795D01*
X1151001D01*
Y647065D01*
X1151001D01*
Y652780D01*
X1142746D01*
Y654050D01*
X1141476D01*
Y661035D01*
X1134491D01*
Y660527D01*
X1131640D01*
Y689773D01*
X1139087Y697220D01*
X1139087Y697220D01*
X1139873Y698396D01*
X1140149Y699783D01*
X1140149Y699784D01*
Y736014D01*
X1139873Y737402D01*
X1139087Y738578D01*
X1139087Y738578D01*
X1134999Y742665D01*
Y750902D01*
X1134999D01*
Y752778D01*
X1134999D01*
Y755834D01*
X1149521D01*
X1150035Y755065D01*
X1152051Y753718D01*
X1154430Y753245D01*
X1156808Y753718D01*
X1158825Y755065D01*
X1160172Y757082D01*
X1160645Y759460D01*
X1160172Y761839D01*
X1158825Y763855D01*
X1156808Y765202D01*
X1154430Y765675D01*
X1152051Y765202D01*
X1150035Y763855D01*
X1149521Y763086D01*
X1134999D01*
Y766142D01*
X1105281D01*
Y761791D01*
X1098983D01*
X1098828Y762024D01*
X1097652Y762810D01*
X1096264Y763086D01*
X1094876Y762810D01*
X1093700Y762024D01*
X1093545Y761791D01*
X1086212D01*
Y762141D01*
X1061720D01*
Y762649D01*
X1058950D01*
Y757484D01*
Y752319D01*
X1061720D01*
Y752827D01*
X1079148D01*
Y748399D01*
X1078640D01*
Y745629D01*
X1083305D01*
Y743089D01*
X1078640D01*
Y740319D01*
X1078640D01*
Y738399D01*
X1078640D01*
Y735629D01*
X1083305D01*
Y733089D01*
X1078640D01*
Y730891D01*
X1061720D01*
Y731399D01*
X1058950D01*
Y726234D01*
X1056410D01*
Y731399D01*
X1053640D01*
Y730891D01*
X1041212D01*
Y741984D01*
X1041356Y742013D01*
X1042322Y742658D01*
X1044786Y745122D01*
X1045432Y746088D01*
X1045658Y747228D01*
Y752827D01*
X1053640D01*
Y752319D01*
X1056410D01*
Y757484D01*
Y762649D01*
X1055011D01*
Y774113D01*
X1064999D01*
Y773605D01*
X1071984D01*
Y780590D01*
Y787575D01*
X1071340D01*
X1068977Y788714D01*
Y794156D01*
X1078178D01*
Y811220D01*
X1055114D01*
Y794156D01*
X1064315D01*
Y789679D01*
X1061703Y787067D01*
X1051581D01*
X1050775Y787067D01*
Y787067D01*
X1049251Y786559D01*
X1049251Y786559D01*
X1038323D01*
X1036977Y787905D01*
Y794156D01*
X1046178D01*
Y811220D01*
X1023114D01*
Y794156D01*
X1032315D01*
Y787067D01*
X1028042D01*
Y780082D01*
Y773097D01*
X1035027D01*
Y773605D01*
X1044685D01*
X1045349Y772941D01*
Y762141D01*
X1034148D01*
Y753399D01*
X1032390D01*
Y750629D01*
X1037055D01*
Y748089D01*
X1032390D01*
Y747337D01*
X1019683D01*
Y750697D01*
X1019683D01*
Y752777D01*
X1019683D01*
Y765731D01*
X1012430D01*
Y766898D01*
X1012154Y768286D01*
X1011368Y769462D01*
X1011368Y769462D01*
X1008392Y772438D01*
X1007216Y773224D01*
X1005828Y773500D01*
X1005828Y773500D01*
X908304D01*
X908304Y773500D01*
X906917Y773224D01*
X905740Y772438D01*
X903516Y773285D01*
X865410Y811391D01*
X866382Y813738D01*
X874395D01*
Y818089D01*
X903807D01*
X903962Y817856D01*
X905138Y817070D01*
X906526Y816794D01*
X907914Y817070D01*
X909090Y817856D01*
X909876Y819033D01*
X910152Y820420D01*
X909876Y821807D01*
X909090Y822984D01*
X907914Y823770D01*
X906526Y824046D01*
X905138Y823770D01*
X903962Y822984D01*
X903807Y822751D01*
X894898D01*
X893926Y825097D01*
X895728Y826900D01*
X896233Y827656D01*
X896411Y828548D01*
Y831128D01*
X902790D01*
Y830620D01*
X905810D01*
Y835660D01*
X907080D01*
Y836930D01*
X911370D01*
Y839679D01*
X916761D01*
X916916Y839446D01*
X918092Y838660D01*
X919480Y838384D01*
X920867Y838660D01*
X922044Y839446D01*
X922830Y840622D01*
X923106Y842010D01*
X922830Y843398D01*
X922044Y844574D01*
X920867Y845360D01*
X919480Y845636D01*
X918092Y845360D01*
X916916Y844574D01*
X916761Y844341D01*
X910844D01*
X910779Y844354D01*
X908462D01*
X907192Y846894D01*
X907368Y847128D01*
X910862D01*
Y856192D01*
X910185D01*
X909643Y857003D01*
X909643Y857003D01*
X906367Y860280D01*
X905190Y861066D01*
X903803Y861342D01*
X903803Y861342D01*
X892232D01*
X892231Y861342D01*
X892231Y861342D01*
X882162D01*
X874903Y868600D01*
Y876427D01*
X860679D01*
Y876935D01*
X853694D01*
Y869950D01*
X851154D01*
Y876935D01*
X846627D01*
Y936413D01*
X1177474D01*
Y585470D01*
D02*
G37*
G36*
X1343869Y811835D02*
Y599873D01*
X1343636Y599718D01*
X1342850Y598541D01*
X1342574Y597154D01*
X1342850Y595766D01*
X1343636Y594590D01*
X1344294Y594151D01*
X1343812Y591611D01*
X1329755D01*
X1328863Y591433D01*
X1328107Y590928D01*
X1325476Y588297D01*
X1324971Y587541D01*
X1324794Y586649D01*
Y586359D01*
X1317928D01*
Y570865D01*
Y567481D01*
X1262455D01*
X1261563Y567303D01*
X1260807Y566798D01*
X1226636Y532627D01*
X1225107Y533067D01*
X1224096Y534022D01*
Y627011D01*
X1226566Y628834D01*
X1227953Y629110D01*
X1229130Y629896D01*
X1229916Y631073D01*
X1230192Y632460D01*
X1229916Y633848D01*
X1229130Y635024D01*
X1228897Y635179D01*
Y718148D01*
X1228719Y719040D01*
X1228214Y719796D01*
X1227627Y720383D01*
Y803453D01*
X1233589Y809415D01*
X1293766D01*
Y805714D01*
Y793739D01*
X1280486D01*
Y796755D01*
X1280233Y798026D01*
X1279513Y799103D01*
X1278436Y799823D01*
X1277165Y800076D01*
X1274715D01*
X1273444Y799823D01*
X1273147Y799625D01*
X1272134Y800302D01*
X1270710Y800585D01*
Y790480D01*
Y780320D01*
X1272724Y778230D01*
Y766042D01*
X1269768Y763086D01*
X1253319D01*
X1252805Y763855D01*
X1250788Y765202D01*
X1248410Y765675D01*
X1246031Y765202D01*
X1244015Y763855D01*
X1242668Y761839D01*
X1242195Y759460D01*
X1242668Y757082D01*
X1244015Y755065D01*
X1246031Y753718D01*
X1248410Y753245D01*
X1250788Y753718D01*
X1252805Y755065D01*
X1253319Y755834D01*
X1271270D01*
X1271270Y755834D01*
X1272657Y756110D01*
X1273834Y756896D01*
X1278914Y761976D01*
X1278914Y761976D01*
X1279700Y763152D01*
X1279976Y764540D01*
X1279976Y764540D01*
Y773265D01*
X1280269Y773515D01*
X1282516Y774390D01*
X1283512Y773725D01*
X1284224Y773583D01*
Y778510D01*
Y783437D01*
X1283512Y783295D01*
X1282847Y782851D01*
X1280802Y784053D01*
X1281405Y786487D01*
X1291215D01*
X1293258Y785286D01*
Y780016D01*
X1313338D01*
Y785286D01*
X1312830D01*
Y794714D01*
Y805714D01*
Y816714D01*
Y820415D01*
X1335288D01*
X1343869Y811835D01*
D02*
G37*
G36*
X1128522Y721790D02*
X1132897D01*
Y701285D01*
X1125450Y693838D01*
X1124664Y692662D01*
X1124388Y691274D01*
X1124388Y691274D01*
Y690980D01*
X1121848Y689928D01*
X1115359Y696417D01*
Y699681D01*
X1117899Y700451D01*
X1118255Y699918D01*
X1119936Y698795D01*
X1120648Y698653D01*
Y703580D01*
Y708507D01*
X1119936Y708365D01*
X1118255Y707243D01*
X1117899Y706709D01*
X1115359Y707479D01*
Y722298D01*
X1118997D01*
Y721790D01*
X1125982D01*
Y728980D01*
X1128522D01*
Y721790D01*
D02*
G37*
G36*
X1089869Y726746D02*
Y674370D01*
X1090047Y673478D01*
X1090552Y672722D01*
X1101982Y661292D01*
X1102738Y660787D01*
X1103630Y660609D01*
X1112520D01*
X1113412Y660787D01*
X1114168Y661292D01*
X1121848Y668972D01*
X1124388Y667920D01*
Y660527D01*
X1120267D01*
Y657676D01*
X1100593D01*
X1086936Y671333D01*
Y695247D01*
X1086936Y695247D01*
X1086660Y696635D01*
X1085874Y697811D01*
X1085874Y697811D01*
X1076579Y707105D01*
Y715342D01*
X1061245D01*
X1060273Y717689D01*
X1064161Y721577D01*
X1078640D01*
Y721069D01*
X1081410D01*
Y726234D01*
X1082680D01*
Y727504D01*
X1086720D01*
Y728061D01*
X1087329Y728351D01*
X1089869Y726746D01*
D02*
G37*
G36*
X988949Y766239D02*
Y760524D01*
X997204D01*
Y757984D01*
X988949D01*
Y752269D01*
X988949D01*
Y751205D01*
X988949D01*
Y745490D01*
X997204D01*
Y742950D01*
X988949D01*
Y737235D01*
X988949D01*
Y736170D01*
X988949D01*
Y730250D01*
X997204D01*
Y727710D01*
X988949D01*
Y721790D01*
X988949D01*
Y720930D01*
X988949D01*
Y715010D01*
X997204D01*
Y713740D01*
X998474D01*
Y706550D01*
X1005459D01*
Y707058D01*
X1019175D01*
Y711409D01*
X1032092D01*
X1032984Y711587D01*
X1033740Y712092D01*
X1039328Y717680D01*
X1039833Y718436D01*
X1040011Y719328D01*
Y721577D01*
X1046920D01*
X1047972Y719037D01*
X1042800Y713864D01*
X1042295Y713108D01*
X1042117Y712216D01*
Y697484D01*
X1042295Y696592D01*
X1042800Y695836D01*
X1046607Y692029D01*
Y686943D01*
X1060831D01*
Y686435D01*
X1067816D01*
Y693420D01*
X1070356D01*
Y686435D01*
X1077341D01*
Y686435D01*
X1079684Y685960D01*
Y669831D01*
X1079684Y669831D01*
X1079960Y668444D01*
X1080746Y667267D01*
X1087991Y660022D01*
X1087019Y657676D01*
X1019126D01*
X1014400Y662401D01*
X1014270Y663057D01*
X1013484Y664234D01*
X1012308Y665020D01*
X1011651Y665150D01*
X912900Y763902D01*
X913872Y766248D01*
X986413D01*
X988949Y766239D01*
D02*
G37*
G36*
X1043532Y631372D02*
X1044631Y628859D01*
X1044400Y628513D01*
X1044124Y627126D01*
X1044400Y625738D01*
X1045186Y624562D01*
X1046363Y623776D01*
X1046689Y623711D01*
Y619078D01*
X1046434Y618689D01*
X1044149Y617191D01*
X1044020Y617216D01*
X1043979Y617208D01*
X1042043Y619144D01*
X1041287Y619649D01*
X1040395Y619827D01*
X1039552D01*
X1039071Y620546D01*
X1037895Y621332D01*
X1036508Y621608D01*
X1035120Y621332D01*
X1033944Y620546D01*
X1033158Y619370D01*
X1033044Y618795D01*
X1030893Y617530D01*
X1030499Y617440D01*
X1030290Y617482D01*
Y610870D01*
X1027750D01*
Y617482D01*
X1027541Y617440D01*
X1026288Y616603D01*
X1025941Y616534D01*
X1025300Y616962D01*
X1024020Y617216D01*
X1023541Y617121D01*
X1021679Y618787D01*
Y621248D01*
X1021679Y621248D01*
X1021582Y621736D01*
X1021967Y622355D01*
X1023316Y623600D01*
X1023577Y623732D01*
X1023620Y623723D01*
Y628650D01*
X1024890D01*
Y629920D01*
X1030845D01*
X1031985Y631399D01*
X1043506D01*
X1043532Y631372D01*
D02*
G37*
G36*
X1120267Y615823D02*
X1124388D01*
Y596238D01*
X1121848Y595186D01*
X1115946Y601088D01*
X1115190Y601593D01*
X1114298Y601771D01*
X1110352D01*
X1109173Y604311D01*
X1109685Y605078D01*
X1109827Y605790D01*
X1099973D01*
X1100115Y605078D01*
X1100627Y604311D01*
X1099448Y601771D01*
X1096504D01*
X1095612Y601593D01*
X1094856Y601088D01*
X1094837Y601069D01*
X1094340Y600975D01*
X1093755Y601100D01*
X1091862Y602839D01*
X1092116Y604120D01*
X1091862Y605400D01*
X1091860Y605403D01*
X1105132Y618674D01*
X1120267D01*
Y615823D01*
D02*
G37*
G36*
X983307Y597087D02*
X983017Y593848D01*
X981894Y592168D01*
X981753Y591455D01*
X986680D01*
Y588915D01*
X981693D01*
X980525Y586929D01*
X980011Y586451D01*
X968224D01*
X967332Y586273D01*
X966955Y586021D01*
X964415Y586758D01*
Y586788D01*
X957430D01*
Y589328D01*
X964415D01*
Y596313D01*
X963907D01*
Y604729D01*
X975665D01*
X983307Y597087D01*
D02*
G37*
G36*
X997593Y579249D02*
X978948Y560604D01*
X976607Y561855D01*
X976689Y562268D01*
X976295Y564251D01*
X975172Y565931D01*
X973492Y567054D01*
X972779Y567195D01*
Y562268D01*
X970239D01*
Y567195D01*
X969527Y567054D01*
X967847Y565931D01*
X966955Y564596D01*
X965563Y564637D01*
X964415Y565019D01*
Y565579D01*
X963907D01*
Y576507D01*
X969190Y581789D01*
X996541D01*
X997593Y579249D01*
D02*
G37*
G36*
X1361417Y556181D02*
X1363703Y555927D01*
X1363852Y555927D01*
X1370886D01*
X1380058Y546754D01*
Y534318D01*
X1388050D01*
Y533810D01*
X1391811D01*
X1392783Y531463D01*
X1387399Y526079D01*
X1380135D01*
X1378049Y528574D01*
X1377655Y530556D01*
X1376532Y532237D01*
X1374852Y533359D01*
X1374140Y533501D01*
Y528574D01*
X1371600D01*
Y533501D01*
X1370888Y533359D01*
X1369207Y532237D01*
X1368085Y530556D01*
X1367690Y528574D01*
X1366268Y526841D01*
X1315212D01*
X1314320Y526663D01*
X1313564Y526158D01*
X1309246Y521840D01*
X1308741Y521084D01*
X1308563Y520192D01*
Y481584D01*
X1308741Y480692D01*
X1309246Y479936D01*
X1315088Y474094D01*
X1315844Y473589D01*
X1316736Y473411D01*
X1343406D01*
X1344298Y473589D01*
X1345054Y474094D01*
X1345559Y474850D01*
X1345737Y475742D01*
Y476171D01*
X1348799D01*
Y466862D01*
X1348977Y465970D01*
X1349482Y465214D01*
X1369129Y445566D01*
Y442492D01*
X1343928D01*
Y436000D01*
X1338730D01*
Y426460D01*
X1337460D01*
Y425190D01*
X1328920D01*
Y416920D01*
X1327168Y415106D01*
X1254070D01*
X1224096Y445080D01*
Y518852D01*
X1298094D01*
X1298094Y518852D01*
X1299481Y519128D01*
X1300658Y519914D01*
X1336924Y556181D01*
X1346177D01*
Y556181D01*
X1348463D01*
Y556181D01*
X1361417D01*
Y556181D01*
D02*
G37*
G36*
X1416260Y576884D02*
Y552390D01*
X1413360D01*
Y543100D01*
Y533810D01*
X1416630D01*
Y534318D01*
X1423759D01*
Y516890D01*
X1423937Y515998D01*
X1424442Y515242D01*
X1441659Y498025D01*
Y464515D01*
X1438563Y461419D01*
X1436736Y462136D01*
X1436161Y462609D01*
Y492760D01*
X1435983Y493652D01*
X1435478Y494408D01*
X1431668Y498218D01*
X1430912Y498723D01*
X1430020Y498901D01*
X1400578D01*
X1399686Y498723D01*
X1398930Y498218D01*
X1397442Y496730D01*
X1396937Y495974D01*
X1396760Y495082D01*
Y493382D01*
X1390630D01*
Y493890D01*
X1386360D01*
Y484599D01*
X1385090D01*
Y483330D01*
X1379550D01*
Y477819D01*
X1373052D01*
Y490395D01*
Y505889D01*
X1368701D01*
Y516965D01*
X1368934Y517120D01*
X1369720Y518297D01*
X1369996Y519684D01*
X1372241Y521417D01*
X1388364D01*
X1389256Y521595D01*
X1390012Y522100D01*
X1400739Y532826D01*
X1401244Y533582D01*
X1401390Y534318D01*
X1407550D01*
Y533810D01*
X1410820D01*
Y543100D01*
Y552390D01*
X1407921D01*
Y557594D01*
X1407970Y557667D01*
X1408246Y559054D01*
X1407970Y560442D01*
X1407184Y561618D01*
X1406008Y562404D01*
X1404620Y562680D01*
X1403233Y562404D01*
X1402056Y561618D01*
X1401270Y560442D01*
X1400994Y559054D01*
X1401270Y557667D01*
X1402056Y556490D01*
X1403233Y555704D01*
X1403259Y555699D01*
Y551882D01*
X1397130D01*
Y552390D01*
X1393860D01*
Y543100D01*
X1391320D01*
Y552390D01*
X1388050D01*
Y551882D01*
X1385186D01*
X1376657Y560411D01*
Y570151D01*
X1377165D01*
Y577136D01*
X1370180D01*
Y579676D01*
X1377165D01*
Y586661D01*
X1379586Y586949D01*
X1406195D01*
X1416260Y576884D01*
D02*
G37*
G36*
X1075290Y535758D02*
X1075499Y535800D01*
X1075963Y536110D01*
X1076936Y535916D01*
X1078112Y535130D01*
X1079500Y534854D01*
X1081808D01*
X1091114Y525548D01*
Y515954D01*
X1090522Y515507D01*
X1088574Y514829D01*
X1087451Y515579D01*
X1086739Y515721D01*
Y510794D01*
Y505867D01*
X1087451Y506009D01*
X1088574Y506759D01*
X1090522Y506081D01*
X1091114Y505634D01*
Y495173D01*
X1088263D01*
Y494710D01*
X1085827Y494459D01*
Y494459D01*
X1081681D01*
Y500398D01*
X1081504Y501290D01*
X1080998Y502046D01*
X1071351Y511693D01*
Y533773D01*
X1072750Y534742D01*
Y542370D01*
X1075290D01*
Y535758D01*
D02*
G37*
G36*
X1426210Y468783D02*
X1426922Y468925D01*
X1428602Y470047D01*
X1428959Y470581D01*
X1431499Y469811D01*
Y463327D01*
X1413812Y445640D01*
X1413307Y444884D01*
X1413129Y443992D01*
Y442492D01*
X1401844D01*
X1400872Y444838D01*
X1420239Y464205D01*
X1420744Y464961D01*
X1420921Y465853D01*
Y467231D01*
X1421707Y467884D01*
X1423461Y468825D01*
X1423670Y468783D01*
Y473710D01*
X1426210D01*
Y468783D01*
D02*
G37*
G36*
X1114069Y463426D02*
X1113097Y461080D01*
X1081819D01*
X1080195Y463620D01*
X1080244Y463725D01*
X1086335D01*
Y463725D01*
X1087755Y464439D01*
X1093470D01*
Y472694D01*
X1096010D01*
Y464439D01*
X1101725D01*
Y472452D01*
X1104072Y473424D01*
X1114069Y463426D01*
D02*
G37*
G36*
X1356569Y472440D02*
X1356747Y471548D01*
X1357252Y470792D01*
X1362332Y465712D01*
X1363088Y465207D01*
X1363980Y465029D01*
X1377459D01*
X1378599Y463550D01*
X1390509D01*
X1391649Y465029D01*
X1408430D01*
X1409322Y465207D01*
X1410078Y465712D01*
X1412704Y468338D01*
X1415408Y467450D01*
X1415603Y466162D01*
X1391933Y442492D01*
X1388500D01*
Y443000D01*
X1383730D01*
Y432460D01*
Y421920D01*
X1388500D01*
Y422428D01*
X1397036D01*
X1398088Y419888D01*
X1393306Y415106D01*
X1347753D01*
X1346000Y416920D01*
Y422428D01*
X1376420D01*
Y421920D01*
X1381190D01*
Y432460D01*
Y443000D01*
X1376420D01*
Y442492D01*
X1373791D01*
Y446532D01*
X1373614Y447424D01*
X1373108Y448180D01*
X1353461Y467828D01*
Y476171D01*
X1356569D01*
Y472440D01*
D02*
G37*
%LPC*%
G36*
X1435242Y1122426D02*
X1427337D01*
X1426272Y1122214D01*
X1425370Y1121610D01*
X1424766Y1120707D01*
X1424554Y1119642D01*
Y1115384D01*
X1419860D01*
X1418472Y1115108D01*
X1417296Y1114322D01*
X1416510Y1113146D01*
X1416234Y1111758D01*
X1416510Y1110370D01*
X1417296Y1109194D01*
X1418472Y1108408D01*
X1419860Y1108132D01*
X1424554D01*
Y1107937D01*
X1424766Y1106872D01*
X1425370Y1105970D01*
X1426272Y1105366D01*
X1427337Y1105154D01*
X1435242D01*
X1436308Y1105366D01*
X1437210Y1105970D01*
X1437814Y1106872D01*
X1438026Y1107937D01*
Y1119642D01*
X1437814Y1120707D01*
X1437210Y1121610D01*
X1436308Y1122214D01*
X1435242Y1122426D01*
D02*
G37*
G36*
X1435338Y925286D02*
X1426568D01*
Y920016D01*
X1435338D01*
Y925286D01*
D02*
G37*
G36*
X1424028D02*
X1415258D01*
Y920016D01*
X1424028D01*
Y925286D01*
D02*
G37*
G36*
X1313338D02*
X1304568D01*
Y920016D01*
X1313338D01*
Y925286D01*
D02*
G37*
G36*
X1302028D02*
X1293258D01*
Y920016D01*
X1302028D01*
Y925286D01*
D02*
G37*
G36*
X1497662Y926610D02*
X1484122D01*
X1470582D01*
Y920162D01*
X1461590D01*
Y914983D01*
X1436958D01*
X1435338Y917141D01*
Y917476D01*
X1415258D01*
Y912206D01*
X1415766D01*
Y903286D01*
X1415258D01*
Y898016D01*
X1435338D01*
Y903286D01*
X1434830D01*
Y907228D01*
X1437923Y910321D01*
X1461590D01*
Y906098D01*
X1470582D01*
Y899650D01*
X1484122D01*
X1497662D01*
Y906170D01*
X1496222D01*
Y920090D01*
X1497662D01*
Y926610D01*
D02*
G37*
G36*
Y897110D02*
X1485392D01*
Y890590D01*
X1497662D01*
Y897110D01*
D02*
G37*
G36*
X1482852D02*
X1470582D01*
Y890590D01*
X1482852D01*
Y897110D01*
D02*
G37*
G36*
X1471018Y882825D02*
X1462128D01*
Y875840D01*
X1471018D01*
Y882825D01*
D02*
G37*
G36*
X1459588D02*
X1450698D01*
Y875840D01*
X1459588D01*
Y882825D01*
D02*
G37*
G36*
X1435338Y895476D02*
X1415258D01*
Y890206D01*
X1415766D01*
Y879714D01*
Y868714D01*
X1434830D01*
Y879714D01*
Y890206D01*
X1435338D01*
Y895476D01*
D02*
G37*
G36*
X1313338Y917476D02*
X1293258D01*
Y912206D01*
X1293766D01*
Y901714D01*
Y890714D01*
Y879714D01*
Y868714D01*
X1312830D01*
Y879714D01*
Y890714D01*
Y901714D01*
Y912206D01*
X1313338D01*
Y917476D01*
D02*
G37*
G36*
X1255170Y842685D02*
X1253746Y842402D01*
X1252501Y841569D01*
X1251668Y840324D01*
X1251376Y838855D01*
Y833850D01*
X1255170D01*
Y842685D01*
D02*
G37*
G36*
X1239774Y836777D02*
Y833120D01*
X1243431D01*
X1243289Y833832D01*
X1242167Y835512D01*
X1240486Y836635D01*
X1239774Y836777D01*
D02*
G37*
G36*
X1237234D02*
X1236522Y836635D01*
X1234842Y835512D01*
X1233719Y833832D01*
X1233577Y833120D01*
X1237234D01*
Y836777D01*
D02*
G37*
G36*
X1243431Y830580D02*
X1239774D01*
Y826923D01*
X1240486Y827065D01*
X1242167Y828187D01*
X1243289Y829868D01*
X1243431Y830580D01*
D02*
G37*
G36*
X1237234D02*
X1233577D01*
X1233719Y829868D01*
X1234842Y828187D01*
X1236522Y827065D01*
X1237234Y826923D01*
Y830580D01*
D02*
G37*
G36*
X1255170Y831310D02*
X1251376D01*
Y826305D01*
X1251668Y824836D01*
X1252501Y823591D01*
X1253746Y822758D01*
X1255170Y822475D01*
Y831310D01*
D02*
G37*
G36*
X1471018Y873300D02*
X1460858D01*
X1450698D01*
Y866646D01*
X1450698Y866315D01*
X1451206Y863985D01*
X1451206Y863775D01*
Y848823D01*
X1452398D01*
Y835962D01*
Y821738D01*
X1456749D01*
Y813765D01*
X1446061Y803077D01*
X1434830D01*
Y816714D01*
Y827714D01*
Y838714D01*
Y850778D01*
X1415766D01*
Y838714D01*
Y827714D01*
Y816714D01*
Y805714D01*
Y794714D01*
Y783714D01*
Y772714D01*
X1434830D01*
Y783714D01*
Y794714D01*
Y798415D01*
X1447026D01*
X1447918Y798593D01*
X1448674Y799098D01*
X1460728Y811152D01*
X1461234Y811908D01*
X1461411Y812800D01*
Y821738D01*
X1465762D01*
Y835962D01*
Y848823D01*
X1470510D01*
X1470510Y863985D01*
X1471018Y866315D01*
X1471018Y866646D01*
Y873300D01*
D02*
G37*
G36*
X964415Y640001D02*
X958700D01*
Y633016D01*
X964415D01*
Y640001D01*
D02*
G37*
G36*
X625550Y598420D02*
X619030D01*
Y593900D01*
X625550D01*
Y598420D01*
D02*
G37*
G36*
X593110D02*
X586590D01*
Y593900D01*
X593110D01*
Y598420D01*
D02*
G37*
G36*
X584050D02*
X577530D01*
Y593900D01*
X584050D01*
Y598420D01*
D02*
G37*
G36*
X593110Y591360D02*
X586590D01*
Y586840D01*
X593110D01*
Y591360D01*
D02*
G37*
G36*
X584050D02*
X577530D01*
Y586840D01*
X584050D01*
Y591360D01*
D02*
G37*
G36*
X625550D02*
X619030D01*
Y586840D01*
X625550D01*
Y591360D01*
D02*
G37*
G36*
X932450Y560890D02*
X925680D01*
Y553120D01*
X932450D01*
Y560890D01*
D02*
G37*
G36*
X923140D02*
X916370D01*
Y553120D01*
X923140D01*
Y560890D01*
D02*
G37*
G36*
X932450Y550579D02*
X925680D01*
Y542810D01*
X932450D01*
Y550579D01*
D02*
G37*
G36*
X923140D02*
X916370D01*
Y542810D01*
X923140D01*
Y550579D01*
D02*
G37*
G36*
X648390Y548688D02*
X642470D01*
Y541703D01*
X648390D01*
Y548688D01*
D02*
G37*
G36*
X964415Y525828D02*
X958700D01*
Y518843D01*
X964415D01*
Y525828D01*
D02*
G37*
G36*
X956160D02*
X950445D01*
Y518843D01*
X956160D01*
Y525828D01*
D02*
G37*
G36*
X1494000Y437000D02*
X1484730D01*
Y428730D01*
X1494000D01*
Y437000D01*
D02*
G37*
G36*
X1482190D02*
X1472920D01*
Y428730D01*
X1482190D01*
Y437000D01*
D02*
G37*
G36*
X1494000Y426190D02*
X1484730D01*
Y417920D01*
X1494000D01*
Y426190D01*
D02*
G37*
G36*
X1482190D02*
X1472920D01*
Y417920D01*
X1482190D01*
Y426190D01*
D02*
G37*
G36*
X955548Y411480D02*
X948563D01*
Y405560D01*
X955548D01*
Y411480D01*
D02*
G37*
G36*
X582168D02*
X578104D01*
Y403606D01*
X582168D01*
Y411480D01*
D02*
G37*
G36*
X575564D02*
X571500D01*
Y403606D01*
X575564D01*
Y411480D01*
D02*
G37*
G36*
X581279Y435942D02*
X551561D01*
Y422578D01*
X551561D01*
X552704Y421386D01*
Y404114D01*
X562356D01*
Y421386D01*
X564402Y422578D01*
X569243D01*
X571500Y421894D01*
X571500Y420038D01*
Y414020D01*
X576834D01*
X582168D01*
Y420406D01*
X582168Y421894D01*
X581279Y424066D01*
Y426929D01*
X592125D01*
X639049Y380005D01*
X638994Y379730D01*
X639270Y378343D01*
X640056Y377166D01*
X641233Y376380D01*
X642620Y376104D01*
X644007Y376380D01*
X645184Y377166D01*
X645970Y378343D01*
X646246Y379730D01*
X645970Y381118D01*
X645184Y382294D01*
X644007Y383080D01*
X642620Y383356D01*
X642345Y383301D01*
X594738Y430908D01*
X593982Y431413D01*
X593090Y431591D01*
X581279D01*
Y435942D01*
D02*
G37*
G36*
X1021460Y360234D02*
Y349070D01*
X1027291D01*
Y353300D01*
X1027049Y355138D01*
X1026339Y356851D01*
X1025211Y358321D01*
X1023740Y359450D01*
X1022028Y360159D01*
X1021460Y360234D01*
D02*
G37*
G36*
X1027291Y346530D02*
X1021460D01*
Y335367D01*
X1022028Y335441D01*
X1023740Y336151D01*
X1025211Y337279D01*
X1026339Y338750D01*
X1027049Y340462D01*
X1027291Y342300D01*
Y346530D01*
D02*
G37*
G36*
X1501000Y345000D02*
X1493730D01*
Y332730D01*
X1501000D01*
Y345000D01*
D02*
G37*
G36*
X1491190D02*
X1483920D01*
Y332730D01*
X1491190D01*
Y345000D01*
D02*
G37*
G36*
X1346000D02*
X1338730D01*
Y332730D01*
X1346000D01*
Y345000D01*
D02*
G37*
G36*
X1336190D02*
X1328920D01*
Y332730D01*
X1336190D01*
Y345000D01*
D02*
G37*
G36*
X614296Y341566D02*
X599184D01*
Y326454D01*
X614296D01*
Y341566D01*
D02*
G37*
G36*
X572008Y401066D02*
X562356D01*
Y383794D01*
X564851D01*
Y364508D01*
X564587Y364112D01*
X564409Y363220D01*
Y341223D01*
X562929Y340610D01*
X561351Y339399D01*
X560140Y337821D01*
X559379Y335983D01*
X559119Y334010D01*
X559379Y332038D01*
X560140Y330199D01*
X561351Y328621D01*
X562929Y327410D01*
X564767Y326648D01*
X566740Y326389D01*
X568713Y326648D01*
X570551Y327410D01*
X572129Y328621D01*
X573340Y330199D01*
X574101Y332038D01*
X574361Y334010D01*
X574101Y335983D01*
X573340Y337821D01*
X572129Y339399D01*
X570551Y340610D01*
X569071Y341223D01*
Y362374D01*
X569335Y362770D01*
X569513Y363662D01*
Y383794D01*
X572008D01*
Y401066D01*
D02*
G37*
G36*
X1445460Y333084D02*
X1443308Y332656D01*
X1441483Y331437D01*
X1440264Y329612D01*
X1439836Y327460D01*
X1440264Y325308D01*
X1441483Y323483D01*
X1443308Y322264D01*
X1445460Y321836D01*
X1447612Y322264D01*
X1449437Y323483D01*
X1450656Y325308D01*
X1451084Y327460D01*
X1450656Y329612D01*
X1449437Y331437D01*
X1447612Y332656D01*
X1445460Y333084D01*
D02*
G37*
G36*
X1365460D02*
X1363308Y332656D01*
X1361483Y331437D01*
X1360264Y329612D01*
X1359836Y327460D01*
X1360264Y325308D01*
X1361483Y323483D01*
X1363308Y322264D01*
X1365460Y321836D01*
X1367613Y322264D01*
X1369437Y323483D01*
X1370656Y325308D01*
X1371084Y327460D01*
X1370656Y329612D01*
X1369437Y331437D01*
X1367613Y332656D01*
X1365460Y333084D01*
D02*
G37*
G36*
X1501000Y330190D02*
X1493730D01*
Y317920D01*
X1501000D01*
Y330190D01*
D02*
G37*
G36*
X1491190D02*
X1483920D01*
Y317920D01*
X1491190D01*
Y330190D01*
D02*
G37*
G36*
X1346000D02*
X1338730D01*
Y317920D01*
X1346000D01*
Y330190D01*
D02*
G37*
G36*
X1336190D02*
X1328920D01*
Y317920D01*
X1336190D01*
Y330190D01*
D02*
G37*
G36*
X1270810Y325810D02*
X1261920D01*
Y316920D01*
X1270810D01*
Y325810D01*
D02*
G37*
G36*
X1259380D02*
X1250490D01*
Y316920D01*
X1259380D01*
Y325810D01*
D02*
G37*
G36*
X1021460Y317034D02*
Y307370D01*
X1027291D01*
Y310100D01*
X1027049Y311938D01*
X1026339Y313650D01*
X1025211Y315121D01*
X1023740Y316249D01*
X1022028Y316959D01*
X1021460Y317034D01*
D02*
G37*
G36*
X934960D02*
Y307370D01*
X940790D01*
Y310100D01*
X940549Y311938D01*
X939839Y313650D01*
X938711Y315121D01*
X937240Y316249D01*
X935528Y316959D01*
X934960Y317034D01*
D02*
G37*
G36*
X1018920D02*
X1018352Y316959D01*
X1016640Y316249D01*
X1015169Y315121D01*
X1014041Y313650D01*
X1013331Y311938D01*
X1013089Y310100D01*
Y307370D01*
X1018920D01*
Y317034D01*
D02*
G37*
G36*
X932420D02*
X931852Y316959D01*
X930139Y316249D01*
X928669Y315121D01*
X927540Y313650D01*
X926831Y311938D01*
X926589Y310100D01*
Y307370D01*
X932420D01*
Y317034D01*
D02*
G37*
G36*
X1270810Y314380D02*
X1261920D01*
Y305490D01*
X1270810D01*
Y314380D01*
D02*
G37*
G36*
X1259380D02*
X1250490D01*
Y305490D01*
X1259380D01*
Y314380D01*
D02*
G37*
G36*
X1027291Y304830D02*
X1021460D01*
Y295166D01*
X1022028Y295241D01*
X1023740Y295951D01*
X1025211Y297079D01*
X1026339Y298550D01*
X1027049Y300262D01*
X1027291Y302100D01*
Y304830D01*
D02*
G37*
G36*
X940790D02*
X934960D01*
Y295166D01*
X935528Y295241D01*
X937240Y295951D01*
X938711Y297079D01*
X939839Y298550D01*
X940549Y300262D01*
X940790Y302100D01*
Y304830D01*
D02*
G37*
G36*
X1018920D02*
X1013089D01*
Y302100D01*
X1013331Y300262D01*
X1014041Y298550D01*
X1015169Y297079D01*
X1016640Y295951D01*
X1018352Y295241D01*
X1018920Y295166D01*
Y304830D01*
D02*
G37*
G36*
X932420D02*
X926589D01*
Y302100D01*
X926831Y300262D01*
X927540Y298550D01*
X928669Y297079D01*
X930139Y295951D01*
X931852Y295241D01*
X932420Y295166D01*
Y304830D01*
D02*
G37*
G36*
X1078178Y866220D02*
X1055114D01*
Y849156D01*
X1078178D01*
Y866220D01*
D02*
G37*
G36*
X1046178D02*
X1023114D01*
Y849156D01*
X1046178D01*
Y866220D01*
D02*
G37*
G36*
X911370Y834390D02*
X908350D01*
Y830620D01*
X911370D01*
Y834390D01*
D02*
G37*
G36*
X1081509Y787575D02*
X1074524D01*
Y781860D01*
X1081509D01*
Y787575D01*
D02*
G37*
G36*
X1025502Y787067D02*
X1018517D01*
Y781352D01*
X1025502D01*
Y787067D01*
D02*
G37*
G36*
X1081509Y779320D02*
X1074524D01*
Y773605D01*
X1081509D01*
Y779320D01*
D02*
G37*
G36*
X1025502Y778812D02*
X1018517D01*
Y773097D01*
X1025502D01*
Y778812D01*
D02*
G37*
G36*
X1058164Y747877D02*
Y744220D01*
X1061821D01*
X1061679Y744932D01*
X1060556Y746612D01*
X1058876Y747735D01*
X1058164Y747877D01*
D02*
G37*
G36*
X1055624D02*
X1054912Y747735D01*
X1053232Y746612D01*
X1052109Y744932D01*
X1051967Y744220D01*
X1055624D01*
Y747877D01*
D02*
G37*
G36*
X1061821Y741680D02*
X1058164D01*
Y738023D01*
X1058876Y738165D01*
X1060556Y739287D01*
X1061679Y740968D01*
X1061821Y741680D01*
D02*
G37*
G36*
X1055624D02*
X1051967D01*
X1052109Y740968D01*
X1053232Y739287D01*
X1054912Y738165D01*
X1055624Y738023D01*
Y741680D01*
D02*
G37*
G36*
X1151001Y661035D02*
X1144016D01*
Y655320D01*
X1151001D01*
Y661035D01*
D02*
G37*
G36*
Y637540D02*
X1144016D01*
Y631825D01*
X1151001D01*
Y637540D01*
D02*
G37*
G36*
Y629285D02*
X1144016D01*
Y623570D01*
X1151001D01*
Y629285D01*
D02*
G37*
G36*
Y621030D02*
X1144016D01*
Y615315D01*
X1151001D01*
Y621030D01*
D02*
G37*
G36*
X1239774Y805027D02*
Y801370D01*
X1243431D01*
X1243289Y802082D01*
X1242167Y803763D01*
X1240486Y804885D01*
X1239774Y805027D01*
D02*
G37*
G36*
X1237234D02*
X1236522Y804885D01*
X1234842Y803763D01*
X1233719Y802082D01*
X1233577Y801370D01*
X1237234D01*
Y805027D01*
D02*
G37*
G36*
X1243431Y798830D02*
X1239774D01*
Y795173D01*
X1240486Y795315D01*
X1242167Y796438D01*
X1243289Y798118D01*
X1243431Y798830D01*
D02*
G37*
G36*
X1237234D02*
X1233577D01*
X1233719Y798118D01*
X1234842Y796438D01*
X1236522Y795315D01*
X1237234Y795173D01*
Y798830D01*
D02*
G37*
G36*
X1255170Y800585D02*
X1253746Y800302D01*
X1252501Y799469D01*
X1251668Y798224D01*
X1251376Y796755D01*
Y791750D01*
X1255170D01*
Y800585D01*
D02*
G37*
G36*
Y789210D02*
X1251376D01*
Y784205D01*
X1251668Y782736D01*
X1252501Y781491D01*
X1253746Y780658D01*
X1255170Y780375D01*
Y789210D01*
D02*
G37*
G36*
X1264210Y800585D02*
Y790480D01*
Y780375D01*
X1265634Y780658D01*
X1266190Y781030D01*
X1266746Y780658D01*
X1268170Y780375D01*
Y790480D01*
Y800585D01*
X1266746Y800302D01*
X1266190Y799930D01*
X1265634Y800302D01*
X1264210Y800585D01*
D02*
G37*
G36*
X1257710D02*
Y790480D01*
Y780375D01*
X1259134Y780658D01*
X1259690Y781030D01*
X1260246Y780658D01*
X1261670Y780375D01*
Y790480D01*
Y800585D01*
X1260246Y800302D01*
X1259690Y799930D01*
X1259134Y800302D01*
X1257710Y800585D01*
D02*
G37*
G36*
X1286764Y783437D02*
Y779780D01*
X1290421D01*
X1290279Y780492D01*
X1289156Y782172D01*
X1287476Y783295D01*
X1286764Y783437D01*
D02*
G37*
G36*
X1290421Y777240D02*
X1286764D01*
Y773583D01*
X1287476Y773725D01*
X1289156Y774847D01*
X1290279Y776528D01*
X1290421Y777240D01*
D02*
G37*
G36*
X1313338Y777476D02*
X1304568D01*
Y772206D01*
X1313338D01*
Y777476D01*
D02*
G37*
G36*
X1302028D02*
X1293258D01*
Y772206D01*
X1302028D01*
Y777476D01*
D02*
G37*
G36*
X1123188Y708507D02*
Y704850D01*
X1126845D01*
X1126703Y705562D01*
X1125581Y707243D01*
X1123900Y708365D01*
X1123188Y708507D01*
D02*
G37*
G36*
X1126845Y702310D02*
X1123188D01*
Y698653D01*
X1123900Y698795D01*
X1125581Y699918D01*
X1126703Y701598D01*
X1126845Y702310D01*
D02*
G37*
G36*
X1086720Y724964D02*
X1083950D01*
Y721069D01*
X1086720D01*
Y724964D01*
D02*
G37*
G36*
X995934Y712470D02*
X988949D01*
Y706550D01*
X995934D01*
Y712470D01*
D02*
G37*
G36*
X1069594Y683107D02*
Y679450D01*
X1073251D01*
X1073109Y680162D01*
X1071986Y681842D01*
X1070306Y682965D01*
X1069594Y683107D01*
D02*
G37*
G36*
X1067054D02*
X1066342Y682965D01*
X1064661Y681842D01*
X1063539Y680162D01*
X1063397Y679450D01*
X1067054D01*
Y683107D01*
D02*
G37*
G36*
X1073251Y676910D02*
X1069594D01*
Y673253D01*
X1070306Y673395D01*
X1071986Y674518D01*
X1073109Y676198D01*
X1073251Y676910D01*
D02*
G37*
G36*
X1067054D02*
X1063397D01*
X1063539Y676198D01*
X1064661Y674518D01*
X1066342Y673395D01*
X1067054Y673253D01*
Y676910D01*
D02*
G37*
G36*
X1029817Y627380D02*
X1026160D01*
Y623723D01*
X1026872Y623865D01*
X1028552Y624987D01*
X1029675Y626668D01*
X1029817Y627380D01*
D02*
G37*
G36*
X1106170Y611987D02*
Y608330D01*
X1109827D01*
X1109685Y609042D01*
X1108562Y610723D01*
X1106882Y611845D01*
X1106170Y611987D01*
D02*
G37*
G36*
X1103630D02*
X1102918Y611845D01*
X1101237Y610723D01*
X1100115Y609042D01*
X1099973Y608330D01*
X1103630D01*
Y611987D01*
D02*
G37*
G36*
X1336190Y436000D02*
X1328920D01*
Y427730D01*
X1336190D01*
Y436000D01*
D02*
G37*
G36*
X1406144Y520547D02*
Y516890D01*
X1409801D01*
X1409659Y517602D01*
X1408537Y519282D01*
X1406856Y520405D01*
X1406144Y520547D01*
D02*
G37*
G36*
X1403604D02*
X1402892Y520405D01*
X1401212Y519282D01*
X1400089Y517602D01*
X1399947Y516890D01*
X1403604D01*
Y520547D01*
D02*
G37*
G36*
X1409801Y514350D02*
X1406144D01*
Y510693D01*
X1406856Y510835D01*
X1408537Y511958D01*
X1409659Y513638D01*
X1409801Y514350D01*
D02*
G37*
G36*
X1403604D02*
X1399947D01*
X1400089Y513638D01*
X1401212Y511958D01*
X1402892Y510835D01*
X1403604Y510693D01*
Y514350D01*
D02*
G37*
G36*
X1383820Y493890D02*
X1379550D01*
Y485869D01*
X1383820D01*
Y493890D01*
D02*
G37*
G36*
X1084199Y515721D02*
X1083487Y515579D01*
X1081806Y514456D01*
X1080684Y512776D01*
X1080542Y512064D01*
X1084199D01*
Y515721D01*
D02*
G37*
G36*
Y509524D02*
X1080542D01*
X1080684Y508812D01*
X1081806Y507132D01*
X1083487Y506009D01*
X1084199Y505867D01*
Y509524D01*
D02*
G37*
G36*
X1389481Y461010D02*
X1385824D01*
Y457353D01*
X1386536Y457495D01*
X1388217Y458618D01*
X1389339Y460298D01*
X1389481Y461010D01*
D02*
G37*
G36*
X1383284D02*
X1379627D01*
X1379769Y460298D01*
X1380892Y458618D01*
X1382572Y457495D01*
X1383284Y457353D01*
Y461010D01*
D02*
G37*
%LPD*%
D14*
X1436958Y912652D02*
X1468394D01*
X1468872Y913130D01*
X1045949Y775637D02*
X1047680Y773906D01*
X1042774Y780082D02*
X1045949Y776907D01*
Y775637D02*
Y776907D01*
X1047680Y757484D02*
Y773906D01*
X1041504Y780082D02*
X1042774D01*
X1034646Y786940D02*
X1041504Y780082D01*
X976630Y607060D02*
X994570Y589120D01*
X948400Y603250D02*
X957430D01*
Y602790D02*
Y603885D01*
X960605Y607060D01*
X976630D01*
X941682Y597456D02*
X942682D01*
X946912Y601686D02*
Y601762D01*
X948400Y603250D01*
X942682Y597456D02*
X946912Y601686D01*
X972769Y615950D02*
X994599Y594120D01*
X949080Y615950D02*
X972769D01*
X942682Y622348D02*
X949080Y615950D01*
X941682Y622348D02*
X942682D01*
X994599Y594120D02*
X1017270D01*
X994570Y589120D02*
X1017270D01*
X1000760Y579120D02*
X1017270D01*
X964197Y542557D02*
X1000760Y579120D01*
X957430Y572056D02*
Y573326D01*
X968224Y584120D02*
X1017270D01*
X957430Y573326D02*
X968224Y584120D01*
X941682Y622348D02*
X945540Y618490D01*
X1011936Y604483D02*
X1012279Y604140D01*
X1017250D01*
X1017270Y604120D01*
X1011936Y604483D02*
Y618744D01*
X957725Y542557D02*
X964197D01*
X954255Y546027D02*
X957725Y542557D01*
X943487Y550999D02*
Y552010D01*
X947711Y546774D02*
X950412D01*
X951159Y546027D02*
X954255D01*
X943487Y550999D02*
X947711Y546774D01*
X950412D02*
X951159Y546027D01*
X641350Y792734D02*
Y1072388D01*
Y792734D02*
X897890Y536194D01*
X584708Y1129030D02*
X641350Y1072388D01*
X1069020Y510728D02*
X1079350Y500398D01*
Y486712D02*
Y500398D01*
X1069020Y510728D02*
Y542370D01*
X831850Y807720D02*
Y1119280D01*
X916760Y1204190D01*
X844296Y807974D02*
Y1113536D01*
X931164Y1200404D01*
X831850Y807720D02*
X1005840Y633730D01*
X552317Y1022425D02*
X556395Y1018346D01*
X557082D01*
X548640Y1024993D02*
Y1101598D01*
X551208Y1022425D02*
X552317D01*
X548640Y1024993D02*
X551208Y1022425D01*
X533460Y1103630D02*
X546608D01*
X548640Y1101598D01*
X1121410Y671830D02*
Y687070D01*
X1112520Y662940D02*
X1121410Y671830D01*
X1103630Y662940D02*
X1112520D01*
X1092200Y674370D02*
X1103630Y662940D01*
X1092200Y674370D02*
Y737871D01*
X1090712Y739359D02*
X1092200Y737871D01*
X1083305Y739359D02*
X1090712D01*
X1098550Y690880D02*
Y744220D01*
Y690880D02*
X1112520Y676910D01*
X1098550Y744220D02*
X1113028D01*
X1098368D02*
X1098550D01*
X1093230Y749359D02*
X1098368Y744220D01*
X1083305Y749359D02*
X1093230D01*
X1113028Y695452D02*
X1121410Y687070D01*
X1113028Y695452D02*
Y728980D01*
X1407160Y589280D02*
X1418591Y577850D01*
X1329755Y589280D02*
X1407160D01*
X1418591Y543100D02*
Y577850D01*
X1327124Y586649D02*
X1329755Y589280D01*
X1346200Y597154D02*
Y812800D01*
X1203960Y321540D02*
X1209882Y315618D01*
X1203960Y321540D02*
Y577850D01*
X1212850Y338050D02*
X1235250Y315650D01*
X1212850Y338050D02*
Y619760D01*
X1203960Y628650D02*
X1212850Y619760D01*
X1262455Y565150D02*
X1325191D01*
X1226566Y529261D02*
X1262455Y565150D01*
X1225296Y719418D02*
X1226566Y718148D01*
Y528574D02*
Y529261D01*
Y632460D02*
Y718148D01*
X1225296Y804418D02*
X1232624Y811746D01*
X1225296Y719418D02*
Y804418D01*
X1060730Y490092D02*
X1064110Y486712D01*
X1059020Y508160D02*
Y542370D01*
Y508160D02*
X1060730Y506450D01*
Y490092D02*
Y506450D01*
X1187450Y725170D02*
Y981077D01*
X1190206Y983833D01*
X535432Y1078230D02*
Y1090930D01*
X1202885Y983833D02*
X1209652Y990600D01*
X1210922D01*
X1210235Y991287D02*
X1210922Y990600D01*
X1203960Y997562D02*
X1210235Y991287D01*
X1190206Y983833D02*
X1202885D01*
X962302Y368404D02*
X964440Y366266D01*
X962302Y386740D02*
X966597Y391034D01*
X962302Y368404D02*
Y386740D01*
X964440Y347472D02*
Y356140D01*
X969440Y365506D02*
Y376174D01*
X964440Y356140D02*
Y366266D01*
X966597Y391034D02*
Y414096D01*
X993226Y348179D02*
Y349441D01*
X993188Y348141D02*
X993226Y348179D01*
X993188Y346220D02*
Y348141D01*
X990281Y343313D02*
X993188Y346220D01*
X994440Y350655D02*
Y356140D01*
X993226Y349441D02*
X994440Y350655D01*
X968599Y343313D02*
X990281D01*
X1354582Y510540D02*
X1358900Y506222D01*
X1335890Y503936D02*
X1342494Y510540D01*
X1354582D01*
X1335890Y498142D02*
Y503936D01*
X1358900Y472440D02*
Y506222D01*
Y472440D02*
X1363980Y467360D01*
X1408430D01*
X1412090Y471020D01*
Y484599D01*
X1400578Y496570D02*
X1430020D01*
X1399090Y484599D02*
Y495082D01*
X1400578Y496570D01*
X1430020D02*
X1433830Y492760D01*
Y462362D02*
Y492760D01*
X1415460Y443992D02*
X1433830Y462362D01*
X1426090Y516890D02*
X1443990Y498990D01*
X1426460Y446020D02*
X1443990Y463550D01*
Y498990D01*
X1426460Y432460D02*
Y446020D01*
X641200Y595200D02*
Y610918D01*
X644580Y591820D02*
X657860D01*
X641200Y595200D02*
X644580Y591820D01*
X626906Y614215D02*
X637903D01*
X641200Y610918D01*
X585320Y614130D02*
X626820D01*
X638015Y567230D02*
X641063Y564182D01*
X582780Y567230D02*
X638015D01*
X1005840Y551180D02*
X1006527D01*
X1008588Y549120D01*
X1017270D01*
X1024020Y539410D02*
Y542370D01*
X1011406Y531346D02*
X1015956D01*
X1024020Y539410D01*
X1010920Y530860D02*
X1011406Y531346D01*
X1029020Y524684D02*
X1029194Y524510D01*
X1034020Y506763D02*
Y542370D01*
X1029020Y524684D02*
Y542370D01*
X1044000Y515680D02*
Y542350D01*
X1043940Y515620D02*
X1044000Y515680D01*
Y542350D02*
X1044020Y542370D01*
X1388364Y523748D02*
X1399090Y534474D01*
X1310894Y520192D02*
X1315212Y524510D01*
X1368369D02*
X1369131Y523748D01*
X1388364D01*
X1039020Y533400D02*
Y542370D01*
X1354940Y578660D02*
X1369926D01*
X1339700D02*
X1354940D01*
X1369926D02*
X1370180Y578406D01*
X1121918Y492887D02*
Y568166D01*
X1102565Y587518D02*
X1121918Y568166D01*
X1114298Y599440D02*
X1121918Y591820D01*
Y578104D02*
Y591820D01*
X1232624Y811746D02*
X1303298D01*
X641200Y564182D02*
X646176D01*
X667052Y543306D01*
X1005840Y633730D02*
X1049082D01*
X844296Y807974D02*
X1009650Y642620D01*
X1052830D01*
X1049082Y633730D02*
X1059020Y623792D01*
X1096504Y599440D02*
X1114298D01*
X1091184Y594120D02*
X1096504Y599440D01*
X1085770Y594120D02*
X1091184D01*
X852424Y854710D02*
Y866140D01*
Y850900D02*
Y854710D01*
X1064110Y472488D02*
X1067490Y469108D01*
X1071880Y463550D02*
Y463550D01*
X1067490Y467940D02*
X1071880Y463550D01*
X1072190Y463550D02*
X1079350Y470710D01*
Y471980D01*
X1067490Y467940D02*
Y469108D01*
X1071880Y463550D02*
X1072190D01*
X573532Y429260D02*
X593090D01*
X642620Y379730D01*
X984440Y369760D02*
X993975Y379295D01*
X998220Y385336D02*
Y385826D01*
X993975Y381091D02*
X998220Y385336D01*
X984440Y356140D02*
Y369760D01*
X993975Y379295D02*
Y381091D01*
X984440Y346869D02*
Y356140D01*
X533460Y1129030D02*
X584708D01*
X931164Y1200404D02*
Y1219786D01*
X1064020Y610870D02*
Y631430D01*
X1052830Y642620D02*
X1064020Y631430D01*
X885952Y820420D02*
X906526D01*
X885952D02*
X894080Y828548D01*
X1327124Y581126D02*
Y586649D01*
X1324610Y578612D02*
X1327124Y581126D01*
X1024890Y628650D02*
X1029020Y624520D01*
Y610870D02*
Y624520D01*
X1404620Y559054D02*
X1405590Y558084D01*
Y543100D02*
Y558084D01*
X1315212Y524510D02*
X1368369D01*
X966597Y414096D02*
X967740Y415239D01*
X881866Y843766D02*
Y845940D01*
X887580Y850910D02*
Y851660D01*
X885304Y848634D02*
X887580Y850910D01*
X884560Y848634D02*
X885304D01*
X881866Y845940D02*
X884560Y848634D01*
X881380Y843280D02*
X881866Y843766D01*
X888060Y847250D02*
Y849270D01*
Y840535D02*
X889548Y842023D01*
X888060Y836140D02*
Y840535D01*
X889548Y842023D02*
X910779D01*
X887580Y835660D02*
X888060Y836140D01*
X910779Y842023D02*
X910792Y842010D01*
X919480D01*
X889731Y845579D02*
X898878D01*
X900490Y847191D01*
Y851571D02*
X900580Y851660D01*
X900490Y847191D02*
Y851571D01*
X888060Y847250D02*
X889731Y845579D01*
X894080Y828548D02*
Y835660D01*
X1404620Y473710D02*
X1405105Y474195D01*
Y484114D01*
X1405590Y484599D01*
X1194054Y1002613D02*
X1196190Y1000477D01*
Y990600D02*
Y1000477D01*
X1194054Y1002613D02*
Y1003300D01*
X1017250Y569100D02*
X1017270Y569119D01*
X1009790Y569100D02*
X1017250D01*
X1009650Y568960D02*
X1009790Y569100D01*
X1007170Y574100D02*
X1017250D01*
X986282Y549402D02*
X986327Y549447D01*
Y553257D01*
X1007170Y574100D01*
X1017250D02*
X1017270Y574120D01*
X1006588Y564120D02*
X1017270D01*
X994918Y552450D02*
X1006588Y564120D01*
X994918Y523240D02*
Y552450D01*
X1418591Y465853D02*
Y484599D01*
X1393460Y440723D02*
X1418591Y465853D01*
X1042556Y615294D02*
X1044020Y613830D01*
X1036993Y617496D02*
X1040395D01*
X1042556Y615294D02*
Y615335D01*
X1040395Y617496D02*
X1042556Y615335D01*
X1036508Y617982D02*
X1036993Y617496D01*
X1044020Y610870D02*
Y613830D01*
X957430Y565912D02*
Y572056D01*
X936903Y565912D02*
X957430D01*
X1027938Y490220D02*
X1033630D01*
X1052680Y757484D02*
Y780590D01*
X1084656Y759460D02*
X1096264D01*
X1011428Y734359D02*
X1037055D01*
X1393460Y432460D02*
Y440723D01*
X1085770Y584120D02*
X1091866D01*
X1095264Y587518D01*
X1102565D01*
X1038010Y485950D02*
X1048870D01*
X1033630Y490330D02*
X1038010Y485950D01*
X1034646Y786940D02*
Y802688D01*
X1059020Y610870D02*
Y623792D01*
X916760Y1234190D02*
X931164Y1219786D01*
X1366370Y498142D02*
Y519684D01*
X1315720Y483918D02*
X1335890D01*
X1085770Y574120D02*
X1093470D01*
X567182Y363662D02*
Y392430D01*
X566740Y363220D02*
X567182Y363662D01*
X566740Y334010D02*
Y363220D01*
X1066646Y788714D02*
Y802688D01*
X1058522Y780590D02*
X1066646Y788714D01*
X1085770Y589120D02*
X1091184D01*
X1093138Y591074D01*
X1111758D01*
X1399090Y534474D02*
Y543100D01*
X1310894Y481584D02*
Y520192D01*
Y481584D02*
X1316736Y475742D01*
X1343406D01*
Y495808D01*
X1345740Y498142D01*
X1351130D01*
X1426090Y516890D02*
Y543100D01*
X1415460Y432460D02*
Y443992D01*
X1054020Y610870D02*
Y618664D01*
X1096264Y759460D02*
X1113028D01*
X1459080Y812800D02*
Y828850D01*
X1447026Y800746D02*
X1459080Y812800D01*
X1425298Y800746D02*
X1447026D01*
X533460Y1078230D02*
X535432D01*
X1049020Y610870D02*
Y625856D01*
X1047750Y627126D02*
X1049020Y625856D01*
X1052680Y780590D02*
X1058522D01*
X1351130Y466862D02*
Y483918D01*
Y466862D02*
X1371460Y446532D01*
Y432460D02*
Y446532D01*
X994918Y523240D02*
X1027938Y490220D01*
X1033630D02*
Y490330D01*
X1079020Y610870D02*
Y615696D01*
X1091720Y628396D02*
X1104427D01*
X1079020Y615696D02*
X1091720Y628396D01*
X1085770Y579120D02*
X1098042D01*
X1098296Y579374D01*
X1336254Y822746D02*
X1346200Y812800D01*
X1303298Y822746D02*
X1336254D01*
X927966Y574850D02*
X936903Y565912D01*
X924410Y574850D02*
X927966D01*
X1054020Y501904D02*
X1054100Y501824D01*
X1054020Y501904D02*
Y542370D01*
X964440Y347472D02*
X968599Y343313D01*
X976313Y346869D02*
X984440D01*
X974440Y348742D02*
X976313Y346869D01*
X974440Y348742D02*
Y356140D01*
X1203960Y997562D02*
Y1004570D01*
X866648Y835660D02*
X887580D01*
X866648Y820420D02*
X885952D01*
X1011428Y713740D02*
X1032092D01*
X1037680Y719328D01*
Y726234D01*
X1054608Y708660D02*
Y715320D01*
X1062680Y723392D01*
Y726234D01*
X1280160Y844746D02*
X1303298D01*
X1275940Y840526D02*
X1280160Y844746D01*
X1275940Y832580D02*
Y840526D01*
X1011428Y728980D02*
Y734359D01*
X1082680Y757484D02*
X1084656Y759460D01*
X1048512Y693420D02*
X1054354D01*
X1044448Y697484D02*
X1048512Y693420D01*
X1044448Y697484D02*
Y712216D01*
X1052680Y720448D01*
Y726234D01*
X1291962Y833746D02*
X1303298D01*
X1277112Y818896D02*
X1291962Y833746D01*
X1271472Y818896D02*
X1277112D01*
X1269440Y820928D02*
X1271472Y818896D01*
X1269440Y820928D02*
Y832580D01*
X1392590Y477520D02*
Y484599D01*
X1390558Y475488D02*
X1392590Y477520D01*
X1368402Y475488D02*
X1390558D01*
X1366370Y477520D02*
X1368402Y475488D01*
X1366370Y477520D02*
Y483918D01*
X979440Y356140D02*
Y363458D01*
X977392Y365506D02*
X979440Y363458D01*
X969440Y365506D02*
X977392D01*
X969440Y356140D02*
Y365506D01*
X1460858Y850646D02*
Y856570D01*
X1459080Y848868D02*
X1460858Y850646D01*
X1459080Y843074D02*
Y848868D01*
X1432052Y907746D02*
X1436958Y912652D01*
X1425298Y907746D02*
X1432052D01*
X533460Y1052830D02*
Y1078230D01*
X559308Y421894D02*
Y429260D01*
X557530Y420116D02*
X559308Y421894D01*
X557530Y412750D02*
Y420116D01*
D18*
X957430Y588058D02*
D03*
Y602790D02*
D03*
X1048870Y471218D02*
D03*
Y485950D02*
D03*
X1079350Y471980D02*
D03*
Y486712D02*
D03*
X957430Y572056D02*
D03*
Y557324D02*
D03*
Y541830D02*
D03*
Y527098D02*
D03*
Y617014D02*
D03*
Y631746D02*
D03*
X641405Y595170D02*
D03*
Y580438D02*
D03*
X1370180Y578406D02*
D03*
Y563674D02*
D03*
X1094740Y487426D02*
D03*
Y472694D02*
D03*
X1354940Y563928D02*
D03*
Y578660D02*
D03*
X1339700Y563928D02*
D03*
Y578660D02*
D03*
X1245720Y1145334D02*
D03*
Y1160066D02*
D03*
X1259690Y1145334D02*
D03*
Y1160066D02*
D03*
D19*
X533460Y1205230D02*
D03*
Y1179830D02*
D03*
Y1154430D02*
D03*
Y1129030D02*
D03*
Y1103630D02*
D03*
Y1078230D02*
D03*
Y1052830D02*
D03*
X772160Y1205230D02*
D03*
Y1179830D02*
D03*
Y1154430D02*
D03*
Y1129030D02*
D03*
Y1103630D02*
D03*
Y1078230D02*
D03*
Y1052830D02*
D03*
D20*
X585110Y849530D02*
D03*
X720510D02*
D03*
X610510D02*
D03*
X695110D02*
D03*
D21*
X971171Y443230D02*
D03*
X956439D02*
D03*
X997204Y744220D02*
D03*
X1011936D02*
D03*
X997204Y759254D02*
D03*
X1011936D02*
D03*
X1196190Y990600D02*
D03*
X1210922D02*
D03*
X852424Y854710D02*
D03*
X867156D02*
D03*
X1026772Y780082D02*
D03*
X1041504D02*
D03*
X1054354Y693420D02*
D03*
X1069086D02*
D03*
X852424Y869950D02*
D03*
X867156D02*
D03*
X1142746Y654050D02*
D03*
X1128014D02*
D03*
Y622300D02*
D03*
X1142746D02*
D03*
X1128014Y638810D02*
D03*
X1142746D02*
D03*
X1210922Y976424D02*
D03*
X1196190D02*
D03*
X971171Y458470D02*
D03*
X956439D02*
D03*
X1343660Y1135380D02*
D03*
X1358392D02*
D03*
X813102Y1207920D02*
D03*
X798370D02*
D03*
X813356Y1192680D02*
D03*
X798624D02*
D03*
X813102Y1177440D02*
D03*
X798370D02*
D03*
X1196190Y962454D02*
D03*
X1210922D02*
D03*
Y948484D02*
D03*
X1196190D02*
D03*
X1073254Y780590D02*
D03*
X1058522D02*
D03*
X956439Y427990D02*
D03*
X971171D02*
D03*
D22*
X576834Y412750D02*
D03*
X557530D02*
D03*
X567182Y392430D02*
D03*
D23*
X1064110Y486712D02*
D03*
Y472488D02*
D03*
X641200Y625142D02*
D03*
Y610918D02*
D03*
Y549958D02*
D03*
Y564182D02*
D03*
X1366370Y483918D02*
D03*
Y498142D02*
D03*
X1335890D02*
D03*
Y483918D02*
D03*
X1324610Y578612D02*
D03*
Y564388D02*
D03*
X1351130Y498142D02*
D03*
Y483918D02*
D03*
D24*
X1017270Y604120D02*
D03*
Y599120D02*
D03*
Y594120D02*
D03*
Y589120D02*
D03*
Y584120D02*
D03*
Y579120D02*
D03*
Y574120D02*
D03*
Y569119D02*
D03*
Y564120D02*
D03*
Y559119D02*
D03*
Y554120D02*
D03*
Y549120D02*
D03*
X1085770D02*
D03*
Y554120D02*
D03*
Y559119D02*
D03*
Y564120D02*
D03*
Y569119D02*
D03*
Y574120D02*
D03*
Y579120D02*
D03*
Y584120D02*
D03*
Y589120D02*
D03*
Y594120D02*
D03*
Y599120D02*
D03*
Y604120D02*
D03*
D25*
X1024020Y542370D02*
D03*
X1029020D02*
D03*
X1034020D02*
D03*
X1039020D02*
D03*
X1044020D02*
D03*
X1049020D02*
D03*
X1054020D02*
D03*
X1059020D02*
D03*
X1064020D02*
D03*
X1069020D02*
D03*
X1074020D02*
D03*
X1079020D02*
D03*
Y610870D02*
D03*
X1074020D02*
D03*
X1069020D02*
D03*
X1064020D02*
D03*
X1059020D02*
D03*
X1054020D02*
D03*
X1049020D02*
D03*
X1044020D02*
D03*
X1039020D02*
D03*
X1034020D02*
D03*
X1029020D02*
D03*
X1024020D02*
D03*
D26*
X1051520Y576620D02*
D03*
D27*
X1011428Y728980D02*
D03*
X997204D02*
D03*
X1011428Y713740D02*
D03*
X997204D02*
D03*
X956818Y412750D02*
D03*
X971042D02*
D03*
X852424Y820420D02*
D03*
X866648D02*
D03*
X1068832Y708660D02*
D03*
X1054608D02*
D03*
X1127252Y759460D02*
D03*
X1113028D02*
D03*
X852424Y835660D02*
D03*
X866648D02*
D03*
X573532Y429260D02*
D03*
X559308D02*
D03*
X1113028Y728980D02*
D03*
X1127252D02*
D03*
X1113028Y744220D02*
D03*
X1127252D02*
D03*
D28*
X624280Y545730D02*
D03*
Y567230D02*
D03*
X582780Y545730D02*
D03*
Y567230D02*
D03*
X626820Y592630D02*
D03*
Y614130D02*
D03*
X585320Y592630D02*
D03*
Y614130D02*
D03*
D29*
X1033630Y490330D02*
D03*
Y466330D02*
D03*
D30*
X1196594Y1024730D02*
D03*
X1210818D02*
D03*
D31*
X1203960Y1004570D02*
D03*
D32*
X1008940Y356140D02*
D03*
X1000940D02*
D03*
X952940D02*
D03*
X944940D02*
D03*
D33*
X994440D02*
D03*
X989440D02*
D03*
X984440D02*
D03*
X979440D02*
D03*
X959440D02*
D03*
X964440D02*
D03*
X969440D02*
D03*
X974440D02*
D03*
D34*
X1483460Y427460D02*
D03*
D35*
X1393460Y432460D02*
D03*
X1404460D02*
D03*
X1415460D02*
D03*
X1426460D02*
D03*
X1437460D02*
D03*
X1382460D02*
D03*
X1371460D02*
D03*
X1360460D02*
D03*
X1349460D02*
D03*
D36*
X1337460Y426460D02*
D03*
D37*
Y331460D02*
D03*
X1492460D02*
D03*
D38*
X1366560Y1115060D02*
D03*
X1343660D02*
D03*
X1320760D02*
D03*
X1454190Y1113790D02*
D03*
X1431290D02*
D03*
X1408390D02*
D03*
X1282700D02*
D03*
X1259800D02*
D03*
X1236900D02*
D03*
D39*
X1343660Y1048160D02*
D03*
X1431290Y1046890D02*
D03*
X1259800D02*
D03*
D40*
X1042680Y757484D02*
D03*
X1047680D02*
D03*
X1052680D02*
D03*
X1057680D02*
D03*
X1062680D02*
D03*
X1067680D02*
D03*
X1072680D02*
D03*
X1077680D02*
D03*
X1082680D02*
D03*
Y726234D02*
D03*
X1077680D02*
D03*
X1072680D02*
D03*
X1067680D02*
D03*
X1062680D02*
D03*
X1057680D02*
D03*
X1052680D02*
D03*
X1047680D02*
D03*
X1042680D02*
D03*
X1037680D02*
D03*
Y757484D02*
D03*
D41*
X1083305Y749359D02*
D03*
Y744359D02*
D03*
Y739359D02*
D03*
Y734359D02*
D03*
X1037055D02*
D03*
Y739359D02*
D03*
Y744359D02*
D03*
Y749359D02*
D03*
D42*
X887580Y851660D02*
D03*
Y835660D02*
D03*
X907080D02*
D03*
Y851660D02*
D03*
X894080D02*
D03*
Y835660D02*
D03*
X900580Y851660D02*
D03*
Y835660D02*
D03*
D45*
X943319Y574896D02*
D03*
X943482Y552005D02*
D03*
X924410Y574850D02*
D03*
Y551850D02*
D03*
D46*
X941682Y597456D02*
D03*
Y622348D02*
D03*
D47*
X947926Y393954D02*
D03*
X979426D02*
D03*
D48*
X1066646Y857688D02*
D03*
Y802688D02*
D03*
X1034646D02*
D03*
Y857688D02*
D03*
D49*
X1460858Y874570D02*
D03*
Y856570D02*
D03*
D50*
X1484122Y898380D02*
D03*
Y927880D02*
D03*
D51*
X1468872Y913130D02*
D03*
D52*
X1459080Y828850D02*
D03*
Y843074D02*
D03*
D53*
X1256440Y832580D02*
D03*
X1262940D02*
D03*
X1269440D02*
D03*
X1275940D02*
D03*
Y790480D02*
D03*
X1269440D02*
D03*
X1262940D02*
D03*
X1256440D02*
D03*
D54*
X1303298Y918746D02*
D03*
Y907746D02*
D03*
Y896746D02*
D03*
Y885746D02*
D03*
Y874746D02*
D03*
Y844746D02*
D03*
Y833746D02*
D03*
Y822746D02*
D03*
Y811746D02*
D03*
Y800746D02*
D03*
Y789746D02*
D03*
Y778746D02*
D03*
X1425298D02*
D03*
Y789746D02*
D03*
Y800746D02*
D03*
Y811746D02*
D03*
Y822746D02*
D03*
Y833746D02*
D03*
Y844746D02*
D03*
Y874746D02*
D03*
Y885746D02*
D03*
Y896746D02*
D03*
Y907746D02*
D03*
Y918746D02*
D03*
D102*
X1418591Y543100D02*
D03*
X1412090D02*
D03*
X1392590D02*
D03*
X1399090D02*
D03*
X1405590D02*
D03*
X1418591Y484599D02*
D03*
X1412090D02*
D03*
X1392590D02*
D03*
X1399090D02*
D03*
X1405590D02*
D03*
D103*
X1426090Y543100D02*
D03*
Y484599D02*
D03*
X1385090Y543100D02*
D03*
Y484599D02*
D03*
D104*
X1040216Y744764D02*
X1042680Y747228D01*
Y756764D01*
X695110Y849530D02*
X720510D01*
X1085469Y510450D02*
X1087374Y508545D01*
Y480501D02*
Y508545D01*
Y480501D02*
X1089085Y478790D01*
X1089914D01*
X1094740Y473964D01*
X1085469Y510450D02*
Y510794D01*
X1094740Y472694D02*
Y473964D01*
X1196190Y937454D02*
Y948484D01*
X1195070Y935990D02*
Y936334D01*
X1196190Y948484D02*
Y962454D01*
X1195070Y936334D02*
X1196190Y937454D01*
X1372870Y528574D02*
X1384446D01*
X1391011Y535140D01*
X1037055Y739359D02*
Y744359D01*
X1012075D02*
X1037055D01*
Y744544D01*
X1079350Y471980D02*
X1080064Y472694D01*
X1094740D01*
X1373559Y574596D02*
X1392590Y555565D01*
Y543100D02*
Y555565D01*
X1372720Y574596D02*
X1373559D01*
X1370180Y577136D02*
X1372720Y574596D01*
X1370180Y577136D02*
Y578406D01*
X1090257Y599120D02*
X1097954Y606817D01*
X1104657D01*
X1104900Y607060D01*
X1085770Y599120D02*
X1090257D01*
X1037275Y744764D02*
X1040216D01*
X1037055Y744544D02*
X1037275Y744764D01*
X1391011Y535140D02*
Y536771D01*
X1392590Y538350D01*
Y543100D01*
X1425183Y473953D02*
Y483692D01*
X1424940Y473710D02*
X1425183Y473953D01*
Y483692D02*
X1426090Y484599D01*
X1010035Y351060D02*
X1017793D01*
X1008940Y352155D02*
X1010035Y351060D01*
X1020190Y347800D02*
Y348662D01*
X1017793Y351060D02*
X1020190Y348662D01*
X1008940Y352155D02*
Y356140D01*
X943845Y351060D02*
X944940Y352155D01*
X936087Y351060D02*
X943845D01*
X944940Y352155D02*
Y356140D01*
X933690Y348662D02*
X936087Y351060D01*
X933690Y347800D02*
Y348662D01*
X956439Y443230D02*
Y458470D01*
Y427990D02*
Y443230D01*
X1196190Y962454D02*
Y976424D01*
X1083305Y734174D02*
Y734359D01*
X1082680Y726234D02*
Y733549D01*
X1083305Y734174D01*
X997204Y744220D02*
Y759254D01*
Y728980D02*
Y744220D01*
Y713740D02*
Y728980D01*
D105*
X1302205Y790113D02*
X1303298Y791206D01*
X1210922Y759460D02*
Y948484D01*
X1339290Y563674D02*
X1370180D01*
X1126845Y455778D02*
X1184482Y398141D01*
X1125169Y457454D02*
X1126845Y455778D01*
X852424Y833628D02*
X855599Y836803D01*
X1010462Y661212D02*
X1017624Y654050D01*
X905052Y766622D02*
X1010462Y661212D01*
X567690Y558820D02*
X660039Y466471D01*
X813102Y1207920D02*
X816277D01*
X806951Y1167389D02*
X809927Y1170365D01*
X810260Y1102360D02*
Y1164080D01*
X806951Y1167389D02*
X810260Y1164080D01*
X648711Y1167389D02*
X806951D01*
X636270Y1179830D02*
X648711Y1167389D01*
X1343660Y1113160D02*
Y1135380D01*
X1310586Y1104954D02*
X1326474D01*
X1286510Y1129030D02*
X1310586Y1104954D01*
X1341550Y1111050D02*
X1343660Y1113160D01*
X1332570Y1111050D02*
X1341550D01*
X1326474Y1104954D02*
X1332570Y1111050D01*
X1210310Y759460D02*
X1220470Y749300D01*
Y522478D02*
Y749300D01*
Y443578D02*
X1252568Y411480D01*
X1220470Y443578D02*
Y522478D01*
X1298094D01*
X1196340Y303530D02*
Y570230D01*
X1182370Y289560D02*
X1196340Y303530D01*
X1181100Y585470D02*
X1196340Y570230D01*
X1037590Y332740D02*
Y370840D01*
X1014476Y393954D02*
X1037590Y370840D01*
X982728Y393954D02*
X1014476D01*
X1037590Y332740D02*
X1080770Y289560D01*
X1182370D01*
X1181100Y585470D02*
Y1016762D01*
X1188233Y1023895D01*
X813229Y1192807D02*
X813356Y1192680D01*
X813229Y1192807D02*
Y1207793D01*
X813102Y1207920D02*
X813229Y1207793D01*
Y1177567D02*
Y1192553D01*
X813102Y1177440D02*
X813229Y1177567D01*
Y1192553D02*
X813356Y1192680D01*
X811832Y1177440D02*
X813102D01*
X809927Y1175535D02*
X811832Y1177440D01*
X809927Y1170365D02*
Y1175535D01*
X533460Y1179830D02*
X636270D01*
X1242060Y1129030D02*
X1286510D01*
X1236900Y1113790D02*
X1237564Y1114454D01*
Y1124534D01*
X1242060Y1129030D01*
X1236900Y1071800D02*
Y1113790D01*
X1199134Y1034034D02*
X1236900Y1071800D01*
X1199134Y1025690D02*
Y1034034D01*
X1196594Y1024730D02*
X1198174D01*
X1199134Y1025690D01*
X1195759Y1023895D02*
X1196594Y1024730D01*
X1188233Y1023895D02*
X1195759D01*
X908304Y769874D02*
X1005828D01*
X1008804Y761159D02*
X1010709Y759254D01*
X905052Y766622D02*
X908304Y769874D01*
X1008804Y761159D02*
Y766898D01*
X1005828Y769874D02*
X1008804Y766898D01*
X1010709Y759254D02*
X1011936D01*
X857377Y814297D02*
X905052Y766622D01*
X1128014Y456946D02*
Y622300D01*
X1126845Y455777D02*
X1128014Y456946D01*
X1276350Y764540D02*
Y787400D01*
X1271270Y759460D02*
X1276350Y764540D01*
X1248410Y759460D02*
X1271270D01*
X1276350Y790113D02*
X1302205D01*
X1127252Y759460D02*
X1154430D01*
X1210922Y948484D02*
Y962454D01*
X1033489Y466471D02*
X1033630Y466330D01*
X660039Y466471D02*
X1033489D01*
X1010462Y661212D02*
X1010920Y661670D01*
X1010394Y661144D02*
X1010462Y661212D01*
X1010394Y628124D02*
X1011177D01*
X1024020Y610870D02*
Y611290D01*
X1018053Y617257D02*
X1024020Y611290D01*
X1018053Y617257D02*
Y621248D01*
X1011177Y628124D02*
X1018053Y621248D01*
X1017624Y654050D02*
X1099091D01*
X1087120Y605790D02*
X1103630Y622300D01*
X1128014D01*
X582780Y545730D02*
X624280D01*
X1079500Y538480D02*
X1083310D01*
X1094740Y527050D01*
Y487426D02*
Y527050D01*
X1033630Y466330D02*
X1034340Y465620D01*
Y460430D02*
Y465620D01*
X1037316Y457454D02*
X1125169D01*
X1034340Y460430D02*
X1037316Y457454D01*
X1098372Y484251D02*
X1125169Y457454D01*
X1096645Y484251D02*
X1098372D01*
X1184482Y315618D02*
Y398141D01*
X982728Y393954D02*
Y422654D01*
X977392Y427990D02*
X982728Y422654D01*
X971171Y427990D02*
X977392D01*
X575612Y625142D02*
X641200D01*
X567690Y617220D02*
X575612Y625142D01*
X567690Y558820D02*
Y617220D01*
X892231Y857716D02*
X903803D01*
X880660D02*
X892231D01*
X894080Y851660D02*
Y855867D01*
X892231Y857716D02*
X894080Y855867D01*
X868426Y869950D02*
X880660Y857716D01*
X907080Y851660D02*
Y854439D01*
X903803Y857716D02*
X907080Y854439D01*
X867156Y869950D02*
X868426D01*
X855599Y836803D02*
Y842696D01*
X861695Y848792D01*
Y850519D01*
X865886Y854710D01*
X867156D01*
Y869950D01*
X852424Y820420D02*
Y833628D01*
Y820420D02*
X853489D01*
X857377Y814297D02*
Y816532D01*
X853489Y820420D02*
X857377Y816532D01*
X1011936Y744220D02*
X1012075Y744359D01*
X1011936Y744220D02*
Y759254D01*
X1128014Y622300D02*
Y638810D01*
Y654050D01*
X1127252Y744220D02*
X1128317D01*
X1136523Y699783D02*
Y736014D01*
X1128317Y744220D02*
X1136523Y736014D01*
X1128014Y691274D02*
X1136523Y699783D01*
X1128014Y654050D02*
Y691274D01*
X1099091Y654050D02*
X1128014D01*
X1083310Y669831D02*
X1099091Y654050D01*
X1069897Y708660D02*
X1083310Y695247D01*
Y669831D02*
Y695247D01*
X1068832Y708660D02*
X1069897D01*
X1127252Y744220D02*
Y759460D01*
X1303298Y791206D02*
Y800746D01*
X1394808Y411480D02*
X1403500Y420172D01*
X1252568Y411480D02*
X1394808D01*
X1403500Y420172D02*
Y431500D01*
X1404460Y432460D01*
X1372085Y559855D02*
X1385090Y546850D01*
Y543100D02*
Y546850D01*
X1372085Y559855D02*
Y561769D01*
X1370180Y563674D02*
X1372085Y561769D01*
X1210922Y962454D02*
Y976424D01*
X1298094Y522478D02*
X1339290Y563674D01*
X1210818Y1024730D02*
X1212398D01*
X1210922Y976424D02*
X1212192D01*
X1226820Y991052D01*
Y1008728D01*
X1212398Y1024730D02*
X1213358Y1023770D01*
Y1022190D02*
Y1023770D01*
Y1022190D02*
X1226820Y1008728D01*
X1211839Y1035850D02*
X1259800Y1083811D01*
Y1113790D01*
X1211839Y1025690D02*
Y1035850D01*
X979426Y393954D02*
X982728D01*
X1419860Y1111758D02*
X1431290D01*
Y1113790D01*
X971171Y427990D02*
Y443230D01*
Y458470D01*
D106*
X1296367Y925677D02*
Y1092074D01*
D107*
X1356293Y1147826D02*
X1388777Y1180310D01*
X1245720Y1145334D02*
X1334833D01*
X1337325Y1147826D02*
X1356293D01*
X1334833Y1145334D02*
X1337325Y1147826D01*
X1233197Y1145567D02*
X1245487D01*
X1209040Y1121410D02*
X1233197Y1145567D01*
X1245487D02*
X1245720Y1145334D01*
X1209040Y1101410D02*
Y1121410D01*
X1397480Y1180310D02*
X1422400Y1205230D01*
X1388777Y1180310D02*
X1397480D01*
D108*
X958700Y559864D02*
X969105D01*
X957430Y557324D02*
Y558594D01*
X958700Y559864D01*
X969105D02*
X971509Y562268D01*
X1009040Y1231410D02*
X1209040D01*
X720510Y849530D02*
Y961810D01*
X810260Y1051560D01*
X1298973Y919571D02*
X1299798Y918746D01*
X1303298D01*
X1298973Y919571D02*
Y923071D01*
X1296367Y925677D02*
X1298973Y923071D01*
X1305236Y1160066D02*
X1350400Y1205230D01*
X1259690Y1160066D02*
X1305236D01*
X825153Y1236058D02*
X835976Y1246881D01*
X798624Y1209529D02*
X825153Y1236058D01*
Y1066452D02*
Y1236058D01*
X810260Y1051560D02*
X825153Y1066452D01*
X517569Y991191D02*
X610510Y898250D01*
X517569Y991191D02*
Y1193389D01*
X610510Y849530D02*
Y898250D01*
X529410Y1205230D02*
X533460D01*
X517569Y1193389D02*
X529410Y1205230D01*
X742710D02*
X768110Y1179830D01*
X533460Y1205230D02*
X742710D01*
X768110Y1179830D02*
X772160D01*
X773355Y1178635D02*
X797175D01*
X798370Y1177440D01*
X772160Y1179830D02*
X773355Y1178635D01*
X798624Y1192680D02*
Y1209529D01*
Y1177694D02*
Y1192680D01*
X835976Y1246881D02*
X954869D01*
X798370Y1177440D02*
X798624Y1177694D01*
X954869Y1246881D02*
X967560Y1234190D01*
Y1204190D02*
Y1234190D01*
X968950Y1232800D02*
X1007650D01*
X1009040Y1231410D01*
X967560Y1234190D02*
X968950Y1232800D01*
X1009040Y1211410D02*
Y1231410D01*
X1211078Y1195978D02*
X1245720Y1161336D01*
X1211078Y1195978D02*
Y1209372D01*
X1245720Y1160066D02*
Y1161336D01*
X1209040Y1211410D02*
X1211078Y1209372D01*
X1209040Y1211410D02*
Y1231410D01*
X1245720Y1160066D02*
X1259690D01*
X920750Y341630D02*
Y360680D01*
X930910Y331470D02*
X989821D01*
X920750Y341630D02*
X930910Y331470D01*
X989821D02*
X998649Y340298D01*
X920750Y360680D02*
X934720Y374650D01*
X953034D01*
Y391414D01*
Y367316D02*
Y374650D01*
X947926Y393954D02*
X950494D01*
X953034Y391414D01*
X952940Y359950D02*
Y367316D01*
X1000131Y349589D02*
X1000765Y350223D01*
Y355965D01*
X1000131Y347361D02*
Y349589D01*
X1000765Y355965D02*
X1000940Y356140D01*
X998649Y345879D02*
X1000131Y347361D01*
X998649Y340298D02*
Y345879D01*
X942160Y1204190D02*
X1009040Y1137310D01*
Y1121410D02*
Y1137310D01*
Y1101410D02*
Y1121410D01*
X942160Y1204190D02*
Y1234190D01*
D109*
X1358392Y1121728D02*
Y1135380D01*
X1365060Y1115060D02*
X1366560D01*
X1473200Y1126651D02*
Y1235156D01*
X1454390Y1113990D02*
X1460539D01*
X1473200Y1126651D01*
X1440523Y1092074D02*
X1454190Y1105741D01*
Y1113790D02*
X1454390Y1113990D01*
X1465760Y1242596D02*
X1473200Y1235156D01*
X1351623Y1092074D02*
X1366560Y1107011D01*
Y1115060D01*
X1350400Y1205230D02*
X1356549D01*
X1454190Y1105741D02*
Y1113790D01*
X1385034Y1233715D02*
Y1238281D01*
X1282700Y1105741D02*
X1296367Y1092074D01*
X1389349Y1242596D02*
X1465760D01*
X1385034Y1238281D02*
X1389349Y1242596D01*
X1282700Y1105741D02*
Y1113790D01*
X1358392Y1121728D02*
X1365060Y1115060D01*
X1296367Y1092074D02*
X1351623D01*
X1440523D01*
X1356549Y1205230D02*
X1385034Y1233715D01*
D110*
X1009040Y1121410D02*
D03*
Y1101410D02*
D03*
Y1231410D02*
D03*
Y1211410D02*
D03*
X1209040Y1231410D02*
D03*
Y1211410D02*
D03*
Y1121410D02*
D03*
Y1101410D02*
D03*
X942160Y1204190D02*
D03*
X916760D02*
D03*
X942160Y1234190D02*
D03*
X916760D02*
D03*
X810260Y1076960D02*
D03*
Y1102360D02*
D03*
D111*
X606740Y334010D02*
D03*
D112*
X566740D02*
D03*
D113*
X1235250Y315650D02*
D03*
D03*
X1184482Y315618D02*
D03*
D03*
X1209882D02*
D03*
X1260650Y315650D02*
D03*
D114*
X1020190Y306100D02*
D03*
X933690D02*
D03*
D115*
X1020190Y347800D02*
D03*
X933690D02*
D03*
D116*
X1005840Y342900D02*
D03*
X948040D02*
D03*
D117*
X1422400Y1205230D02*
D03*
D118*
X1350400D02*
D03*
D119*
X967560Y1204190D02*
D03*
Y1234190D02*
D03*
D120*
X810260Y1051560D02*
D03*
D121*
X986680Y590186D02*
D03*
X971509Y562268D02*
D03*
X816277Y1207920D02*
D03*
X557082Y1018346D02*
D03*
X1112520Y676910D02*
D03*
X1346200Y597154D02*
D03*
X1203960Y577850D02*
D03*
X1226566Y632460D02*
D03*
Y528574D02*
D03*
X1187450Y725170D02*
D03*
X1195070Y935990D02*
D03*
X969440Y376174D02*
D03*
X657860Y591820D02*
D03*
X1005840Y551180D02*
D03*
X1010920Y530860D02*
D03*
X1029194Y524510D02*
D03*
X1085469Y510794D02*
D03*
X1043940Y515620D02*
D03*
X1372870Y528574D02*
D03*
X1039020Y533400D02*
D03*
X1121918Y578104D02*
D03*
X1203960Y628650D02*
D03*
X1010394Y661144D02*
D03*
Y628124D02*
D03*
X667052Y543306D02*
D03*
X897890Y536194D02*
D03*
X1011936Y618744D02*
D03*
X1104900Y607060D02*
D03*
X1071880Y463550D02*
D03*
X642620Y379730D02*
D03*
X998220Y385826D02*
D03*
X906526Y820420D02*
D03*
X1056894Y742950D02*
D03*
X1121918Y703580D02*
D03*
Y492887D02*
D03*
X1404620Y559054D02*
D03*
X881380Y843280D02*
D03*
X1068324Y678180D02*
D03*
X919480Y842010D02*
D03*
X1024890Y628650D02*
D03*
X1404620Y473710D02*
D03*
X1285494Y778510D02*
D03*
X1009650Y568960D02*
D03*
X986282Y549402D02*
D03*
X1404874Y515620D02*
D03*
X1424940Y473710D02*
D03*
X1384554Y462280D02*
D03*
X1036508Y617982D02*
D03*
X1194054Y1003300D02*
D03*
X1238504Y831850D02*
D03*
Y800100D02*
D03*
X1037590Y332740D02*
D03*
X1419860Y1111758D02*
D03*
X1366370Y519684D02*
D03*
X1034020Y506763D02*
D03*
X1315720Y483918D02*
D03*
X1093470Y574120D02*
D03*
X1111758Y591074D02*
D03*
X1054020Y618664D02*
D03*
X1096264Y759460D02*
D03*
X535432Y1090930D02*
D03*
X1047750Y627126D02*
D03*
X1104427Y628396D02*
D03*
X1098296Y579374D02*
D03*
X1054100Y501824D02*
D03*
D122*
X1248410Y759460D02*
D03*
X1210310D02*
D03*
X1154430D02*
D03*
D123*
X1029520Y598620D02*
D03*
X1040520D02*
D03*
X1051520D02*
D03*
X1062520D02*
D03*
X1073520D02*
D03*
X1029520Y587620D02*
D03*
X1040520D02*
D03*
X1051520D02*
D03*
X1062520D02*
D03*
X1073520D02*
D03*
X1029520Y576620D02*
D03*
X1040520D02*
D03*
X1051520D02*
D03*
X1062520D02*
D03*
X1073520D02*
D03*
X1029520Y565620D02*
D03*
X1040520D02*
D03*
X1051520D02*
D03*
X1062520D02*
D03*
X1073520D02*
D03*
X1029520Y554620D02*
D03*
X1040520D02*
D03*
X1051520D02*
D03*
X1062520D02*
D03*
X1073520D02*
D03*
M02*
