G04*
G04 #@! TF.GenerationSoftware,Altium Limited,Altium Designer,25.0.2 (28)*
G04*
G04 Layer_Physical_Order=2*
G04 Layer_Color=16711680*
%FSLAX44Y44*%
%MOMM*%
G71*
G04*
G04 #@! TF.SameCoordinates,E8353DEC-B648-43D7-BF79-564EE0BAD765*
G04*
G04*
G04 #@! TF.FilePolarity,Positive*
G04*
G01*
G75*
%ADD14C,0.2540*%
%ADD105C,0.5080*%
%ADD110C,1.7000*%
%ADD111R,1.3080X1.3080*%
%ADD112C,1.3080*%
%ADD113R,1.5240X1.5240*%
%ADD114O,0.9000X1.7000*%
%ADD115O,0.9000X2.0000*%
%ADD116C,0.6000*%
%ADD117R,6.0000X6.0000*%
%ADD118C,6.0000*%
%ADD119R,1.7000X1.7000*%
%ADD120R,1.7000X1.7000*%
%ADD121C,0.5080*%
%ADD122C,1.0160*%
%ADD123C,0.5000*%
G36*
X1504400Y935801D02*
X1504758Y935443D01*
X1504953Y934977D01*
X1504954Y934724D01*
X1505207Y934723D01*
X1505674Y934528D01*
X1506031Y934170D01*
X1506224Y933703D01*
Y933450D01*
Y269240D01*
Y268987D01*
X1506030Y268518D01*
X1505672Y268160D01*
X1505203Y267966D01*
X507338D01*
X505361Y270256D01*
X505362Y270510D01*
X505362Y270510D01*
X504336Y272286D01*
X504210Y273154D01*
X504186Y273483D01*
Y273918D01*
Y652351D01*
X504757Y652785D01*
X506734Y654054D01*
Y654054D01*
X506734Y654054D01*
X812272D01*
X814022Y655804D01*
Y736383D01*
X816369Y737355D01*
X1002269Y551455D01*
X1002214Y551180D01*
X1002490Y549793D01*
X1003276Y548616D01*
X1003934Y548177D01*
X1003452Y545637D01*
X991098D01*
X989668Y547956D01*
X989664Y548177D01*
X989908Y549402D01*
X989632Y550789D01*
X988846Y551966D01*
X987670Y552752D01*
X986282Y553028D01*
X984894Y552752D01*
X983718Y551966D01*
X983563Y551733D01*
X701243D01*
X661431Y591545D01*
X661486Y591820D01*
X661210Y593208D01*
X660424Y594384D01*
X659248Y595170D01*
X657860Y595446D01*
X656472Y595170D01*
X655296Y594384D01*
X654510Y593208D01*
X654234Y591820D01*
X654510Y590433D01*
X655296Y589256D01*
X656472Y588470D01*
X657860Y588194D01*
X658135Y588249D01*
X698207Y548177D01*
X697820Y546532D01*
X697226Y545637D01*
X669771D01*
X669615Y545870D01*
X668439Y546656D01*
X667052Y546932D01*
X665664Y546656D01*
X664488Y545870D01*
X663702Y544693D01*
X663426Y543306D01*
X663702Y541918D01*
X664488Y540742D01*
X665664Y539956D01*
X667052Y539680D01*
X668439Y539956D01*
X669615Y540742D01*
X669771Y540975D01*
X894073D01*
X894743Y539790D01*
X895111Y538435D01*
X894540Y537581D01*
X894264Y536194D01*
X894540Y534807D01*
X895326Y533630D01*
X896503Y532844D01*
X897890Y532568D01*
X898165Y532623D01*
X901576Y529212D01*
X902332Y528707D01*
X903224Y528529D01*
X1008201D01*
X1008356Y528296D01*
X1009532Y527510D01*
X1010920Y527234D01*
X1011429Y527336D01*
X1012681Y524995D01*
X996572Y508886D01*
X996067Y508130D01*
X995889Y507238D01*
Y388545D01*
X995656Y388390D01*
X994870Y387214D01*
X994594Y385826D01*
X992788Y383331D01*
X644577D01*
X643685Y383153D01*
X643674Y383146D01*
X642620Y383356D01*
X641233Y383080D01*
X640056Y382294D01*
X639270Y381118D01*
X638994Y379730D01*
X639270Y378343D01*
X640056Y377166D01*
X641233Y376380D01*
X642620Y376104D01*
X644007Y376380D01*
X645184Y377166D01*
X645970Y378343D01*
X646035Y378669D01*
X964008D01*
X965814Y376174D01*
X966090Y374786D01*
X966876Y373610D01*
X968052Y372824D01*
X969440Y372548D01*
X970827Y372824D01*
X972003Y373610D01*
X972159Y373843D01*
X1055624D01*
X1056516Y374021D01*
X1057272Y374526D01*
X1123566Y440820D01*
X1124071Y441576D01*
X1124249Y442468D01*
Y490168D01*
X1124482Y490323D01*
X1125268Y491499D01*
X1125544Y492887D01*
X1125268Y494274D01*
X1124482Y495451D01*
X1123306Y496237D01*
X1121918Y496513D01*
X1120530Y496237D01*
X1119354Y495451D01*
X1118568Y494274D01*
X1118292Y492887D01*
X1118568Y491499D01*
X1119354Y490323D01*
X1119587Y490168D01*
Y443433D01*
X1054659Y378505D01*
X1006898D01*
X1005846Y381045D01*
X1009092Y384291D01*
X1009597Y385047D01*
X1009774Y385939D01*
Y454203D01*
X1053825Y498253D01*
X1054100Y498199D01*
X1055488Y498475D01*
X1056664Y499260D01*
X1057450Y500437D01*
X1057726Y501824D01*
X1057712Y501893D01*
X1059364Y504299D01*
X1059600Y504433D01*
X1081709D01*
X1081822Y504320D01*
X1082578Y503815D01*
X1083470Y503637D01*
X1292704D01*
X1312149Y484193D01*
X1312094Y483918D01*
X1312370Y482530D01*
X1313156Y481354D01*
X1314332Y480568D01*
X1315720Y480292D01*
X1317108Y480568D01*
X1318284Y481354D01*
X1319070Y482530D01*
X1319346Y483918D01*
X1319070Y485305D01*
X1318284Y486482D01*
X1317108Y487267D01*
X1315720Y487543D01*
X1315445Y487489D01*
X1295318Y507616D01*
X1294562Y508121D01*
X1293670Y508299D01*
X1092734D01*
X1090648Y510794D01*
X1092734Y513289D01*
X1362306D01*
X1363198Y513467D01*
X1363954Y513972D01*
X1366095Y516113D01*
X1366370Y516058D01*
X1367758Y516334D01*
X1368934Y517120D01*
X1369720Y518297D01*
X1369996Y519684D01*
X1369720Y521072D01*
X1369237Y521794D01*
X1370847Y523791D01*
X1370888Y523789D01*
X1371312Y523704D01*
X1371600Y523647D01*
Y528574D01*
X1372870D01*
Y529844D01*
X1378516D01*
X1378924Y530954D01*
X1379858Y531247D01*
X1380614Y531752D01*
X1404345Y555483D01*
X1404620Y555428D01*
X1406008Y555704D01*
X1407184Y556490D01*
X1407970Y557667D01*
X1408246Y559054D01*
X1407970Y560442D01*
X1407184Y561618D01*
X1406008Y562404D01*
X1404620Y562680D01*
X1403233Y562404D01*
X1402056Y561618D01*
X1401270Y560442D01*
X1400994Y559054D01*
X1401049Y558779D01*
X1378001Y535731D01*
X1041739D01*
X1041584Y535964D01*
X1040407Y536750D01*
X1039020Y537026D01*
X1037633Y536750D01*
X1036456Y535964D01*
X1035670Y534787D01*
X1035394Y533400D01*
X1035670Y532012D01*
X1036456Y530836D01*
X1037633Y530050D01*
X1039020Y529774D01*
X1040407Y530050D01*
X1041584Y530836D01*
X1041739Y531069D01*
X1217676D01*
X1218728Y528529D01*
X1217039Y526841D01*
X1031913D01*
X1031758Y527074D01*
X1030581Y527860D01*
X1029194Y528136D01*
X1027806Y527860D01*
X1026630Y527074D01*
X1025844Y525897D01*
X1025568Y524510D01*
X1025844Y523122D01*
X1026630Y521946D01*
X1027806Y521160D01*
X1029194Y520884D01*
X1030581Y521160D01*
X1031758Y521946D01*
X1031913Y522179D01*
X1218005D01*
X1218897Y522357D01*
X1219653Y522862D01*
X1222548Y525757D01*
X1224381D01*
X1225179Y525224D01*
X1226566Y524948D01*
X1227953Y525224D01*
X1229130Y526010D01*
X1229916Y527187D01*
X1230192Y528574D01*
X1231998Y531069D01*
X1365605D01*
X1367690Y528574D01*
X1368085Y526592D01*
X1369207Y524911D01*
X1367758Y523034D01*
X1366370Y523310D01*
X1364983Y523034D01*
X1363806Y522248D01*
X1363020Y521072D01*
X1362744Y519684D01*
X1360951Y517951D01*
X1046659D01*
X1046504Y518184D01*
X1045328Y518970D01*
X1043940Y519246D01*
X1042552Y518970D01*
X1041376Y518184D01*
X1040590Y517007D01*
X1040314Y515620D01*
X1040590Y514232D01*
X1041376Y513056D01*
X1042552Y512270D01*
X1043940Y511994D01*
X1045328Y512270D01*
X1046504Y513056D01*
X1046659Y513289D01*
X1078204D01*
X1079954Y511195D01*
X1078476Y509094D01*
X1036739D01*
X1036583Y509327D01*
X1035407Y510113D01*
X1034020Y510389D01*
X1032632Y510113D01*
X1031456Y509327D01*
X1030670Y508151D01*
X1030394Y506763D01*
X1030670Y505376D01*
X1031456Y504200D01*
X1032632Y503414D01*
X1034020Y503138D01*
X1035407Y503414D01*
X1036583Y504200D01*
X1036739Y504433D01*
X1048600D01*
X1048836Y504299D01*
X1050488Y501893D01*
X1050474Y501824D01*
X1050529Y501549D01*
X1005796Y456816D01*
X1005290Y456060D01*
X1005113Y455168D01*
Y388482D01*
X1004066Y387682D01*
X1003655Y387605D01*
X1000897Y388220D01*
X1000784Y388390D01*
X1000551Y388545D01*
Y506273D01*
X1038047Y543769D01*
X1097280D01*
X1098172Y543947D01*
X1098928Y544452D01*
X1113406Y558930D01*
X1113911Y559686D01*
X1114089Y560578D01*
Y588355D01*
X1114322Y588511D01*
X1115108Y589687D01*
X1115384Y591074D01*
X1115143Y592283D01*
X1115155Y592538D01*
X1116585Y594823D01*
X1343481D01*
X1343636Y594590D01*
X1344812Y593804D01*
X1346200Y593528D01*
X1347587Y593804D01*
X1348764Y594590D01*
X1349550Y595766D01*
X1349826Y597154D01*
X1349550Y598541D01*
X1348764Y599718D01*
X1347587Y600504D01*
X1346200Y600780D01*
X1344812Y600504D01*
X1343636Y599718D01*
X1343481Y599485D01*
X1196396D01*
X1195424Y601831D01*
X1220238Y626646D01*
X1222395D01*
X1223287Y626824D01*
X1224044Y627329D01*
X1225718Y629003D01*
X1226566Y628834D01*
X1227953Y629110D01*
X1229130Y629896D01*
X1229916Y631073D01*
X1230192Y632460D01*
X1229916Y633848D01*
X1229130Y635024D01*
X1227953Y635810D01*
X1226566Y636086D01*
X1225179Y635810D01*
X1224002Y635024D01*
X1223216Y633848D01*
X1223029Y632907D01*
X1221430Y631308D01*
X1219273D01*
X1218381Y631130D01*
X1217625Y630625D01*
X1190041Y603041D01*
X1111379D01*
X1110725Y603828D01*
X1109785Y605581D01*
X1109827Y605790D01*
X1099973D01*
X1100115Y605078D01*
X1101237Y603397D01*
X1101555Y600153D01*
X1091822Y590420D01*
X1091317Y589664D01*
X1091139Y588772D01*
Y576839D01*
X1090906Y576684D01*
X1090120Y575507D01*
X1089844Y574120D01*
X1090120Y572732D01*
X1090906Y571556D01*
X1092083Y570770D01*
X1093470Y570494D01*
X1094857Y570770D01*
X1096034Y571556D01*
X1096820Y572732D01*
X1097096Y574120D01*
X1098296Y575748D01*
X1099684Y576024D01*
X1100860Y576810D01*
X1101646Y577986D01*
X1101922Y579374D01*
X1101646Y580761D01*
X1100860Y581938D01*
X1100627Y582093D01*
Y585267D01*
X1105691Y590330D01*
X1108341Y589703D01*
X1108501Y589548D01*
X1109194Y588511D01*
X1109427Y588355D01*
Y561543D01*
X1096315Y548431D01*
X1041913D01*
X1040675Y549907D01*
X1041315Y551193D01*
X1041892Y551308D01*
X1043055Y552085D01*
X1043832Y553248D01*
X1044105Y554620D01*
X1043832Y555992D01*
X1043055Y557155D01*
X1041892Y557932D01*
X1040520Y558204D01*
X1038895Y560120D01*
X1040520Y562035D01*
X1041892Y562308D01*
X1043055Y563085D01*
X1043832Y564248D01*
X1044105Y565620D01*
X1043832Y566992D01*
X1043055Y568155D01*
X1041892Y568932D01*
X1040520Y569205D01*
X1038897Y571120D01*
X1040520Y573035D01*
X1041892Y573308D01*
X1043055Y574085D01*
X1043832Y575248D01*
X1044105Y576620D01*
X1043832Y577991D01*
X1043055Y579155D01*
X1041892Y579932D01*
X1040520Y580205D01*
X1038895Y582120D01*
X1040520Y584035D01*
X1041892Y584308D01*
X1043055Y585085D01*
X1043832Y586248D01*
X1044105Y587620D01*
X1043832Y588992D01*
X1043055Y590155D01*
X1041892Y590932D01*
X1040520Y591205D01*
X1038897Y593120D01*
X1040520Y595035D01*
X1041892Y595308D01*
X1043055Y596085D01*
X1043832Y597248D01*
X1044105Y598620D01*
X1043832Y599991D01*
X1043055Y601155D01*
X1041892Y601932D01*
X1040520Y602205D01*
X1038838Y604460D01*
Y615263D01*
X1039071Y615418D01*
X1039857Y616595D01*
X1040133Y617982D01*
X1042482Y619191D01*
X1053722Y607952D01*
X1054478Y607447D01*
X1055370Y607269D01*
X1072896D01*
X1073788Y607447D01*
X1074544Y607952D01*
X1131578Y664986D01*
X1132083Y665742D01*
X1132261Y666634D01*
Y666685D01*
X1187175Y721599D01*
X1187450Y721544D01*
X1188838Y721820D01*
X1190014Y722606D01*
X1190800Y723783D01*
X1191076Y725170D01*
X1190800Y726557D01*
X1190014Y727734D01*
X1188838Y728520D01*
X1187450Y728796D01*
X1186062Y728520D01*
X1184886Y727734D01*
X1184100Y726557D01*
X1183824Y725170D01*
X1183879Y724895D01*
X1128282Y669298D01*
X1127777Y668542D01*
X1127599Y667650D01*
Y667599D01*
X1071931Y611931D01*
X1057294D01*
X1056248Y613409D01*
X1056584Y616101D01*
X1057370Y617277D01*
X1057646Y618664D01*
X1057633Y618727D01*
X1112245Y673339D01*
X1112520Y673284D01*
X1113907Y673560D01*
X1115084Y674346D01*
X1115870Y675523D01*
X1116146Y676910D01*
X1115870Y678298D01*
X1115084Y679474D01*
X1114851Y679629D01*
Y700789D01*
X1115729Y701100D01*
X1117391Y701212D01*
X1118255Y699918D01*
X1119936Y698795D01*
X1120648Y698653D01*
Y703580D01*
Y708507D01*
X1119936Y708365D01*
X1118255Y707243D01*
X1117391Y705948D01*
X1115729Y706060D01*
X1114851Y706371D01*
Y755904D01*
X1114673Y756796D01*
X1114168Y757552D01*
X1028062Y843658D01*
X1027306Y844163D01*
X1026414Y844341D01*
X922199D01*
X922044Y844574D01*
X920867Y845360D01*
X919480Y845636D01*
X918092Y845360D01*
X916916Y844574D01*
X916130Y843398D01*
X915854Y842010D01*
X916130Y840622D01*
X916916Y839446D01*
X918092Y838660D01*
X919480Y838384D01*
X920867Y838660D01*
X922044Y839446D01*
X922199Y839679D01*
X1025449D01*
X1110189Y754939D01*
Y679629D01*
X1109956Y679474D01*
X1109170Y678298D01*
X1108894Y676910D01*
X1108949Y676635D01*
X1054507Y622193D01*
X1054020Y622290D01*
X1052633Y622014D01*
X1051457Y621228D01*
X1048791Y621023D01*
X1048658Y621129D01*
X1048977Y623438D01*
X1049137Y623776D01*
X1050314Y624562D01*
X1051100Y625738D01*
X1051376Y627126D01*
X1051100Y628513D01*
X1050314Y629690D01*
X1050081Y629845D01*
Y709981D01*
X1095989Y755889D01*
X1096264Y755834D01*
X1097652Y756110D01*
X1098828Y756896D01*
X1099614Y758073D01*
X1099890Y759460D01*
X1099614Y760847D01*
X1098828Y762024D01*
X1097652Y762810D01*
X1096264Y763086D01*
X1094876Y762810D01*
X1093700Y762024D01*
X1093545Y761791D01*
X968452D01*
X910097Y820145D01*
X910152Y820420D01*
X909876Y821807D01*
X909090Y822984D01*
X907914Y823770D01*
X906526Y824046D01*
X905138Y823770D01*
X903962Y822984D01*
X903176Y821807D01*
X902900Y820420D01*
X903176Y819033D01*
X903962Y817856D01*
X905138Y817070D01*
X906526Y816794D01*
X906801Y816849D01*
X965838Y757812D01*
X966594Y757307D01*
X967486Y757129D01*
X1087318D01*
X1088290Y754783D01*
X1046102Y712594D01*
X1045597Y711838D01*
X1045419Y710946D01*
Y629845D01*
X1045186Y629690D01*
X1044400Y628513D01*
X1044124Y627126D01*
X1044049Y626973D01*
X1042268Y625242D01*
X1041979Y625139D01*
X1031476D01*
X1030064Y627380D01*
X1019715D01*
X1018304Y625139D01*
X1016000D01*
X1015690Y625077D01*
X1014422Y626158D01*
X1014299Y626297D01*
X1013815Y627097D01*
X1014020Y628124D01*
Y661144D01*
X1013744Y662531D01*
X1012958Y663708D01*
X1011781Y664494D01*
X1010394Y664770D01*
X1009007Y664494D01*
X1007830Y663708D01*
X1007044Y662531D01*
X1006768Y661144D01*
Y628124D01*
X1007044Y626736D01*
X1007830Y625560D01*
X1009007Y624774D01*
X1010394Y624498D01*
X1010548Y622094D01*
X1009372Y621308D01*
X1008586Y620131D01*
X1008310Y618744D01*
X1008586Y617356D01*
X1009372Y616180D01*
X1010548Y615394D01*
X1011936Y615118D01*
X1013324Y615394D01*
X1014500Y616180D01*
X1015286Y617356D01*
X1015562Y618744D01*
X1017355Y620477D01*
X1031076D01*
X1032882Y617982D01*
X1033158Y616595D01*
X1033944Y615418D01*
X1034177Y615263D01*
Y602551D01*
X1033510Y601968D01*
X1032168Y601218D01*
X1030892Y601932D01*
X1029520Y602205D01*
X1028148Y601932D01*
X1026985Y601155D01*
X1026208Y599991D01*
X1025935Y598620D01*
X1026208Y597248D01*
X1026985Y596085D01*
X1028148Y595308D01*
X1029520Y595035D01*
X1031368Y593138D01*
Y593102D01*
X1029520Y591205D01*
X1028148Y590932D01*
X1026985Y590155D01*
X1026208Y588992D01*
X1025935Y587620D01*
X1026208Y586248D01*
X1026985Y585085D01*
X1028148Y584308D01*
X1029520Y584035D01*
X1031368Y582138D01*
Y582101D01*
X1029520Y580205D01*
X1028148Y579932D01*
X1026985Y579155D01*
X1026208Y577991D01*
X1025935Y576620D01*
X1026208Y575248D01*
X1026985Y574085D01*
X1028148Y573308D01*
X1029520Y573035D01*
X1031368Y571138D01*
Y571102D01*
X1029520Y569205D01*
X1028148Y568932D01*
X1026985Y568155D01*
X1026208Y566992D01*
X1025935Y565620D01*
X1026208Y564248D01*
X1026985Y563085D01*
X1028148Y562308D01*
X1029520Y562035D01*
X1031368Y560138D01*
Y560101D01*
X1029520Y558204D01*
X1028148Y557932D01*
X1026985Y557155D01*
X1026208Y555992D01*
X1025935Y554620D01*
X1026208Y553248D01*
X1026985Y552085D01*
X1028148Y551308D01*
X1029429Y551053D01*
X1029699Y550655D01*
X1030635Y548667D01*
X1027605Y545637D01*
X1008228D01*
X1007746Y548177D01*
X1008404Y548616D01*
X1009190Y549793D01*
X1009466Y551180D01*
X1009190Y552567D01*
X1008404Y553744D01*
X1007227Y554530D01*
X1005840Y554806D01*
X1005565Y554751D01*
X814022Y746294D01*
Y925151D01*
X814066Y925483D01*
Y934291D01*
X814637Y934725D01*
X816614Y935994D01*
Y935994D01*
X816614Y935994D01*
X1189887D01*
X1189891Y935990D01*
X1190285Y934008D01*
X1191407Y932327D01*
X1193088Y931205D01*
X1193800Y931063D01*
Y935990D01*
X1196340D01*
Y931063D01*
X1197052Y931205D01*
X1198733Y932327D01*
X1199855Y934008D01*
X1200249Y935990D01*
X1200253Y935994D01*
X1503933D01*
X1504400Y935801D01*
D02*
G37*
%LPC*%
G36*
X1495122Y923730D02*
X1474122D01*
X1473344Y923408D01*
X1473022Y922630D01*
Y903630D01*
X1473344Y902852D01*
X1474122Y902530D01*
X1495122D01*
X1495900Y902852D01*
X1496222Y903630D01*
Y922630D01*
X1495900Y923408D01*
X1495122Y923730D01*
D02*
G37*
G36*
X882650Y848207D02*
Y844550D01*
X886307D01*
X886165Y845262D01*
X885042Y846943D01*
X883362Y848065D01*
X882650Y848207D01*
D02*
G37*
G36*
X880110D02*
X879398Y848065D01*
X877718Y846943D01*
X876595Y845262D01*
X876453Y844550D01*
X880110D01*
Y848207D01*
D02*
G37*
G36*
X886307Y842010D02*
X882650D01*
Y838353D01*
X883362Y838495D01*
X885042Y839617D01*
X886165Y841298D01*
X886307Y842010D01*
D02*
G37*
G36*
X880110D02*
X876453D01*
X876595Y841298D01*
X877718Y839617D01*
X879398Y838495D01*
X880110Y838353D01*
Y842010D01*
D02*
G37*
G36*
X1239774Y836777D02*
Y833120D01*
X1243431D01*
X1243289Y833832D01*
X1242167Y835512D01*
X1240486Y836635D01*
X1239774Y836777D01*
D02*
G37*
G36*
X1237234D02*
X1236522Y836635D01*
X1234842Y835512D01*
X1233719Y833832D01*
X1233577Y833120D01*
X1237234D01*
Y836777D01*
D02*
G37*
G36*
X1243431Y830580D02*
X1239774D01*
Y826923D01*
X1240486Y827065D01*
X1242167Y828187D01*
X1243289Y829868D01*
X1243431Y830580D01*
D02*
G37*
G36*
X1237234D02*
X1233577D01*
X1233719Y829868D01*
X1234842Y828187D01*
X1236522Y827065D01*
X1237234Y826923D01*
Y830580D01*
D02*
G37*
G36*
X1239774Y805027D02*
Y801370D01*
X1243431D01*
X1243289Y802082D01*
X1242167Y803763D01*
X1240486Y804885D01*
X1239774Y805027D01*
D02*
G37*
G36*
X1237234D02*
X1236522Y804885D01*
X1234842Y803763D01*
X1233719Y802082D01*
X1233577Y801370D01*
X1237234D01*
Y805027D01*
D02*
G37*
G36*
X1243431Y798830D02*
X1239774D01*
Y795173D01*
X1240486Y795315D01*
X1242167Y796438D01*
X1243289Y798118D01*
X1243431Y798830D01*
D02*
G37*
G36*
X1237234D02*
X1233577D01*
X1233719Y798118D01*
X1234842Y796438D01*
X1236522Y795315D01*
X1237234Y795173D01*
Y798830D01*
D02*
G37*
G36*
X1286764Y783437D02*
Y779780D01*
X1290421D01*
X1290279Y780492D01*
X1289156Y782172D01*
X1287476Y783295D01*
X1286764Y783437D01*
D02*
G37*
G36*
X1284224D02*
X1283512Y783295D01*
X1281832Y782172D01*
X1280709Y780492D01*
X1280567Y779780D01*
X1284224D01*
Y783437D01*
D02*
G37*
G36*
X1290421Y777240D02*
X1286764D01*
Y773583D01*
X1287476Y773725D01*
X1289156Y774847D01*
X1290279Y776528D01*
X1290421Y777240D01*
D02*
G37*
G36*
X1284224D02*
X1280567D01*
X1280709Y776528D01*
X1281832Y774847D01*
X1283512Y773725D01*
X1284224Y773583D01*
Y777240D01*
D02*
G37*
G36*
X1248410Y765675D02*
X1246031Y765202D01*
X1244015Y763855D01*
X1243501Y763086D01*
X1215219D01*
X1214705Y763855D01*
X1212689Y765202D01*
X1210310Y765675D01*
X1207932Y765202D01*
X1205915Y763855D01*
X1205401Y763086D01*
X1159339D01*
X1158825Y763855D01*
X1156808Y765202D01*
X1154430Y765675D01*
X1152051Y765202D01*
X1150035Y763855D01*
X1148688Y761839D01*
X1148215Y759460D01*
X1148688Y757082D01*
X1150035Y755065D01*
X1152051Y753718D01*
X1154430Y753245D01*
X1156808Y753718D01*
X1158825Y755065D01*
X1159339Y755834D01*
X1205401D01*
X1205915Y755065D01*
X1207932Y753718D01*
X1210310Y753245D01*
X1212689Y753718D01*
X1214705Y755065D01*
X1215219Y755834D01*
X1243501D01*
X1244015Y755065D01*
X1246031Y753718D01*
X1248410Y753245D01*
X1250788Y753718D01*
X1252805Y755065D01*
X1254152Y757082D01*
X1254625Y759460D01*
X1254152Y761839D01*
X1252805Y763855D01*
X1250788Y765202D01*
X1248410Y765675D01*
D02*
G37*
G36*
X1058164Y747877D02*
Y744220D01*
X1061821D01*
X1061679Y744932D01*
X1060556Y746612D01*
X1058876Y747735D01*
X1058164Y747877D01*
D02*
G37*
G36*
X1055624D02*
X1054912Y747735D01*
X1053232Y746612D01*
X1052109Y744932D01*
X1051967Y744220D01*
X1055624D01*
Y747877D01*
D02*
G37*
G36*
X1061821Y741680D02*
X1058164D01*
Y738023D01*
X1058876Y738165D01*
X1060556Y739287D01*
X1061679Y740968D01*
X1061821Y741680D01*
D02*
G37*
G36*
X1055624D02*
X1051967D01*
X1052109Y740968D01*
X1053232Y739287D01*
X1054912Y738165D01*
X1055624Y738023D01*
Y741680D01*
D02*
G37*
G36*
X1123188Y708507D02*
Y704850D01*
X1126845D01*
X1126703Y705562D01*
X1125581Y707243D01*
X1123900Y708365D01*
X1123188Y708507D01*
D02*
G37*
G36*
X1126845Y702310D02*
X1123188D01*
Y698653D01*
X1123900Y698795D01*
X1125581Y699918D01*
X1126703Y701598D01*
X1126845Y702310D01*
D02*
G37*
G36*
X1069594Y683107D02*
Y679450D01*
X1073251D01*
X1073109Y680162D01*
X1071986Y681842D01*
X1070306Y682965D01*
X1069594Y683107D01*
D02*
G37*
G36*
X1067054D02*
X1066342Y682965D01*
X1064661Y681842D01*
X1063539Y680162D01*
X1063397Y679450D01*
X1067054D01*
Y683107D01*
D02*
G37*
G36*
X1073251Y676910D02*
X1069594D01*
Y673253D01*
X1070306Y673395D01*
X1071986Y674518D01*
X1073109Y676198D01*
X1073251Y676910D01*
D02*
G37*
G36*
X1067054D02*
X1063397D01*
X1063539Y676198D01*
X1064661Y674518D01*
X1066342Y673395D01*
X1067054Y673253D01*
Y676910D01*
D02*
G37*
G36*
X1203960Y632276D02*
X1202572Y632000D01*
X1201396Y631214D01*
X1201156Y630854D01*
X1107062D01*
X1106991Y630960D01*
X1105815Y631746D01*
X1104427Y632022D01*
X1103040Y631746D01*
X1101863Y630960D01*
X1101077Y629784D01*
X1100801Y628396D01*
X1101077Y627009D01*
X1101863Y625832D01*
X1103040Y625046D01*
X1104427Y624770D01*
X1105815Y625046D01*
X1106991Y625832D01*
X1107231Y626192D01*
X1201325D01*
X1201396Y626086D01*
X1202572Y625300D01*
X1203960Y625024D01*
X1205348Y625300D01*
X1206524Y626086D01*
X1207310Y627262D01*
X1207586Y628650D01*
X1207310Y630037D01*
X1206524Y631214D01*
X1205348Y632000D01*
X1203960Y632276D01*
D02*
G37*
G36*
X1026160Y633577D02*
Y629920D01*
X1029817D01*
X1029675Y630632D01*
X1028552Y632313D01*
X1026872Y633435D01*
X1026160Y633577D01*
D02*
G37*
G36*
X1023620D02*
X1022908Y633435D01*
X1021227Y632313D01*
X1020105Y630632D01*
X1019963Y629920D01*
X1023620D01*
Y633577D01*
D02*
G37*
G36*
X1106170Y611987D02*
Y608330D01*
X1109827D01*
X1109685Y609042D01*
X1108562Y610723D01*
X1106882Y611845D01*
X1106170Y611987D01*
D02*
G37*
G36*
X1103630D02*
X1102918Y611845D01*
X1101237Y610723D01*
X1100115Y609042D01*
X1099973Y608330D01*
X1103630D01*
Y611987D01*
D02*
G37*
G36*
X1073520Y602205D02*
X1072148Y601932D01*
X1070985Y601155D01*
X1070208Y599991D01*
X1069935Y598620D01*
X1070208Y597248D01*
X1070985Y596085D01*
X1072148Y595308D01*
X1073520Y595035D01*
X1074892Y595308D01*
X1076055Y596085D01*
X1076832Y597248D01*
X1077105Y598620D01*
X1076832Y599991D01*
X1076055Y601155D01*
X1074892Y601932D01*
X1073520Y602205D01*
D02*
G37*
G36*
X1062520D02*
X1061148Y601932D01*
X1059985Y601155D01*
X1059208Y599991D01*
X1058935Y598620D01*
X1059208Y597248D01*
X1059985Y596085D01*
X1061148Y595308D01*
X1062520Y595035D01*
X1063892Y595308D01*
X1065055Y596085D01*
X1065832Y597248D01*
X1066105Y598620D01*
X1065832Y599991D01*
X1065055Y601155D01*
X1063892Y601932D01*
X1062520Y602205D01*
D02*
G37*
G36*
X1051520D02*
X1050148Y601932D01*
X1048985Y601155D01*
X1048208Y599991D01*
X1047935Y598620D01*
X1048208Y597248D01*
X1048985Y596085D01*
X1050148Y595308D01*
X1051520Y595035D01*
X1052892Y595308D01*
X1054055Y596085D01*
X1054832Y597248D01*
X1055105Y598620D01*
X1054832Y599991D01*
X1054055Y601155D01*
X1052892Y601932D01*
X1051520Y602205D01*
D02*
G37*
G36*
X987950Y595112D02*
Y591455D01*
X991606D01*
X991465Y592168D01*
X990342Y593848D01*
X988662Y594971D01*
X987950Y595112D01*
D02*
G37*
G36*
X985409D02*
X984697Y594971D01*
X983017Y593848D01*
X981894Y592168D01*
X981753Y591455D01*
X985409D01*
Y595112D01*
D02*
G37*
G36*
X991606Y588915D02*
X987950D01*
Y585259D01*
X988662Y585400D01*
X990342Y586523D01*
X991465Y588203D01*
X991606Y588915D01*
D02*
G37*
G36*
X985409D02*
X981753D01*
X981894Y588203D01*
X983017Y586523D01*
X984697Y585400D01*
X985409Y585259D01*
Y588915D01*
D02*
G37*
G36*
X1073520Y591205D02*
X1072148Y590932D01*
X1070985Y590155D01*
X1070208Y588992D01*
X1069935Y587620D01*
X1070208Y586248D01*
X1070985Y585085D01*
X1072148Y584308D01*
X1073520Y584035D01*
X1074892Y584308D01*
X1076055Y585085D01*
X1076832Y586248D01*
X1077105Y587620D01*
X1076832Y588992D01*
X1076055Y590155D01*
X1074892Y590932D01*
X1073520Y591205D01*
D02*
G37*
G36*
X1062520D02*
X1061148Y590932D01*
X1059985Y590155D01*
X1059208Y588992D01*
X1058935Y587620D01*
X1059208Y586248D01*
X1059985Y585085D01*
X1061148Y584308D01*
X1062520Y584035D01*
X1063892Y584308D01*
X1065055Y585085D01*
X1065832Y586248D01*
X1066105Y587620D01*
X1065832Y588992D01*
X1065055Y590155D01*
X1063892Y590932D01*
X1062520Y591205D01*
D02*
G37*
G36*
X1051520D02*
X1050148Y590932D01*
X1048985Y590155D01*
X1048208Y588992D01*
X1047935Y587620D01*
X1048208Y586248D01*
X1048985Y585085D01*
X1050148Y584308D01*
X1051520Y584035D01*
X1052892Y584308D01*
X1054055Y585085D01*
X1054832Y586248D01*
X1055105Y587620D01*
X1054832Y588992D01*
X1054055Y590155D01*
X1052892Y590932D01*
X1051520Y591205D01*
D02*
G37*
G36*
X1121918Y581730D02*
X1120530Y581454D01*
X1119354Y580668D01*
X1118568Y579492D01*
X1118292Y578104D01*
X1118568Y576716D01*
X1119354Y575540D01*
X1120530Y574754D01*
X1121918Y574478D01*
X1123306Y574754D01*
X1124482Y575540D01*
X1124553Y575646D01*
X1201156D01*
X1201396Y575286D01*
X1202572Y574500D01*
X1203960Y574224D01*
X1205348Y574500D01*
X1206524Y575286D01*
X1207310Y576463D01*
X1207586Y577850D01*
X1207310Y579238D01*
X1206524Y580414D01*
X1205348Y581200D01*
X1203960Y581476D01*
X1202572Y581200D01*
X1201396Y580414D01*
X1201325Y580308D01*
X1124722D01*
X1124482Y580668D01*
X1123306Y581454D01*
X1121918Y581730D01*
D02*
G37*
G36*
X1073520Y580205D02*
X1072148Y579932D01*
X1070985Y579155D01*
X1070208Y577991D01*
X1069935Y576620D01*
X1070208Y575248D01*
X1070985Y574085D01*
X1072148Y573308D01*
X1073520Y573035D01*
X1074892Y573308D01*
X1076055Y574085D01*
X1076832Y575248D01*
X1077105Y576620D01*
X1076832Y577991D01*
X1076055Y579155D01*
X1074892Y579932D01*
X1073520Y580205D01*
D02*
G37*
G36*
X1062520D02*
X1061148Y579932D01*
X1059985Y579155D01*
X1059208Y577991D01*
X1058935Y576620D01*
X1059208Y575248D01*
X1059985Y574085D01*
X1061148Y573308D01*
X1062520Y573035D01*
X1063892Y573308D01*
X1065055Y574085D01*
X1065832Y575248D01*
X1066105Y576620D01*
X1065832Y577991D01*
X1065055Y579155D01*
X1063892Y579932D01*
X1062520Y580205D01*
D02*
G37*
G36*
X1051520D02*
X1050148Y579932D01*
X1048985Y579155D01*
X1048208Y577991D01*
X1047935Y576620D01*
X1048208Y575248D01*
X1048985Y574085D01*
X1050148Y573308D01*
X1051520Y573035D01*
X1052892Y573308D01*
X1054055Y574085D01*
X1054832Y575248D01*
X1055105Y576620D01*
X1054832Y577991D01*
X1054055Y579155D01*
X1052892Y579932D01*
X1051520Y580205D01*
D02*
G37*
G36*
X1010920Y573887D02*
Y570230D01*
X1014577D01*
X1014435Y570942D01*
X1013313Y572622D01*
X1011632Y573745D01*
X1010920Y573887D01*
D02*
G37*
G36*
X1008380D02*
X1007668Y573745D01*
X1005987Y572622D01*
X1004865Y570942D01*
X1004723Y570230D01*
X1008380D01*
Y573887D01*
D02*
G37*
G36*
X1014577Y567690D02*
X1010920D01*
Y564033D01*
X1011632Y564175D01*
X1013313Y565298D01*
X1014435Y566978D01*
X1014577Y567690D01*
D02*
G37*
G36*
X1008380D02*
X1004723D01*
X1004865Y566978D01*
X1005987Y565298D01*
X1007668Y564175D01*
X1008380Y564033D01*
Y567690D01*
D02*
G37*
G36*
X972779Y567195D02*
Y563539D01*
X976436D01*
X976295Y564251D01*
X975172Y565931D01*
X973492Y567054D01*
X972779Y567195D01*
D02*
G37*
G36*
X970239D02*
X969527Y567054D01*
X967847Y565931D01*
X966724Y564251D01*
X966583Y563539D01*
X970239D01*
Y567195D01*
D02*
G37*
G36*
X1073520Y569205D02*
X1072148Y568932D01*
X1070985Y568155D01*
X1070208Y566992D01*
X1069935Y565620D01*
X1070208Y564248D01*
X1070985Y563085D01*
X1072148Y562308D01*
X1073520Y562035D01*
X1074892Y562308D01*
X1076055Y563085D01*
X1076832Y564248D01*
X1077105Y565620D01*
X1076832Y566992D01*
X1076055Y568155D01*
X1074892Y568932D01*
X1073520Y569205D01*
D02*
G37*
G36*
X1062520D02*
X1061148Y568932D01*
X1059985Y568155D01*
X1059208Y566992D01*
X1058935Y565620D01*
X1059208Y564248D01*
X1059985Y563085D01*
X1061148Y562308D01*
X1062520Y562035D01*
X1063892Y562308D01*
X1065055Y563085D01*
X1065832Y564248D01*
X1066105Y565620D01*
X1065832Y566992D01*
X1065055Y568155D01*
X1063892Y568932D01*
X1062520Y569205D01*
D02*
G37*
G36*
X1051520D02*
X1050148Y568932D01*
X1048985Y568155D01*
X1048208Y566992D01*
X1047935Y565620D01*
X1048208Y564248D01*
X1048985Y563085D01*
X1050148Y562308D01*
X1051520Y562035D01*
X1052892Y562308D01*
X1054055Y563085D01*
X1054832Y564248D01*
X1055105Y565620D01*
X1054832Y566992D01*
X1054055Y568155D01*
X1052892Y568932D01*
X1051520Y569205D01*
D02*
G37*
G36*
X976436Y560998D02*
X972779D01*
Y557342D01*
X973492Y557483D01*
X975172Y558606D01*
X976295Y560286D01*
X976436Y560998D01*
D02*
G37*
G36*
X970239D02*
X966583D01*
X966724Y560286D01*
X967847Y558606D01*
X969527Y557483D01*
X970239Y557342D01*
Y560998D01*
D02*
G37*
G36*
X1073520Y558204D02*
X1072148Y557932D01*
X1070985Y557155D01*
X1070208Y555992D01*
X1069935Y554620D01*
X1070208Y553248D01*
X1070985Y552085D01*
X1072148Y551308D01*
X1073520Y551035D01*
X1074892Y551308D01*
X1076055Y552085D01*
X1076832Y553248D01*
X1077105Y554620D01*
X1076832Y555992D01*
X1076055Y557155D01*
X1074892Y557932D01*
X1073520Y558204D01*
D02*
G37*
G36*
X1062520D02*
X1061148Y557932D01*
X1059985Y557155D01*
X1059208Y555992D01*
X1058935Y554620D01*
X1059208Y553248D01*
X1059985Y552085D01*
X1061148Y551308D01*
X1062520Y551035D01*
X1063892Y551308D01*
X1065055Y552085D01*
X1065832Y553248D01*
X1066105Y554620D01*
X1065832Y555992D01*
X1065055Y557155D01*
X1063892Y557932D01*
X1062520Y558204D01*
D02*
G37*
G36*
X1051520D02*
X1050148Y557932D01*
X1048985Y557155D01*
X1048208Y555992D01*
X1047935Y554620D01*
X1048208Y553248D01*
X1048985Y552085D01*
X1050148Y551308D01*
X1051520Y551035D01*
X1052892Y551308D01*
X1054055Y552085D01*
X1054832Y553248D01*
X1055105Y554620D01*
X1054832Y555992D01*
X1054055Y557155D01*
X1052892Y557932D01*
X1051520Y558204D01*
D02*
G37*
G36*
X1377797Y527304D02*
X1374140D01*
Y523647D01*
X1374852Y523789D01*
X1376532Y524911D01*
X1377655Y526592D01*
X1377797Y527304D01*
D02*
G37*
G36*
X1406144Y520547D02*
Y516890D01*
X1409801D01*
X1409659Y517602D01*
X1408537Y519282D01*
X1406856Y520405D01*
X1406144Y520547D01*
D02*
G37*
G36*
X1403604D02*
X1402892Y520405D01*
X1401212Y519282D01*
X1400089Y517602D01*
X1399947Y516890D01*
X1403604D01*
Y520547D01*
D02*
G37*
G36*
X1409801Y514350D02*
X1406144D01*
Y510693D01*
X1406856Y510835D01*
X1408537Y511958D01*
X1409659Y513638D01*
X1409801Y514350D01*
D02*
G37*
G36*
X1403604D02*
X1399947D01*
X1400089Y513638D01*
X1401212Y511958D01*
X1402892Y510835D01*
X1403604Y510693D01*
Y514350D01*
D02*
G37*
G36*
X1426210Y478637D02*
Y474980D01*
X1429867D01*
X1429725Y475692D01*
X1428602Y477373D01*
X1426922Y478495D01*
X1426210Y478637D01*
D02*
G37*
G36*
X1423670D02*
X1422958Y478495D01*
X1421277Y477373D01*
X1420155Y475692D01*
X1420013Y474980D01*
X1423670D01*
Y478637D01*
D02*
G37*
G36*
X1405890D02*
Y474980D01*
X1409547D01*
X1409405Y475692D01*
X1408282Y477373D01*
X1406602Y478495D01*
X1405890Y478637D01*
D02*
G37*
G36*
X1403350D02*
X1402638Y478495D01*
X1400957Y477373D01*
X1399835Y475692D01*
X1399693Y474980D01*
X1403350D01*
Y478637D01*
D02*
G37*
G36*
X1429867Y472440D02*
X1426210D01*
Y468783D01*
X1426922Y468925D01*
X1428602Y470047D01*
X1429725Y471728D01*
X1429867Y472440D01*
D02*
G37*
G36*
X1423670D02*
X1420013D01*
X1420155Y471728D01*
X1421277Y470047D01*
X1422958Y468925D01*
X1423670Y468783D01*
Y472440D01*
D02*
G37*
G36*
X1409547D02*
X1405890D01*
Y468783D01*
X1406602Y468925D01*
X1408282Y470047D01*
X1409405Y471728D01*
X1409547Y472440D01*
D02*
G37*
G36*
X1403350D02*
X1399693D01*
X1399835Y471728D01*
X1400957Y470047D01*
X1402638Y468925D01*
X1403350Y468783D01*
Y472440D01*
D02*
G37*
G36*
X1073150Y468477D02*
Y464820D01*
X1076807D01*
X1076665Y465532D01*
X1075543Y467212D01*
X1073862Y468335D01*
X1073150Y468477D01*
D02*
G37*
G36*
X1070610D02*
X1069898Y468335D01*
X1068217Y467212D01*
X1067095Y465532D01*
X1066953Y464820D01*
X1070610D01*
Y468477D01*
D02*
G37*
G36*
X1385824Y467207D02*
Y463550D01*
X1389481D01*
X1389339Y464262D01*
X1388217Y465942D01*
X1386536Y467065D01*
X1385824Y467207D01*
D02*
G37*
G36*
X1383284D02*
X1382572Y467065D01*
X1380892Y465942D01*
X1379769Y464262D01*
X1379627Y463550D01*
X1383284D01*
Y467207D01*
D02*
G37*
G36*
X1076807Y462280D02*
X1073150D01*
Y458623D01*
X1073862Y458765D01*
X1075543Y459888D01*
X1076665Y461568D01*
X1076807Y462280D01*
D02*
G37*
G36*
X1070610D02*
X1066953D01*
X1067095Y461568D01*
X1068217Y459888D01*
X1069898Y458765D01*
X1070610Y458623D01*
Y462280D01*
D02*
G37*
G36*
X1389481Y461010D02*
X1385824D01*
Y457353D01*
X1386536Y457495D01*
X1388217Y458618D01*
X1389339Y460298D01*
X1389481Y461010D01*
D02*
G37*
G36*
X1383284D02*
X1379627D01*
X1379769Y460298D01*
X1380892Y458618D01*
X1382572Y457495D01*
X1383284Y457353D01*
Y461010D01*
D02*
G37*
G36*
X1021460Y360234D02*
Y349070D01*
X1027291D01*
Y353300D01*
X1027049Y355138D01*
X1026339Y356851D01*
X1025211Y358321D01*
X1023740Y359450D01*
X1022028Y360159D01*
X1021460Y360234D01*
D02*
G37*
G36*
X934960D02*
Y349070D01*
X940790D01*
Y353300D01*
X940549Y355138D01*
X939839Y356851D01*
X938711Y358321D01*
X937240Y359450D01*
X935528Y360159D01*
X934960Y360234D01*
D02*
G37*
G36*
X1018920D02*
X1018352Y360159D01*
X1016640Y359450D01*
X1015169Y358321D01*
X1014041Y356851D01*
X1013331Y355138D01*
X1013089Y353300D01*
Y349070D01*
X1018920D01*
Y360234D01*
D02*
G37*
G36*
X932420D02*
X931852Y360159D01*
X930139Y359450D01*
X928669Y358321D01*
X927540Y356851D01*
X926831Y355138D01*
X926589Y353300D01*
Y349070D01*
X932420D01*
Y360234D01*
D02*
G37*
G36*
X1020190Y347800D02*
D01*
Y346530D01*
X1013089D01*
Y342300D01*
X1013331Y340462D01*
X1013450Y340176D01*
X1012102Y338054D01*
X1010006Y338126D01*
X1009040Y340460D01*
X1009623Y341333D01*
X1009935Y342900D01*
X1009623Y344467D01*
X1008735Y345795D01*
X1007407Y346683D01*
X1005840Y346995D01*
X1004273Y346683D01*
X1002945Y345795D01*
X1002057Y344467D01*
X1001745Y342900D01*
X1002057Y341333D01*
X1002830Y340176D01*
X1002632Y339284D01*
X1001918Y337636D01*
X951962D01*
X951248Y339284D01*
X951049Y340176D01*
X951823Y341333D01*
X952134Y342900D01*
X951823Y344467D01*
X950935Y345795D01*
X949607Y346683D01*
X948040Y346995D01*
X946473Y346683D01*
X945144Y345795D01*
X944257Y344467D01*
X943945Y342900D01*
X944257Y341333D01*
X944840Y340460D01*
X943873Y338126D01*
X941778Y338054D01*
X940430Y340176D01*
X940549Y340462D01*
X940790Y342300D01*
Y346530D01*
X933690D01*
X926589D01*
Y342300D01*
X926831Y340462D01*
X926950Y340176D01*
X925336Y337636D01*
X614296D01*
Y341566D01*
X599184D01*
Y326454D01*
X614296D01*
Y330384D01*
X1034131D01*
X1034339Y330176D01*
X1034339Y330176D01*
X1035515Y329390D01*
X1036903Y329114D01*
X1036903Y329114D01*
X1037590D01*
X1038978Y329390D01*
X1040154Y330176D01*
X1040940Y331353D01*
X1041216Y332740D01*
X1040940Y334128D01*
X1040154Y335304D01*
X1038978Y336090D01*
X1038607Y336163D01*
X1038196Y336574D01*
X1037020Y337360D01*
X1035633Y337636D01*
X1035632Y337636D01*
X1028544D01*
X1026930Y340176D01*
X1027049Y340462D01*
X1027291Y342300D01*
Y346530D01*
X1020190D01*
Y347800D01*
D02*
G37*
G36*
X566740Y341631D02*
X564767Y341371D01*
X562929Y340610D01*
X561351Y339399D01*
X560140Y337821D01*
X559379Y335983D01*
X559119Y334010D01*
X559379Y332038D01*
X560140Y330199D01*
X561351Y328621D01*
X562929Y327410D01*
X564767Y326648D01*
X566740Y326389D01*
X568713Y326648D01*
X570551Y327410D01*
X572129Y328621D01*
X573340Y330199D01*
X574101Y332038D01*
X574361Y334010D01*
X574101Y335983D01*
X573340Y337821D01*
X572129Y339399D01*
X570551Y340610D01*
X568713Y341371D01*
X566740Y341631D01*
D02*
G37*
G36*
X1445460Y333084D02*
X1443308Y332656D01*
X1441483Y331437D01*
X1440264Y329612D01*
X1439836Y327460D01*
X1440264Y325308D01*
X1441483Y323483D01*
X1443308Y322264D01*
X1445460Y321836D01*
X1447612Y322264D01*
X1449437Y323483D01*
X1450656Y325308D01*
X1451084Y327460D01*
X1450656Y329612D01*
X1449437Y331437D01*
X1447612Y332656D01*
X1445460Y333084D01*
D02*
G37*
G36*
X1365460D02*
X1363308Y332656D01*
X1361483Y331437D01*
X1360264Y329612D01*
X1359836Y327460D01*
X1360264Y325308D01*
X1361483Y323483D01*
X1363308Y322264D01*
X1365460Y321836D01*
X1367613Y322264D01*
X1369437Y323483D01*
X1370656Y325308D01*
X1371084Y327460D01*
X1370656Y329612D01*
X1369437Y331437D01*
X1367613Y332656D01*
X1365460Y333084D01*
D02*
G37*
G36*
X1270810Y325810D02*
X1261920D01*
Y316920D01*
X1270810D01*
Y325810D01*
D02*
G37*
G36*
X1259380D02*
X1250490D01*
Y316920D01*
X1259380D01*
Y325810D01*
D02*
G37*
G36*
X1021460Y317034D02*
Y307370D01*
X1027291D01*
Y310100D01*
X1027049Y311938D01*
X1026339Y313650D01*
X1025211Y315121D01*
X1023740Y316249D01*
X1022028Y316959D01*
X1021460Y317034D01*
D02*
G37*
G36*
X934960D02*
Y307370D01*
X940790D01*
Y310100D01*
X940549Y311938D01*
X939839Y313650D01*
X938711Y315121D01*
X937240Y316249D01*
X935528Y316959D01*
X934960Y317034D01*
D02*
G37*
G36*
X1018920D02*
X1018352Y316959D01*
X1016640Y316249D01*
X1015169Y315121D01*
X1014041Y313650D01*
X1013331Y311938D01*
X1013089Y310100D01*
Y307370D01*
X1018920D01*
Y317034D01*
D02*
G37*
G36*
X932420D02*
X931852Y316959D01*
X930139Y316249D01*
X928669Y315121D01*
X927540Y313650D01*
X926831Y311938D01*
X926589Y310100D01*
Y307370D01*
X932420D01*
Y317034D01*
D02*
G37*
G36*
X1243886Y324286D02*
X1226614D01*
Y307014D01*
X1243886D01*
Y324286D01*
D02*
G37*
G36*
X1218518Y324254D02*
X1201246D01*
Y306982D01*
X1218518D01*
Y324254D01*
D02*
G37*
G36*
X1193118D02*
X1175846D01*
Y306982D01*
X1193118D01*
Y324254D01*
D02*
G37*
G36*
X1270810Y314380D02*
X1261920D01*
Y305490D01*
X1270810D01*
Y314380D01*
D02*
G37*
G36*
X1259380D02*
X1250490D01*
Y305490D01*
X1259380D01*
Y314380D01*
D02*
G37*
G36*
X1027291Y304830D02*
X1021460D01*
Y295166D01*
X1022028Y295241D01*
X1023740Y295951D01*
X1025211Y297079D01*
X1026339Y298550D01*
X1027049Y300262D01*
X1027291Y302100D01*
Y304830D01*
D02*
G37*
G36*
X940790D02*
X934960D01*
Y295166D01*
X935528Y295241D01*
X937240Y295951D01*
X938711Y297079D01*
X939839Y298550D01*
X940549Y300262D01*
X940790Y302100D01*
Y304830D01*
D02*
G37*
G36*
X1018920D02*
X1013089D01*
Y302100D01*
X1013331Y300262D01*
X1014041Y298550D01*
X1015169Y297079D01*
X1016640Y295951D01*
X1018352Y295241D01*
X1018920Y295166D01*
Y304830D01*
D02*
G37*
G36*
X932420D02*
X926589D01*
Y302100D01*
X926831Y300262D01*
X927540Y298550D01*
X928669Y297079D01*
X930139Y295951D01*
X931852Y295241D01*
X932420Y295166D01*
Y304830D01*
D02*
G37*
%LPD*%
D14*
X1194054Y937693D02*
X1195070Y936677D01*
Y935990D02*
Y936677D01*
X1194054Y937693D02*
Y1003300D01*
X557082Y999938D02*
X1005840Y551180D01*
X557082Y999938D02*
Y1018346D01*
X1112520Y676910D02*
Y755904D01*
X1054020Y618664D02*
X1054274D01*
X1112520Y676910D01*
X1026414Y842010D02*
X1112520Y755904D01*
X1109218Y597154D02*
X1346200D01*
X1121918Y578104D02*
X1122045Y577977D01*
X1203833D01*
X1203960Y577850D01*
X1226080Y528088D02*
X1226566Y528574D01*
X1219273Y628977D02*
X1222395D01*
X1191006Y600710D02*
X1219273Y628977D01*
X1221583Y528088D02*
X1226080D01*
X1225879Y632460D02*
X1226566D01*
X1218005Y524510D02*
X1221583Y528088D01*
X1222395Y628977D02*
X1225879Y632460D01*
X1029194Y524510D02*
X1218005D01*
X1129930Y666634D02*
Y667650D01*
X1187450Y725170D01*
X1072896Y609600D02*
X1129930Y666634D01*
X535432Y1090930D02*
X796290D01*
X810260Y1076960D01*
X969440Y376174D02*
X1055624D01*
X919480Y842010D02*
X1026414D01*
X700278Y549402D02*
X986282D01*
X657860Y591820D02*
X700278Y549402D01*
X897890Y536194D02*
X903224Y530860D01*
X1010920D01*
X1293670Y505968D02*
X1315720Y483918D01*
X1083470Y505968D02*
X1293670D01*
X1034020Y506763D02*
X1082674D01*
X1043940Y515620D02*
X1362306D01*
X1082674Y506763D02*
X1083470Y505968D01*
X1362306Y515620D02*
X1366370Y519684D01*
X1039020Y533400D02*
X1378966D01*
X1404620Y559054D01*
X1203833Y628523D02*
X1203960Y628650D01*
X1104427Y628396D02*
X1104554Y628523D01*
X1203833D01*
X1105408Y600710D02*
X1191006D01*
X667052Y543306D02*
X1028570D01*
X1035050Y549786D01*
Y599918D01*
X1036508Y601375D01*
X1011936Y618744D02*
X1016000Y622808D01*
X642620Y379730D02*
X643307D01*
X644577Y381000D02*
X1002505D01*
X643307Y379730D02*
X644577Y381000D01*
X1055624Y376174D02*
X1121918Y442468D01*
X1002505Y381000D02*
X1007444Y385939D01*
X998220Y385826D02*
Y507238D01*
X1007444Y385939D02*
Y455168D01*
X998220Y507238D02*
X1037082Y546100D01*
X1007444Y455168D02*
X1054100Y501824D01*
X1121918Y442468D02*
Y492887D01*
X906526Y820420D02*
X967486Y759460D01*
X1042162Y622808D02*
X1055370Y609600D01*
X1016000Y622808D02*
X1042162D01*
X1036508Y601375D02*
Y617982D01*
X1093470Y574120D02*
Y588772D01*
X1105408Y600710D01*
X1055370Y609600D02*
X1072896D01*
X1111758Y560578D02*
Y591074D01*
X1097280Y546100D02*
X1111758Y560578D01*
X1037082Y546100D02*
X1097280D01*
X967486Y759460D02*
X1096264D01*
X1047750Y627126D02*
Y710946D01*
X1096264Y759460D01*
X1098296Y579374D02*
Y586232D01*
X1109218Y597154D01*
D105*
X827890Y1207920D02*
X873252Y1162558D01*
X816277Y1207920D02*
X827890D01*
X873252Y1162558D02*
X1369060D01*
X1210310Y759460D02*
X1248410D01*
X1154430D02*
X1210310D01*
X1010394Y628124D02*
Y661144D01*
X606740Y334010D02*
X1035633D01*
X1036903Y332740D01*
X1037590D01*
X1369060Y1162558D02*
X1419860Y1111758D01*
D110*
X1009040Y1121410D02*
D03*
Y1101410D02*
D03*
Y1231410D02*
D03*
Y1211410D02*
D03*
X1209040Y1231410D02*
D03*
Y1211410D02*
D03*
Y1121410D02*
D03*
Y1101410D02*
D03*
X942160Y1204190D02*
D03*
X916760D02*
D03*
X942160Y1234190D02*
D03*
X916760D02*
D03*
X810260Y1076960D02*
D03*
Y1102360D02*
D03*
D111*
X606740Y334010D02*
D03*
D112*
X566740D02*
D03*
D113*
X1235250Y315650D02*
D03*
D03*
X1184482Y315618D02*
D03*
D03*
X1209882D02*
D03*
X1260650Y315650D02*
D03*
D114*
X1020190Y306100D02*
D03*
X933690D02*
D03*
D115*
X1020190Y347800D02*
D03*
X933690D02*
D03*
D116*
X1005840Y342900D02*
D03*
X948040D02*
D03*
D117*
X1422400Y1205230D02*
D03*
D118*
X1350400D02*
D03*
D119*
X967560Y1204190D02*
D03*
Y1234190D02*
D03*
D120*
X810260Y1051560D02*
D03*
D121*
X986680Y590186D02*
D03*
X971509Y562268D02*
D03*
X816277Y1207920D02*
D03*
X557082Y1018346D02*
D03*
X1112520Y676910D02*
D03*
X1346200Y597154D02*
D03*
X1203960Y577850D02*
D03*
X1226566Y632460D02*
D03*
Y528574D02*
D03*
X1187450Y725170D02*
D03*
X1195070Y935990D02*
D03*
X969440Y376174D02*
D03*
X657860Y591820D02*
D03*
X1005840Y551180D02*
D03*
X1010920Y530860D02*
D03*
X1029194Y524510D02*
D03*
X1085469Y510794D02*
D03*
X1043940Y515620D02*
D03*
X1372870Y528574D02*
D03*
X1039020Y533400D02*
D03*
X1121918Y578104D02*
D03*
X1203960Y628650D02*
D03*
X1010394Y661144D02*
D03*
Y628124D02*
D03*
X667052Y543306D02*
D03*
X897890Y536194D02*
D03*
X1011936Y618744D02*
D03*
X1104900Y607060D02*
D03*
X1071880Y463550D02*
D03*
X642620Y379730D02*
D03*
X998220Y385826D02*
D03*
X906526Y820420D02*
D03*
X1056894Y742950D02*
D03*
X1121918Y703580D02*
D03*
Y492887D02*
D03*
X1404620Y559054D02*
D03*
X881380Y843280D02*
D03*
X1068324Y678180D02*
D03*
X919480Y842010D02*
D03*
X1024890Y628650D02*
D03*
X1404620Y473710D02*
D03*
X1285494Y778510D02*
D03*
X1009650Y568960D02*
D03*
X986282Y549402D02*
D03*
X1404874Y515620D02*
D03*
X1424940Y473710D02*
D03*
X1384554Y462280D02*
D03*
X1036508Y617982D02*
D03*
X1194054Y1003300D02*
D03*
X1238504Y831850D02*
D03*
Y800100D02*
D03*
X1037590Y332740D02*
D03*
X1419860Y1111758D02*
D03*
X1366370Y519684D02*
D03*
X1034020Y506763D02*
D03*
X1315720Y483918D02*
D03*
X1093470Y574120D02*
D03*
X1111758Y591074D02*
D03*
X1054020Y618664D02*
D03*
X1096264Y759460D02*
D03*
X535432Y1090930D02*
D03*
X1047750Y627126D02*
D03*
X1104427Y628396D02*
D03*
X1098296Y579374D02*
D03*
X1054100Y501824D02*
D03*
D122*
X1248410Y759460D02*
D03*
X1210310D02*
D03*
X1154430D02*
D03*
D123*
X1029520Y598620D02*
D03*
X1040520D02*
D03*
X1051520D02*
D03*
X1062520D02*
D03*
X1073520D02*
D03*
X1029520Y587620D02*
D03*
X1040520D02*
D03*
X1051520D02*
D03*
X1062520D02*
D03*
X1073520D02*
D03*
X1029520Y576620D02*
D03*
X1040520D02*
D03*
X1051520D02*
D03*
X1062520D02*
D03*
X1073520D02*
D03*
X1029520Y565620D02*
D03*
X1040520D02*
D03*
X1051520D02*
D03*
X1062520D02*
D03*
X1073520D02*
D03*
X1029520Y554620D02*
D03*
X1040520D02*
D03*
X1051520D02*
D03*
X1062520D02*
D03*
X1073520D02*
D03*
M02*
