G04*
G04 #@! TF.GenerationSoftware,Altium Limited,Altium Designer,25.0.2 (28)*
G04*
G04 Layer_Color=8388736*
%FSLAX44Y44*%
%MOMM*%
G71*
G04*
G04 #@! TF.SameCoordinates,E8353DEC-B648-43D7-BF79-564EE0BAD765*
G04*
G04*
G04 #@! TF.FilePolarity,Negative*
G04*
G01*
G75*
%ADD34R,1.6000X1.4000*%
%ADD35R,0.7000X1.6000*%
%ADD36R,1.2000X1.4000*%
%ADD37R,1.2000X2.2000*%
%ADD55R,1.0922X1.3462*%
%ADD56R,2.5432X1.7332*%
%ADD57R,1.7132X2.5132*%
%ADD58R,1.3462X1.0922*%
%ADD59R,0.7620X1.5240*%
%ADD60R,1.1332X1.3462*%
%ADD61O,1.0532X0.4532*%
%ADD62O,0.4532X1.0532*%
%ADD63R,5.8032X5.8032*%
%ADD64R,1.3462X1.1332*%
%ADD65R,1.2532X0.8532*%
%ADD66R,0.8532X1.5532*%
%ADD67R,1.2192X0.9032*%
%ADD68R,0.8032X0.9032*%
%ADD69R,0.7000X1.4970*%
%ADD70R,0.4000X1.4970*%
G04:AMPARAMS|DCode=71|XSize=1.5132mm|YSize=1.1332mm|CornerRadius=0.1714mm|HoleSize=0mm|Usage=FLASHONLY|Rotation=270.000|XOffset=0mm|YOffset=0mm|HoleType=Round|Shape=RoundedRectangle|*
%AMROUNDEDRECTD71*
21,1,1.5132,0.7905,0,0,270.0*
21,1,1.1705,1.1332,0,0,270.0*
1,1,0.3427,-0.3953,-0.5853*
1,1,0.3427,-0.3953,0.5853*
1,1,0.3427,0.3953,0.5853*
1,1,0.3427,0.3953,-0.5853*
%
%ADD71ROUNDEDRECTD71*%
G04:AMPARAMS|DCode=72|XSize=1.5132mm|YSize=3.4432mm|CornerRadius=0.1999mm|HoleSize=0mm|Usage=FLASHONLY|Rotation=270.000|XOffset=0mm|YOffset=0mm|HoleType=Round|Shape=RoundedRectangle|*
%AMROUNDEDRECTD72*
21,1,1.5132,3.0435,0,0,270.0*
21,1,1.1135,3.4432,0,0,270.0*
1,1,0.3997,-1.5218,-0.5568*
1,1,0.3997,-1.5218,0.5568*
1,1,0.3997,1.5218,0.5568*
1,1,0.3997,1.5218,-0.5568*
%
%ADD72ROUNDEDRECTD72*%
%ADD73R,0.5032X0.7282*%
%ADD74R,0.6282X0.5032*%
%ADD75R,0.5532X0.7032*%
%ADD76R,0.6032X1.5532*%
%ADD77R,0.8032X1.5532*%
%ADD78R,1.2000X1.4000*%
%ADD79R,1.4000X1.2000*%
%ADD80R,2.2352X1.3462*%
%ADD81R,2.1032X1.5032*%
%ADD82R,1.7272X1.3462*%
%ADD83R,2.4032X1.2532*%
%ADD84R,1.2532X1.2032*%
%ADD85R,1.1332X1.2192*%
G04:AMPARAMS|DCode=86|XSize=1.7032mm|YSize=0.6932mm|CornerRadius=0.2241mm|HoleSize=0mm|Usage=FLASHONLY|Rotation=270.000|XOffset=0mm|YOffset=0mm|HoleType=Round|Shape=RoundedRectangle|*
%AMROUNDEDRECTD86*
21,1,1.7032,0.2450,0,0,270.0*
21,1,1.2550,0.6932,0,0,270.0*
1,1,0.4482,-0.1225,-0.6275*
1,1,0.4482,-0.1225,0.6275*
1,1,0.4482,0.1225,0.6275*
1,1,0.4482,0.1225,-0.6275*
%
%ADD86ROUNDEDRECTD86*%
%ADD87R,1.7032X1.0032*%
%ADD88C,1.8000*%
%ADD89R,1.5112X1.5112*%
%ADD90C,1.5112*%
%ADD91R,1.7272X1.7272*%
%ADD92O,1.1032X1.9032*%
%ADD93O,1.1032X2.2032*%
%ADD94C,0.8032*%
%ADD95R,6.2032X6.2032*%
%ADD96C,6.2032*%
%ADD97R,1.8000X1.8000*%
%ADD98R,1.8000X1.8000*%
%ADD99C,0.7112*%
%ADD100C,1.2192*%
%ADD101C,0.7032*%
D34*
X1483460Y427460D02*
D03*
D35*
X1393460Y432460D02*
D03*
X1404460D02*
D03*
X1415460D02*
D03*
X1426460D02*
D03*
X1437460D02*
D03*
X1382460D02*
D03*
X1371460D02*
D03*
X1360460D02*
D03*
X1349460D02*
D03*
D36*
X1337460Y426460D02*
D03*
D37*
Y331460D02*
D03*
X1492460D02*
D03*
D55*
X957430Y588058D02*
D03*
Y602790D02*
D03*
X1048870Y471218D02*
D03*
Y485950D02*
D03*
X1079350Y471980D02*
D03*
Y486712D02*
D03*
X957430Y572056D02*
D03*
Y557324D02*
D03*
Y541830D02*
D03*
Y527098D02*
D03*
Y617014D02*
D03*
Y631746D02*
D03*
X641405Y595170D02*
D03*
Y580438D02*
D03*
X1370180Y578406D02*
D03*
Y563674D02*
D03*
X1094740Y487426D02*
D03*
Y472694D02*
D03*
X1354940Y563928D02*
D03*
Y578660D02*
D03*
X1339700Y563928D02*
D03*
Y578660D02*
D03*
X1245720Y1145334D02*
D03*
Y1160066D02*
D03*
X1259690Y1145334D02*
D03*
Y1160066D02*
D03*
D56*
X533460Y1205230D02*
D03*
Y1179830D02*
D03*
Y1154430D02*
D03*
Y1129030D02*
D03*
Y1103630D02*
D03*
Y1078230D02*
D03*
Y1052830D02*
D03*
X772160Y1205230D02*
D03*
Y1179830D02*
D03*
Y1154430D02*
D03*
Y1129030D02*
D03*
Y1103630D02*
D03*
Y1078230D02*
D03*
Y1052830D02*
D03*
D57*
X585110Y849530D02*
D03*
X720510D02*
D03*
X610510D02*
D03*
X695110D02*
D03*
D58*
X971171Y443230D02*
D03*
X956439D02*
D03*
X997204Y744220D02*
D03*
X1011936D02*
D03*
X997204Y759254D02*
D03*
X1011936D02*
D03*
X1196190Y990600D02*
D03*
X1210922D02*
D03*
X852424Y854710D02*
D03*
X867156D02*
D03*
X1026772Y780082D02*
D03*
X1041504D02*
D03*
X1054354Y693420D02*
D03*
X1069086D02*
D03*
X852424Y869950D02*
D03*
X867156D02*
D03*
X1142746Y654050D02*
D03*
X1128014D02*
D03*
Y622300D02*
D03*
X1142746D02*
D03*
X1128014Y638810D02*
D03*
X1142746D02*
D03*
X1210922Y976424D02*
D03*
X1196190D02*
D03*
X971171Y458470D02*
D03*
X956439D02*
D03*
X1343660Y1135380D02*
D03*
X1358392D02*
D03*
X813102Y1207920D02*
D03*
X798370D02*
D03*
X813356Y1192680D02*
D03*
X798624D02*
D03*
X813102Y1177440D02*
D03*
X798370D02*
D03*
X1196190Y962454D02*
D03*
X1210922D02*
D03*
Y948484D02*
D03*
X1196190D02*
D03*
X1073254Y780590D02*
D03*
X1058522D02*
D03*
X956439Y427990D02*
D03*
X971171D02*
D03*
D59*
X576834Y412750D02*
D03*
X557530D02*
D03*
X567182Y392430D02*
D03*
D60*
X1064110Y486712D02*
D03*
Y472488D02*
D03*
X641200Y625142D02*
D03*
Y610918D02*
D03*
Y549958D02*
D03*
Y564182D02*
D03*
X1366370Y483918D02*
D03*
Y498142D02*
D03*
X1335890D02*
D03*
Y483918D02*
D03*
X1324610Y578612D02*
D03*
Y564388D02*
D03*
X1351130Y498142D02*
D03*
Y483918D02*
D03*
D61*
X1017270Y604120D02*
D03*
Y599120D02*
D03*
Y594120D02*
D03*
Y589120D02*
D03*
Y584120D02*
D03*
Y579120D02*
D03*
Y574120D02*
D03*
Y569119D02*
D03*
Y564120D02*
D03*
Y559119D02*
D03*
Y554120D02*
D03*
Y549120D02*
D03*
X1085770D02*
D03*
Y554120D02*
D03*
Y559119D02*
D03*
Y564120D02*
D03*
Y569119D02*
D03*
Y574120D02*
D03*
Y579120D02*
D03*
Y584120D02*
D03*
Y589120D02*
D03*
Y594120D02*
D03*
Y599120D02*
D03*
Y604120D02*
D03*
D62*
X1024020Y542370D02*
D03*
X1029020D02*
D03*
X1034020D02*
D03*
X1039020D02*
D03*
X1044020D02*
D03*
X1049020D02*
D03*
X1054020D02*
D03*
X1059020D02*
D03*
X1064020D02*
D03*
X1069020D02*
D03*
X1074020D02*
D03*
X1079020D02*
D03*
Y610870D02*
D03*
X1074020D02*
D03*
X1069020D02*
D03*
X1064020D02*
D03*
X1059020D02*
D03*
X1054020D02*
D03*
X1049020D02*
D03*
X1044020D02*
D03*
X1039020D02*
D03*
X1034020D02*
D03*
X1029020D02*
D03*
X1024020D02*
D03*
D63*
X1051520Y576620D02*
D03*
D64*
X1011428Y728980D02*
D03*
X997204D02*
D03*
X1011428Y713740D02*
D03*
X997204D02*
D03*
X956818Y412750D02*
D03*
X971042D02*
D03*
X852424Y820420D02*
D03*
X866648D02*
D03*
X1068832Y708660D02*
D03*
X1054608D02*
D03*
X1127252Y759460D02*
D03*
X1113028D02*
D03*
X852424Y835660D02*
D03*
X866648D02*
D03*
X573532Y429260D02*
D03*
X559308D02*
D03*
X1113028Y728980D02*
D03*
X1127252D02*
D03*
X1113028Y744220D02*
D03*
X1127252D02*
D03*
D65*
X624280Y545730D02*
D03*
Y567230D02*
D03*
X582780Y545730D02*
D03*
Y567230D02*
D03*
X626820Y592630D02*
D03*
Y614130D02*
D03*
X585320Y592630D02*
D03*
Y614130D02*
D03*
D66*
X1033630Y490330D02*
D03*
Y466330D02*
D03*
D67*
X1196594Y1024730D02*
D03*
X1210818D02*
D03*
D68*
X1203960Y1004570D02*
D03*
D69*
X1008940Y356140D02*
D03*
X1000940D02*
D03*
X952940D02*
D03*
X944940D02*
D03*
D70*
X994440D02*
D03*
X989440D02*
D03*
X984440D02*
D03*
X979440D02*
D03*
X959440D02*
D03*
X964440D02*
D03*
X969440D02*
D03*
X974440D02*
D03*
D71*
X1366560Y1115060D02*
D03*
X1343660D02*
D03*
X1320760D02*
D03*
X1454190Y1113790D02*
D03*
X1431290D02*
D03*
X1408390D02*
D03*
X1282700D02*
D03*
X1259800D02*
D03*
X1236900D02*
D03*
D72*
X1343660Y1048160D02*
D03*
X1431290Y1046890D02*
D03*
X1259800D02*
D03*
D73*
X1042680Y757484D02*
D03*
X1047680D02*
D03*
X1052680D02*
D03*
X1057680D02*
D03*
X1062680D02*
D03*
X1067680D02*
D03*
X1072680D02*
D03*
X1077680D02*
D03*
X1082680D02*
D03*
Y726234D02*
D03*
X1077680D02*
D03*
X1072680D02*
D03*
X1067680D02*
D03*
X1062680D02*
D03*
X1057680D02*
D03*
X1052680D02*
D03*
X1047680D02*
D03*
X1042680D02*
D03*
X1037680D02*
D03*
Y757484D02*
D03*
D74*
X1083305Y749359D02*
D03*
Y744359D02*
D03*
Y739359D02*
D03*
Y734359D02*
D03*
X1037055D02*
D03*
Y739359D02*
D03*
Y744359D02*
D03*
Y749359D02*
D03*
D75*
X887580Y851660D02*
D03*
Y835660D02*
D03*
X907080D02*
D03*
Y851660D02*
D03*
X894080D02*
D03*
Y835660D02*
D03*
X900580Y851660D02*
D03*
Y835660D02*
D03*
D76*
X1418591Y543100D02*
D03*
X1412090D02*
D03*
X1392590D02*
D03*
X1399090D02*
D03*
X1405590D02*
D03*
X1418591Y484599D02*
D03*
X1412090D02*
D03*
X1392590D02*
D03*
X1399090D02*
D03*
X1405590D02*
D03*
D77*
X1426090Y543100D02*
D03*
Y484599D02*
D03*
X1385090Y543100D02*
D03*
Y484599D02*
D03*
D78*
X943319Y574896D02*
D03*
X943482Y552005D02*
D03*
X924410Y574850D02*
D03*
Y551850D02*
D03*
D79*
X941682Y597456D02*
D03*
Y622348D02*
D03*
D80*
X947926Y393954D02*
D03*
X979426D02*
D03*
D81*
X1066646Y857688D02*
D03*
Y802688D02*
D03*
X1034646D02*
D03*
Y857688D02*
D03*
D82*
X1460858Y874570D02*
D03*
Y856570D02*
D03*
D83*
X1484122Y898380D02*
D03*
Y927880D02*
D03*
D84*
X1468872Y913130D02*
D03*
D85*
X1459080Y828850D02*
D03*
Y843074D02*
D03*
D86*
X1256440Y832580D02*
D03*
X1262940D02*
D03*
X1269440D02*
D03*
X1275940D02*
D03*
Y790480D02*
D03*
X1269440D02*
D03*
X1262940D02*
D03*
X1256440D02*
D03*
D87*
X1303298Y918746D02*
D03*
Y907746D02*
D03*
Y896746D02*
D03*
Y885746D02*
D03*
Y874746D02*
D03*
Y844746D02*
D03*
Y833746D02*
D03*
Y822746D02*
D03*
Y811746D02*
D03*
Y800746D02*
D03*
Y789746D02*
D03*
Y778746D02*
D03*
X1425298D02*
D03*
Y789746D02*
D03*
Y800746D02*
D03*
Y811746D02*
D03*
Y822746D02*
D03*
Y833746D02*
D03*
Y844746D02*
D03*
Y874746D02*
D03*
Y885746D02*
D03*
Y896746D02*
D03*
Y907746D02*
D03*
Y918746D02*
D03*
D88*
X1009040Y1121410D02*
D03*
Y1101410D02*
D03*
Y1231410D02*
D03*
Y1211410D02*
D03*
X1209040Y1231410D02*
D03*
Y1211410D02*
D03*
Y1121410D02*
D03*
Y1101410D02*
D03*
X942160Y1204190D02*
D03*
X916760D02*
D03*
X942160Y1234190D02*
D03*
X916760D02*
D03*
X810260Y1076960D02*
D03*
Y1102360D02*
D03*
D89*
X606740Y334010D02*
D03*
D90*
X566740D02*
D03*
D91*
X1235250Y315650D02*
D03*
D03*
X1184482Y315618D02*
D03*
D03*
X1209882D02*
D03*
X1260650Y315650D02*
D03*
D92*
X1020190Y306100D02*
D03*
X933690D02*
D03*
D93*
X1020190Y347800D02*
D03*
X933690D02*
D03*
D94*
X1005840Y342900D02*
D03*
X948040D02*
D03*
D95*
X1422400Y1205230D02*
D03*
D96*
X1350400D02*
D03*
D97*
X967560Y1204190D02*
D03*
Y1234190D02*
D03*
D98*
X810260Y1051560D02*
D03*
D99*
X986680Y590186D02*
D03*
X971509Y562268D02*
D03*
X816277Y1207920D02*
D03*
X557082Y1018346D02*
D03*
X1112520Y676910D02*
D03*
X1346200Y597154D02*
D03*
X1203960Y577850D02*
D03*
X1226566Y632460D02*
D03*
Y528574D02*
D03*
X1187450Y725170D02*
D03*
X1195070Y935990D02*
D03*
X969440Y376174D02*
D03*
X657860Y591820D02*
D03*
X1005840Y551180D02*
D03*
X1010920Y530860D02*
D03*
X1029194Y524510D02*
D03*
X1085469Y510794D02*
D03*
X1043940Y515620D02*
D03*
X1372870Y528574D02*
D03*
X1039020Y533400D02*
D03*
X1121918Y578104D02*
D03*
X1203960Y628650D02*
D03*
X1010394Y661144D02*
D03*
Y628124D02*
D03*
X667052Y543306D02*
D03*
X897890Y536194D02*
D03*
X1011936Y618744D02*
D03*
X1104900Y607060D02*
D03*
X1071880Y463550D02*
D03*
X642620Y379730D02*
D03*
X998220Y385826D02*
D03*
X906526Y820420D02*
D03*
X1056894Y742950D02*
D03*
X1121918Y703580D02*
D03*
Y492887D02*
D03*
X1404620Y559054D02*
D03*
X881380Y843280D02*
D03*
X1068324Y678180D02*
D03*
X919480Y842010D02*
D03*
X1024890Y628650D02*
D03*
X1404620Y473710D02*
D03*
X1285494Y778510D02*
D03*
X1009650Y568960D02*
D03*
X986282Y549402D02*
D03*
X1404874Y515620D02*
D03*
X1424940Y473710D02*
D03*
X1384554Y462280D02*
D03*
X1036508Y617982D02*
D03*
X1194054Y1003300D02*
D03*
X1238504Y831850D02*
D03*
Y800100D02*
D03*
X1037590Y332740D02*
D03*
X1419860Y1111758D02*
D03*
X1366370Y519684D02*
D03*
X1034020Y506763D02*
D03*
X1315720Y483918D02*
D03*
X1093470Y574120D02*
D03*
X1111758Y591074D02*
D03*
X1054020Y618664D02*
D03*
X1096264Y759460D02*
D03*
X535432Y1090930D02*
D03*
X1047750Y627126D02*
D03*
X1104427Y628396D02*
D03*
X1098296Y579374D02*
D03*
X1054100Y501824D02*
D03*
D100*
X1248410Y759460D02*
D03*
X1210310D02*
D03*
X1154430D02*
D03*
D101*
X1029520Y598620D02*
D03*
X1040520D02*
D03*
X1051520D02*
D03*
X1062520D02*
D03*
X1073520D02*
D03*
X1029520Y587620D02*
D03*
X1040520D02*
D03*
X1051520D02*
D03*
X1062520D02*
D03*
X1073520D02*
D03*
X1029520Y576620D02*
D03*
X1040520D02*
D03*
X1051520D02*
D03*
X1062520D02*
D03*
X1073520D02*
D03*
X1029520Y565620D02*
D03*
X1040520D02*
D03*
X1051520D02*
D03*
X1062520D02*
D03*
X1073520D02*
D03*
X1029520Y554620D02*
D03*
X1040520D02*
D03*
X1051520D02*
D03*
X1062520D02*
D03*
X1073520D02*
D03*
M02*
