G04*
G04 #@! TF.GenerationSoftware,Altium Limited,Altium Designer,25.0.2 (28)*
G04*
G04 Layer_Color=8421504*
%FSLAX44Y44*%
%MOMM*%
G71*
G04*
G04 #@! TF.SameCoordinates,E8353DEC-B648-43D7-BF79-564EE0BAD765*
G04*
G04*
G04 #@! TF.FilePolarity,Positive*
G04*
G01*
G75*
%ADD18R,0.8890X1.1430*%
%ADD19R,2.3400X1.5300*%
%ADD20R,1.5100X2.3100*%
%ADD21R,1.1430X0.8890*%
%ADD22R,0.5588X1.3208*%
%ADD23R,0.9300X1.1430*%
%ADD24O,0.8500X0.2500*%
%ADD25O,0.2500X0.8500*%
%ADD26R,5.6000X5.6000*%
%ADD27R,1.1430X0.9300*%
%ADD28R,1.0500X0.6500*%
%ADD29R,0.6500X1.3500*%
%ADD30R,1.0160X0.7000*%
%ADD31R,0.6000X0.7000*%
%ADD32R,0.6000X1.3970*%
%ADD33R,0.3000X1.3970*%
%ADD34R,1.6000X1.4000*%
%ADD35R,0.7000X1.6000*%
%ADD36R,1.2000X1.4000*%
%ADD37R,1.2000X2.2000*%
G04:AMPARAMS|DCode=38|XSize=1.31mm|YSize=0.93mm|CornerRadius=0.0698mm|HoleSize=0mm|Usage=FLASHONLY|Rotation=270.000|XOffset=0mm|YOffset=0mm|HoleType=Round|Shape=RoundedRectangle|*
%AMROUNDEDRECTD38*
21,1,1.3100,0.7905,0,0,270.0*
21,1,1.1705,0.9300,0,0,270.0*
1,1,0.1395,-0.3953,-0.5853*
1,1,0.1395,-0.3953,0.5853*
1,1,0.1395,0.3953,0.5853*
1,1,0.1395,0.3953,-0.5853*
%
%ADD38ROUNDEDRECTD38*%
G04:AMPARAMS|DCode=39|XSize=1.31mm|YSize=3.24mm|CornerRadius=0.0983mm|HoleSize=0mm|Usage=FLASHONLY|Rotation=270.000|XOffset=0mm|YOffset=0mm|HoleType=Round|Shape=RoundedRectangle|*
%AMROUNDEDRECTD39*
21,1,1.3100,3.0435,0,0,270.0*
21,1,1.1135,3.2400,0,0,270.0*
1,1,0.1965,-1.5218,-0.5568*
1,1,0.1965,-1.5218,0.5568*
1,1,0.1965,1.5218,0.5568*
1,1,0.1965,1.5218,-0.5568*
%
%ADD39ROUNDEDRECTD39*%
%ADD40R,0.3000X0.5250*%
%ADD41R,0.4250X0.3000*%
%ADD42R,0.3500X0.5000*%
%ADD43R,0.3000X1.2500*%
%ADD44R,0.5000X1.2500*%
%ADD45R,1.1000X1.3000*%
%ADD46R,1.3000X1.1000*%
%ADD47R,2.0320X1.1430*%
%ADD48R,1.9000X1.3000*%
%ADD49R,1.5240X1.1430*%
%ADD50R,2.2000X1.0500*%
%ADD51R,1.0500X1.0000*%
%ADD52R,0.9300X1.0160*%
G04:AMPARAMS|DCode=53|XSize=1.5mm|YSize=0.49mm|CornerRadius=0.1225mm|HoleSize=0mm|Usage=FLASHONLY|Rotation=270.000|XOffset=0mm|YOffset=0mm|HoleType=Round|Shape=RoundedRectangle|*
%AMROUNDEDRECTD53*
21,1,1.5000,0.2450,0,0,270.0*
21,1,1.2550,0.4900,0,0,270.0*
1,1,0.2450,-0.1225,-0.6275*
1,1,0.2450,-0.1225,0.6275*
1,1,0.2450,0.1225,0.6275*
1,1,0.2450,0.1225,-0.6275*
%
%ADD53ROUNDEDRECTD53*%
%ADD54R,1.5000X0.8000*%
D18*
X957430Y588058D02*
D03*
Y602790D02*
D03*
X1048870Y471218D02*
D03*
Y485950D02*
D03*
X1079350Y471980D02*
D03*
Y486712D02*
D03*
X957430Y572056D02*
D03*
Y557324D02*
D03*
Y541830D02*
D03*
Y527098D02*
D03*
Y617014D02*
D03*
Y631746D02*
D03*
X641405Y595170D02*
D03*
Y580438D02*
D03*
X1370180Y578406D02*
D03*
Y563674D02*
D03*
X1094740Y487426D02*
D03*
Y472694D02*
D03*
X1354940Y563928D02*
D03*
Y578660D02*
D03*
X1339700Y563928D02*
D03*
Y578660D02*
D03*
X1245720Y1145334D02*
D03*
Y1160066D02*
D03*
X1259690Y1145334D02*
D03*
Y1160066D02*
D03*
D19*
X533460Y1205230D02*
D03*
Y1179830D02*
D03*
Y1154430D02*
D03*
Y1129030D02*
D03*
Y1103630D02*
D03*
Y1078230D02*
D03*
Y1052830D02*
D03*
X772160Y1205230D02*
D03*
Y1179830D02*
D03*
Y1154430D02*
D03*
Y1129030D02*
D03*
Y1103630D02*
D03*
Y1078230D02*
D03*
Y1052830D02*
D03*
D20*
X585110Y849530D02*
D03*
X720510D02*
D03*
X610510D02*
D03*
X695110D02*
D03*
D21*
X971171Y443230D02*
D03*
X956439D02*
D03*
X997204Y744220D02*
D03*
X1011936D02*
D03*
X997204Y759254D02*
D03*
X1011936D02*
D03*
X1196190Y990600D02*
D03*
X1210922D02*
D03*
X852424Y854710D02*
D03*
X867156D02*
D03*
X1026772Y780082D02*
D03*
X1041504D02*
D03*
X1054354Y693420D02*
D03*
X1069086D02*
D03*
X852424Y869950D02*
D03*
X867156D02*
D03*
X1142746Y654050D02*
D03*
X1128014D02*
D03*
Y622300D02*
D03*
X1142746D02*
D03*
X1128014Y638810D02*
D03*
X1142746D02*
D03*
X1210922Y976424D02*
D03*
X1196190D02*
D03*
X971171Y458470D02*
D03*
X956439D02*
D03*
X1343660Y1135380D02*
D03*
X1358392D02*
D03*
X813102Y1207920D02*
D03*
X798370D02*
D03*
X813356Y1192680D02*
D03*
X798624D02*
D03*
X813102Y1177440D02*
D03*
X798370D02*
D03*
X1196190Y962454D02*
D03*
X1210922D02*
D03*
Y948484D02*
D03*
X1196190D02*
D03*
X1073254Y780590D02*
D03*
X1058522D02*
D03*
X956439Y427990D02*
D03*
X971171D02*
D03*
D22*
X576834Y412750D02*
D03*
X557530D02*
D03*
X567182Y392430D02*
D03*
D23*
X1064110Y486712D02*
D03*
Y472488D02*
D03*
X641200Y625142D02*
D03*
Y610918D02*
D03*
Y549958D02*
D03*
Y564182D02*
D03*
X1366370Y483918D02*
D03*
Y498142D02*
D03*
X1335890D02*
D03*
Y483918D02*
D03*
X1324610Y578612D02*
D03*
Y564388D02*
D03*
X1351130Y498142D02*
D03*
Y483918D02*
D03*
D24*
X1017270Y604120D02*
D03*
Y599120D02*
D03*
Y594120D02*
D03*
Y589120D02*
D03*
Y584120D02*
D03*
Y579120D02*
D03*
Y574120D02*
D03*
Y569119D02*
D03*
Y564120D02*
D03*
Y559119D02*
D03*
Y554120D02*
D03*
Y549120D02*
D03*
X1085770D02*
D03*
Y554120D02*
D03*
Y559119D02*
D03*
Y564120D02*
D03*
Y569119D02*
D03*
Y574120D02*
D03*
Y579120D02*
D03*
Y584120D02*
D03*
Y589120D02*
D03*
Y594120D02*
D03*
Y599120D02*
D03*
Y604120D02*
D03*
D25*
X1024020Y542370D02*
D03*
X1029020D02*
D03*
X1034020D02*
D03*
X1039020D02*
D03*
X1044020D02*
D03*
X1049020D02*
D03*
X1054020D02*
D03*
X1059020D02*
D03*
X1064020D02*
D03*
X1069020D02*
D03*
X1074020D02*
D03*
X1079020D02*
D03*
Y610870D02*
D03*
X1074020D02*
D03*
X1069020D02*
D03*
X1064020D02*
D03*
X1059020D02*
D03*
X1054020D02*
D03*
X1049020D02*
D03*
X1044020D02*
D03*
X1039020D02*
D03*
X1034020D02*
D03*
X1029020D02*
D03*
X1024020D02*
D03*
D26*
X1051520Y576620D02*
D03*
D27*
X1011428Y728980D02*
D03*
X997204D02*
D03*
X1011428Y713740D02*
D03*
X997204D02*
D03*
X956818Y412750D02*
D03*
X971042D02*
D03*
X852424Y820420D02*
D03*
X866648D02*
D03*
X1068832Y708660D02*
D03*
X1054608D02*
D03*
X1127252Y759460D02*
D03*
X1113028D02*
D03*
X852424Y835660D02*
D03*
X866648D02*
D03*
X573532Y429260D02*
D03*
X559308D02*
D03*
X1113028Y728980D02*
D03*
X1127252D02*
D03*
X1113028Y744220D02*
D03*
X1127252D02*
D03*
D28*
X624280Y545730D02*
D03*
Y567230D02*
D03*
X582780Y545730D02*
D03*
Y567230D02*
D03*
X626820Y592630D02*
D03*
Y614130D02*
D03*
X585320Y592630D02*
D03*
Y614130D02*
D03*
D29*
X1033630Y490330D02*
D03*
Y466330D02*
D03*
D30*
X1196594Y1024730D02*
D03*
X1210818D02*
D03*
D31*
X1203960Y1004570D02*
D03*
D32*
X1008940Y356140D02*
D03*
X1000940D02*
D03*
X952940D02*
D03*
X944940D02*
D03*
D33*
X994440D02*
D03*
X989440D02*
D03*
X984440D02*
D03*
X979440D02*
D03*
X959440D02*
D03*
X964440D02*
D03*
X969440D02*
D03*
X974440D02*
D03*
D34*
X1483460Y427460D02*
D03*
D35*
X1393460Y432460D02*
D03*
X1404460D02*
D03*
X1415460D02*
D03*
X1426460D02*
D03*
X1437460D02*
D03*
X1382460D02*
D03*
X1371460D02*
D03*
X1360460D02*
D03*
X1349460D02*
D03*
D36*
X1337460Y426460D02*
D03*
D37*
Y331460D02*
D03*
X1492460D02*
D03*
D38*
X1366560Y1115060D02*
D03*
X1343660D02*
D03*
X1320760D02*
D03*
X1454190Y1113790D02*
D03*
X1431290D02*
D03*
X1408390D02*
D03*
X1282700D02*
D03*
X1259800D02*
D03*
X1236900D02*
D03*
D39*
X1343660Y1048160D02*
D03*
X1431290Y1046890D02*
D03*
X1259800D02*
D03*
D40*
X1042680Y757484D02*
D03*
X1047680D02*
D03*
X1052680D02*
D03*
X1057680D02*
D03*
X1062680D02*
D03*
X1067680D02*
D03*
X1072680D02*
D03*
X1077680D02*
D03*
X1082680D02*
D03*
Y726234D02*
D03*
X1077680D02*
D03*
X1072680D02*
D03*
X1067680D02*
D03*
X1062680D02*
D03*
X1057680D02*
D03*
X1052680D02*
D03*
X1047680D02*
D03*
X1042680D02*
D03*
X1037680D02*
D03*
Y757484D02*
D03*
D41*
X1083305Y749359D02*
D03*
Y744359D02*
D03*
Y739359D02*
D03*
Y734359D02*
D03*
X1037055D02*
D03*
Y739359D02*
D03*
Y744359D02*
D03*
Y749359D02*
D03*
D42*
X887580Y851660D02*
D03*
Y835660D02*
D03*
X907080D02*
D03*
Y851660D02*
D03*
X894080D02*
D03*
Y835660D02*
D03*
X900580Y851660D02*
D03*
Y835660D02*
D03*
D43*
X1418591Y543100D02*
D03*
X1412090D02*
D03*
X1392590D02*
D03*
X1399090D02*
D03*
X1405590D02*
D03*
X1418591Y484599D02*
D03*
X1412090D02*
D03*
X1392590D02*
D03*
X1399090D02*
D03*
X1405590D02*
D03*
D44*
X1426090Y543100D02*
D03*
Y484599D02*
D03*
X1385090Y543100D02*
D03*
Y484599D02*
D03*
D45*
X943319Y574896D02*
D03*
X943482Y552005D02*
D03*
X924410Y574850D02*
D03*
Y551850D02*
D03*
D46*
X941682Y597456D02*
D03*
Y622348D02*
D03*
D47*
X947926Y393954D02*
D03*
X979426D02*
D03*
D48*
X1066646Y857688D02*
D03*
Y802688D02*
D03*
X1034646D02*
D03*
Y857688D02*
D03*
D49*
X1460858Y874570D02*
D03*
Y856570D02*
D03*
D50*
X1484122Y898380D02*
D03*
Y927880D02*
D03*
D51*
X1468872Y913130D02*
D03*
D52*
X1459080Y828850D02*
D03*
Y843074D02*
D03*
D53*
X1256440Y832580D02*
D03*
X1262940D02*
D03*
X1269440D02*
D03*
X1275940D02*
D03*
Y790480D02*
D03*
X1269440D02*
D03*
X1262940D02*
D03*
X1256440D02*
D03*
D54*
X1303298Y918746D02*
D03*
Y907746D02*
D03*
Y896746D02*
D03*
Y885746D02*
D03*
Y874746D02*
D03*
Y844746D02*
D03*
Y833746D02*
D03*
Y822746D02*
D03*
Y811746D02*
D03*
Y800746D02*
D03*
Y789746D02*
D03*
Y778746D02*
D03*
X1425298D02*
D03*
Y789746D02*
D03*
Y800746D02*
D03*
Y811746D02*
D03*
Y822746D02*
D03*
Y833746D02*
D03*
Y844746D02*
D03*
Y874746D02*
D03*
Y885746D02*
D03*
Y896746D02*
D03*
Y907746D02*
D03*
Y918746D02*
D03*
M02*
