G04*
G04 #@! TF.GenerationSoftware,Altium Limited,Altium Designer,25.0.2 (28)*
G04*
G04 Layer_Color=16711935*
%FSLAX44Y44*%
%MOMM*%
G71*
G04*
G04 #@! TF.SameCoordinates,E8353DEC-B648-43D7-BF79-564EE0BAD765*
G04*
G04*
G04 #@! TF.FilePolarity,Negative*
G04*
G01*
G75*
%ADD88C,1.8000*%
%ADD89R,1.5112X1.5112*%
%ADD90C,1.5112*%
%ADD91R,1.7272X1.7272*%
%ADD92O,1.1032X1.9032*%
%ADD93O,1.1032X2.2032*%
%ADD94C,0.8032*%
%ADD95R,6.2032X6.2032*%
%ADD96C,6.2032*%
%ADD97R,1.8000X1.8000*%
%ADD98R,1.8000X1.8000*%
%ADD99C,0.7112*%
%ADD100C,1.2192*%
%ADD101C,0.7032*%
D88*
X1009040Y1121410D02*
D03*
Y1101410D02*
D03*
Y1231410D02*
D03*
Y1211410D02*
D03*
X1209040Y1231410D02*
D03*
Y1211410D02*
D03*
Y1121410D02*
D03*
Y1101410D02*
D03*
X942160Y1204190D02*
D03*
X916760D02*
D03*
X942160Y1234190D02*
D03*
X916760D02*
D03*
X810260Y1076960D02*
D03*
Y1102360D02*
D03*
D89*
X606740Y334010D02*
D03*
D90*
X566740D02*
D03*
D91*
X1235250Y315650D02*
D03*
D03*
X1184482Y315618D02*
D03*
D03*
X1209882D02*
D03*
X1260650Y315650D02*
D03*
D92*
X1020190Y306100D02*
D03*
X933690D02*
D03*
D93*
X1020190Y347800D02*
D03*
X933690D02*
D03*
D94*
X1005840Y342900D02*
D03*
X948040D02*
D03*
D95*
X1422400Y1205230D02*
D03*
D96*
X1350400D02*
D03*
D97*
X967560Y1204190D02*
D03*
Y1234190D02*
D03*
D98*
X810260Y1051560D02*
D03*
D99*
X986680Y590186D02*
D03*
X971509Y562268D02*
D03*
X816277Y1207920D02*
D03*
X557082Y1018346D02*
D03*
X1112520Y676910D02*
D03*
X1346200Y597154D02*
D03*
X1203960Y577850D02*
D03*
X1226566Y632460D02*
D03*
Y528574D02*
D03*
X1187450Y725170D02*
D03*
X1195070Y935990D02*
D03*
X969440Y376174D02*
D03*
X657860Y591820D02*
D03*
X1005840Y551180D02*
D03*
X1010920Y530860D02*
D03*
X1029194Y524510D02*
D03*
X1085469Y510794D02*
D03*
X1043940Y515620D02*
D03*
X1372870Y528574D02*
D03*
X1039020Y533400D02*
D03*
X1121918Y578104D02*
D03*
X1203960Y628650D02*
D03*
X1010394Y661144D02*
D03*
Y628124D02*
D03*
X667052Y543306D02*
D03*
X897890Y536194D02*
D03*
X1011936Y618744D02*
D03*
X1104900Y607060D02*
D03*
X1071880Y463550D02*
D03*
X642620Y379730D02*
D03*
X998220Y385826D02*
D03*
X906526Y820420D02*
D03*
X1056894Y742950D02*
D03*
X1121918Y703580D02*
D03*
Y492887D02*
D03*
X1404620Y559054D02*
D03*
X881380Y843280D02*
D03*
X1068324Y678180D02*
D03*
X919480Y842010D02*
D03*
X1024890Y628650D02*
D03*
X1404620Y473710D02*
D03*
X1285494Y778510D02*
D03*
X1009650Y568960D02*
D03*
X986282Y549402D02*
D03*
X1404874Y515620D02*
D03*
X1424940Y473710D02*
D03*
X1384554Y462280D02*
D03*
X1036508Y617982D02*
D03*
X1194054Y1003300D02*
D03*
X1238504Y831850D02*
D03*
Y800100D02*
D03*
X1037590Y332740D02*
D03*
X1419860Y1111758D02*
D03*
X1366370Y519684D02*
D03*
X1034020Y506763D02*
D03*
X1315720Y483918D02*
D03*
X1093470Y574120D02*
D03*
X1111758Y591074D02*
D03*
X1054020Y618664D02*
D03*
X1096264Y759460D02*
D03*
X535432Y1090930D02*
D03*
X1047750Y627126D02*
D03*
X1104427Y628396D02*
D03*
X1098296Y579374D02*
D03*
X1054100Y501824D02*
D03*
D100*
X1248410Y759460D02*
D03*
X1210310D02*
D03*
X1154430D02*
D03*
D101*
X1029520Y598620D02*
D03*
X1040520D02*
D03*
X1051520D02*
D03*
X1062520D02*
D03*
X1073520D02*
D03*
X1029520Y587620D02*
D03*
X1040520D02*
D03*
X1051520D02*
D03*
X1062520D02*
D03*
X1073520D02*
D03*
X1029520Y576620D02*
D03*
X1040520D02*
D03*
X1051520D02*
D03*
X1062520D02*
D03*
X1073520D02*
D03*
X1029520Y565620D02*
D03*
X1040520D02*
D03*
X1051520D02*
D03*
X1062520D02*
D03*
X1073520D02*
D03*
X1029520Y554620D02*
D03*
X1040520D02*
D03*
X1051520D02*
D03*
X1062520D02*
D03*
X1073520D02*
D03*
M02*
