M48
;Layer_Color=9474304
;FILE_FORMAT=4:4
METRIC,LZ
;TYPE=PLATED
T01F00S00C0.2000
T02F00S00C0.2540
T03F00S00C0.5080
T05F00S00C0.8000
T06F00S00C1.0000
T07F00S00C4.5500
;TYPE=NON_PLATED
T08F00S00C0.6000
T09F00S00C0.9000
%
T01
X0102952Y0055462
Y0056562
Y0057662
Y0058762
Y0059862
X0104052
X0105152
Y0058762
X0104052
Y0057662
X0105152
Y0056562
X0104052
Y0055462
X0105152
X0106252
X0107352
Y0056562
Y0057662
X0106252
Y0056562
Y0058762
Y0059862
X0107352
Y0058762
T02
X0064262Y0037973
X0096944Y00376174
X0099822Y00385826
X0103759Y0033274
X01226566Y00528574
X0120396Y0057785
Y0062865
X01226566Y0063246
X013462Y00597154
X0137287Y00528574
X0136637Y00519684
X01404874Y0051562
X0140462Y0047371
X0142494
X01384554Y0046228
X0131572Y00483918
X0140462Y00559054
X01285494Y0077851
X0118745Y0072517
X01121918Y0070358
X0111252Y0067691
X01068324Y0067818
X0104775Y00627126
X0105402Y00618664
X01036508Y00617982
X0102489Y0062865
X01010394Y00628124
X01011936Y00618744
X01010394Y00661144
X0100965Y0056896
X0100584Y0055118
X00986282Y00549402
X00971509Y00562268
X0098668Y00590186
X0101092Y0053086
X01029194Y0052451
X0103902Y005334
X0104394Y0051562
X0103402Y00506763
X010541Y00501824
X01085469Y00510794
X01121918Y00492887
X0107188Y0046355
X0109347Y0057412
X01098296Y00579374
X01121918Y00578104
X01111758Y00591074
X011049Y0060706
X01104427Y00628396
X01096264Y0075946
X01056894Y0074295
X0089789Y00536194
X00667052Y00543306
X0065786Y0059182
X00557082Y01018346
X00535432Y0109093
X0088138Y0084328
X0091948Y0084201
X00906526Y0082042
X01238504Y0083185
Y008001
X0119507Y0093599
X01194054Y010033
X0141986Y01111758
X00816277Y0120792
T03
X0121031Y0075946
X0124841
X0115443
T05
X0056674Y0033401
X0060674
T06
X01184482Y00315618
X01209882
X0123525Y0031565
X0126065
X0100904Y0110141
Y0112141
X0081026Y0110236
Y0107696
Y0105156
X0120904Y0110141
Y0112141
Y0121141
Y0123141
X0100904
Y0121141
X0096756Y0120419
X0094216
X0091676
Y0123419
X0094216
X0096756
T07
X013504Y0120523
X014224
T08
X0094804Y003429
X0100584
T09
X0136546Y0032746
X0144546
M30
