G04*
G04 #@! TF.GenerationSoftware,Altium Limited,Altium Designer,25.0.2 (28)*
G04*
G04 Layer_Color=32896*
%FSLAX44Y44*%
%MOMM*%
G71*
G04*
G04 #@! TF.SameCoordinates,E8353DEC-B648-43D7-BF79-564EE0BAD765*
G04*
G04*
G04 #@! TF.FilePolarity,Positive*
G04*
G01*
G75*
%ADD14C,0.2540*%
%ADD17C,0.1778*%
D14*
X1219040Y1081410D02*
Y1251410D01*
X999040Y1081410D02*
X1219040D01*
X999040D02*
Y1251410D01*
X1219040D01*
X1064040Y1166410D02*
X1154040D01*
X1064040D02*
X1074040Y1156410D01*
X1064040Y1166410D02*
X1074040Y1156410D01*
X1064040Y1166410D02*
X1074040Y1176410D01*
X1430020Y716957D02*
Y701720D01*
Y716957D02*
X1424941D01*
X1422764Y716231D01*
X1421313Y714780D01*
X1420588Y713329D01*
X1419862Y711152D01*
Y707525D01*
X1420588Y705348D01*
X1421313Y703897D01*
X1422764Y702446D01*
X1424941Y701720D01*
X1430020D01*
X1416452Y707525D02*
X1407745D01*
Y708976D01*
X1408471Y710427D01*
X1409196Y711152D01*
X1410648Y711878D01*
X1412824D01*
X1414275Y711152D01*
X1415726Y709701D01*
X1416452Y707525D01*
Y706074D01*
X1415726Y703897D01*
X1414275Y702446D01*
X1412824Y701720D01*
X1410648D01*
X1409196Y702446D01*
X1407745Y703897D01*
X1396499Y709701D02*
X1397225Y711152D01*
X1399401Y711878D01*
X1401578D01*
X1403755Y711152D01*
X1404480Y709701D01*
X1403755Y708250D01*
X1402304Y707525D01*
X1398676Y706799D01*
X1397225Y706074D01*
X1396499Y704622D01*
Y703897D01*
X1397225Y702446D01*
X1399401Y701720D01*
X1401578D01*
X1403755Y702446D01*
X1404480Y703897D01*
X1391856Y716957D02*
X1391130Y716231D01*
X1390405Y716957D01*
X1391130Y717682D01*
X1391856Y716957D01*
X1391130Y711878D02*
Y701720D01*
X1379013Y711878D02*
Y700269D01*
X1379739Y698092D01*
X1380464Y697367D01*
X1381915Y696641D01*
X1384092D01*
X1385543Y697367D01*
X1379013Y709701D02*
X1380464Y711152D01*
X1381915Y711878D01*
X1384092D01*
X1385543Y711152D01*
X1386994Y709701D01*
X1387720Y707525D01*
Y706074D01*
X1386994Y703897D01*
X1385543Y702446D01*
X1384092Y701720D01*
X1381915D01*
X1380464Y702446D01*
X1379013Y703897D01*
X1374950Y711878D02*
Y701720D01*
Y708976D02*
X1372773Y711152D01*
X1371322Y711878D01*
X1369146D01*
X1367695Y711152D01*
X1366969Y708976D01*
Y701720D01*
X1362978Y707525D02*
X1354272D01*
Y708976D01*
X1354997Y710427D01*
X1355723Y711152D01*
X1357174Y711878D01*
X1359350D01*
X1360802Y711152D01*
X1362253Y709701D01*
X1362978Y707525D01*
Y706074D01*
X1362253Y703897D01*
X1360802Y702446D01*
X1359350Y701720D01*
X1357174D01*
X1355723Y702446D01*
X1354272Y703897D01*
X1342300Y716957D02*
Y701720D01*
Y709701D02*
X1343751Y711152D01*
X1345202Y711878D01*
X1347379D01*
X1348830Y711152D01*
X1350281Y709701D01*
X1351007Y707525D01*
Y706074D01*
X1350281Y703897D01*
X1348830Y702446D01*
X1347379Y701720D01*
X1345202D01*
X1343751Y702446D01*
X1342300Y703897D01*
X1326265Y716957D02*
Y701720D01*
Y716957D02*
X1319735D01*
X1317558Y716231D01*
X1316833Y715506D01*
X1316107Y714055D01*
Y712604D01*
X1316833Y711152D01*
X1317558Y710427D01*
X1319735Y709701D01*
X1326265D02*
X1319735D01*
X1317558Y708976D01*
X1316833Y708250D01*
X1316107Y706799D01*
Y704622D01*
X1316833Y703171D01*
X1317558Y702446D01*
X1319735Y701720D01*
X1326265D01*
X1311972Y711878D02*
X1307618Y701720D01*
X1303265Y711878D02*
X1307618Y701720D01*
X1309069Y698818D01*
X1310520Y697367D01*
X1311972Y696641D01*
X1312697D01*
X1425667Y686772D02*
X1427118Y686047D01*
X1428569Y684596D01*
X1429294Y683145D01*
X1430020Y680968D01*
Y677340D01*
X1429294Y675163D01*
X1428569Y673712D01*
X1427118Y672261D01*
X1425667Y671536D01*
X1422764D01*
X1421313Y672261D01*
X1419862Y673712D01*
X1419137Y675163D01*
X1418411Y677340D01*
Y680968D01*
X1419137Y683145D01*
X1419862Y684596D01*
X1421313Y686047D01*
X1422764Y686772D01*
X1425667D01*
X1414856Y681693D02*
Y671536D01*
Y678791D02*
X1412679Y680968D01*
X1411228Y681693D01*
X1409051D01*
X1407600Y680968D01*
X1406875Y678791D01*
Y671536D01*
X1402884Y681693D02*
Y674438D01*
X1402159Y672261D01*
X1400707Y671536D01*
X1398531D01*
X1397080Y672261D01*
X1394903Y674438D01*
Y681693D02*
Y671536D01*
X1390912Y681693D02*
Y671536D01*
Y677340D02*
X1390187Y679517D01*
X1388736Y680968D01*
X1387285Y681693D01*
X1385108D01*
X1360874Y683145D02*
X1361600Y684596D01*
X1363051Y686047D01*
X1364502Y686772D01*
X1367404D01*
X1368855Y686047D01*
X1370307Y684596D01*
X1371032Y683145D01*
X1371758Y680968D01*
Y677340D01*
X1371032Y675163D01*
X1370307Y673712D01*
X1368855Y672261D01*
X1367404Y671536D01*
X1364502D01*
X1363051Y672261D01*
X1361600Y673712D01*
X1360874Y675163D01*
Y677340D01*
X1364502D02*
X1360874D01*
X1353764Y681693D02*
X1355215Y680968D01*
X1356666Y679517D01*
X1357392Y677340D01*
Y675889D01*
X1356666Y673712D01*
X1355215Y672261D01*
X1353764Y671536D01*
X1351587D01*
X1350136Y672261D01*
X1348685Y673712D01*
X1347959Y675889D01*
Y677340D01*
X1348685Y679517D01*
X1350136Y680968D01*
X1351587Y681693D01*
X1353764D01*
X1344622Y686772D02*
Y671536D01*
X1337366Y681693D02*
X1344622Y674438D01*
X1341720Y677340D02*
X1336641Y671536D01*
X1325540Y686772D02*
Y671536D01*
Y679517D02*
X1326991Y680968D01*
X1328442Y681693D01*
X1330618D01*
X1332070Y680968D01*
X1333521Y679517D01*
X1334246Y677340D01*
Y675889D01*
X1333521Y673712D01*
X1332070Y672261D01*
X1330618Y671536D01*
X1328442D01*
X1326991Y672261D01*
X1325540Y673712D01*
X1321476Y677340D02*
X1312770D01*
Y678791D01*
X1313495Y680242D01*
X1314221Y680968D01*
X1315672Y681693D01*
X1317849D01*
X1319300Y680968D01*
X1320751Y679517D01*
X1321476Y677340D01*
Y675889D01*
X1320751Y673712D01*
X1319300Y672261D01*
X1317849Y671536D01*
X1315672D01*
X1314221Y672261D01*
X1312770Y673712D01*
X1309505Y681693D02*
Y671536D01*
Y678791D02*
X1307328Y680968D01*
X1305877Y681693D01*
X1303700D01*
X1302249Y680968D01*
X1301523Y678791D01*
Y671536D01*
Y678791D02*
X1299347Y680968D01*
X1297896Y681693D01*
X1295719D01*
X1294268Y680968D01*
X1293542Y678791D01*
Y671536D01*
X1287303Y686772D02*
X1286577Y686047D01*
X1285851Y686772D01*
X1286577Y687498D01*
X1287303Y686772D01*
X1286577Y681693D02*
Y671536D01*
X1283167Y681693D02*
Y671536D01*
Y677340D02*
X1282441Y679517D01*
X1280990Y680968D01*
X1279539Y681693D01*
X1277362D01*
X1420588Y661667D02*
X1430020D01*
Y646430D01*
X1420588D01*
X1430020Y654411D02*
X1424216D01*
X1418048Y656588D02*
Y646430D01*
Y653686D02*
X1415872Y655862D01*
X1414420Y656588D01*
X1412244D01*
X1410793Y655862D01*
X1410067Y653686D01*
Y646430D01*
Y653686D02*
X1407890Y655862D01*
X1406439Y656588D01*
X1404263D01*
X1402811Y655862D01*
X1402086Y653686D01*
Y646430D01*
X1395846Y661667D02*
X1395121Y660941D01*
X1394395Y661667D01*
X1395121Y662392D01*
X1395846Y661667D01*
X1395121Y656588D02*
Y646430D01*
X1391711Y656588D02*
Y646430D01*
Y652234D02*
X1390985Y654411D01*
X1389534Y655862D01*
X1388083Y656588D01*
X1385906D01*
X1375821Y654411D02*
X1377272Y655862D01*
X1378723Y656588D01*
X1380900D01*
X1382351Y655862D01*
X1383802Y654411D01*
X1384527Y652234D01*
Y650783D01*
X1383802Y648607D01*
X1382351Y647156D01*
X1380900Y646430D01*
X1378723D01*
X1377272Y647156D01*
X1375821Y648607D01*
X1363849Y656588D02*
Y646430D01*
Y654411D02*
X1365300Y655862D01*
X1366751Y656588D01*
X1368928D01*
X1370379Y655862D01*
X1371830Y654411D01*
X1372556Y652234D01*
Y650783D01*
X1371830Y648607D01*
X1370379Y647156D01*
X1368928Y646430D01*
X1366751D01*
X1365300Y647156D01*
X1363849Y648607D01*
X1359786Y656588D02*
Y646430D01*
Y653686D02*
X1357609Y655862D01*
X1356158Y656588D01*
X1353981D01*
X1352530Y655862D01*
X1351805Y653686D01*
Y646430D01*
X1335842Y661667D02*
Y646430D01*
X1327136D01*
X1325467Y656588D02*
Y649332D01*
X1324741Y647156D01*
X1323290Y646430D01*
X1321114D01*
X1319662Y647156D01*
X1317486Y649332D01*
Y656588D02*
Y646430D01*
X1311319Y661667D02*
Y649332D01*
X1310593Y647156D01*
X1309142Y646430D01*
X1307691D01*
X1313495Y656588D02*
X1308416D01*
X1299710Y661667D02*
X1301161D01*
X1302612Y660941D01*
X1303337Y658764D01*
Y646430D01*
X1305514Y656588D02*
X1300435D01*
X1297533D02*
Y649332D01*
X1296807Y647156D01*
X1295356Y646430D01*
X1293180D01*
X1291729Y647156D01*
X1289552Y649332D01*
Y656588D02*
Y646430D01*
X1273589Y661667D02*
Y646430D01*
X1263432Y661667D02*
X1273589Y651509D01*
X1269962Y655137D02*
X1263432Y646430D01*
X1258570Y661667D02*
X1257845Y660941D01*
X1257119Y661667D01*
X1257845Y662392D01*
X1258570Y661667D01*
X1257845Y656588D02*
Y646430D01*
X1254435Y661667D02*
Y646430D01*
X1249791Y661667D02*
X1249066Y660941D01*
X1248340Y661667D01*
X1249066Y662392D01*
X1249791Y661667D01*
X1249066Y656588D02*
Y646430D01*
X1236949Y654411D02*
X1238400Y655862D01*
X1239851Y656588D01*
X1242028D01*
X1243479Y655862D01*
X1244930Y654411D01*
X1245655Y652234D01*
Y650783D01*
X1244930Y648607D01*
X1243479Y647156D01*
X1242028Y646430D01*
X1239851D01*
X1238400Y647156D01*
X1236949Y648607D01*
X1023805Y1105697D02*
X1019996D01*
X1018092Y1107601D01*
Y1115219D01*
X1019996Y1117123D01*
X1023805D01*
X1025709Y1115219D01*
Y1107601D01*
X1023805Y1105697D01*
X1029518D02*
Y1115219D01*
X1031422Y1117123D01*
X1035231D01*
X1037135Y1115219D01*
Y1105697D01*
X1040944D02*
X1048562D01*
X1044753D01*
Y1117123D01*
X1052371Y1111410D02*
X1059988D01*
X1056179Y1107601D02*
Y1115219D01*
X1174757Y1105697D02*
X1178566D01*
X1176661D01*
Y1117123D01*
X1174757D01*
X1178566D01*
X1184279D02*
Y1105697D01*
X1191897Y1117123D01*
Y1105697D01*
X1195705Y1111410D02*
X1203323D01*
X1199514Y1107601D02*
Y1115219D01*
X1023805Y1215697D02*
X1019996D01*
X1018092Y1217601D01*
Y1225219D01*
X1019996Y1227123D01*
X1023805D01*
X1025709Y1225219D01*
Y1217601D01*
X1023805Y1215697D01*
X1029518D02*
Y1225219D01*
X1031422Y1227123D01*
X1035231D01*
X1037135Y1225219D01*
Y1215697D01*
X1040944D02*
X1048562D01*
X1044753D01*
Y1227123D01*
X1052371Y1221410D02*
X1059988D01*
X1174757Y1215697D02*
X1178566D01*
X1176661D01*
Y1227123D01*
X1174757D01*
X1178566D01*
X1184279D02*
Y1215697D01*
X1191897Y1227123D01*
Y1215697D01*
X1195705Y1221410D02*
X1203323D01*
D17*
X1234844Y1239520D02*
X1229403D01*
X1228314Y1239883D01*
X1227589Y1240608D01*
X1227226Y1241697D01*
Y1242422D01*
X1227589Y1243511D01*
X1228314Y1244236D01*
X1229403Y1244599D01*
X1234844D01*
X1233393Y1246703D02*
X1233756Y1247429D01*
X1234844Y1248517D01*
X1227226D01*
X1234844Y1254466D02*
X1234482Y1253378D01*
X1233393Y1252653D01*
X1231579Y1252290D01*
X1230491D01*
X1228677Y1252653D01*
X1227589Y1253378D01*
X1227226Y1254466D01*
Y1255192D01*
X1227589Y1256280D01*
X1228677Y1257006D01*
X1230491Y1257369D01*
X1231579D01*
X1233393Y1257006D01*
X1234482Y1256280D01*
X1234844Y1255192D01*
Y1254466D01*
M02*
